Muli-Italic.ufo
<glyph name="exclam" format="2">
  <advance width="228.3855421686747"/>
  <unicode hex="0021"/>
  <outline>
    <contour>
      <point x="78.93975903614458" y="184.0843373493976" type="line"/>
      <point x="128.96385542168676" y="184.0843373493976" type="line"/>
      <point x="236.42168674698794" y="705.0" type="line"/>
      <point x="135.96385542168673" y="705.0" type="line"/>
    </contour>
    <contour>
      <point x="23.012048192771083" y="0.0" type="line"/>
      <point x="125.37349397590361" y="0.0" type="line"/>
      <point x="141.5421686746988" y="102.42168674698794" type="line"/>
      <point x="39.18072289156626" y="102.42168674698794" type="line"/>
    </contour>
  </outline>
</glyph>
<glyph name="numbersign" format="2">
  <advance width="600.0"/>
  <unicode hex="0023"/>
  <outline>
    <contour>
      <point x="45.95180722891567" y="0.0" type="line"/>
      <point x="110.62650602409639" y="0.0" type="line"/>
      <point x="174.8674698795181" y="182.0722891566265" type="line"/>
      <point x="331.0240963855422" y="182.0722891566265" type="line"/>
      <point x="265.3132530120482" y="0.0" type="line"/>
      <point x="329.9879518072289" y="0.0" type="line"/>
      <point x="395.2289156626506" y="182.0722891566265" type="line"/>
      <point x="537.5421686746988" y="182.0722891566265" type="line"/>
      <point x="547.3614457831325" y="240.86746987951807" type="line"/>
      <point x="416.27710843373495" y="240.86746987951807" type="line"/>
      <point x="500.2289156626506" y="472.13253012048193" type="line"/>
      <point x="605.0120481927711" y="472.13253012048193" type="line"/>
      <point x="613.8313253012047" y="531.3975903614457" type="line"/>
      <point x="521.2771084337348" y="531.3975903614457" type="line"/>
      <point x="583.9879518072289" y="705.0" type="line"/>
      <point x="519.7831325301205" y="705.0" type="line"/>
      <point x="457.6024096385542" y="531.3975903614457" type="line"/>
      <point x="300.44578313253015" y="531.3975903614457" type="line"/>
      <point x="362.6265060240964" y="705.0" type="line"/>
      <point x="299.48192771084337" y="705.0" type="line"/>
      <point x="236.77108433734938" y="531.3975903614457" type="line"/>
      <point x="94.9277108433735" y="531.3975903614457" type="line"/>
      <point x="86.10843373493977" y="472.13253012048193" type="line"/>
      <point x="215.72289156626505" y="472.13253012048193" type="line"/>
      <point x="131.77108433734938" y="240.86746987951807" type="line"/>
      <point x="27.987951807228917" y="240.86746987951807" type="line"/>
      <point x="18.16867469879518" y="182.0722891566265" type="line"/>
      <point x="111.19277108433735" y="182.0722891566265" type="line"/>
    </contour>
    <contour>
      <point x="195.9156626506024" y="240.86746987951807" type="line"/>
      <point x="279.3975903614458" y="472.13253012048193" type="line"/>
      <point x="436.0843373493976" y="472.13253012048193" type="line"/>
      <point x="352.6024096385542" y="240.86746987951807" type="line"/>
    </contour>
  </outline>
</glyph>
<glyph name="dollar" format="2">
  <advance width="600.0"/>
  <unicode hex="0024"/>
  <outline>
    <contour>
      <point x="217.90361445783134" y="-115.0" type="line"/>
      <point x="286.09638554216866" y="-115.0" type="line"/>
      <point x="306.56626506024094" y="13.289156626506024" type="line"/>
      <point x="287.27710843373495" y="-4.0" type="line"/>
      <point x="427.27710843373495" y="4.759036144578314"/>
      <point x="523.0963855421687" y="73.22891566265059"/>
      <point x="540.0361445783133" y="179.9277108433735" type="curve" smooth="yes"/>
      <point x="556.5060240963855" y="283.2168674698795"/>
      <point x="502.9156626506024" y="347.0361445783132"/>
      <point x="375.1566265060241" y="371.38554216867465" type="curve" smooth="yes"/>
      <point x="282.6867469879518" y="388.79518072289153" type="line" smooth="yes"/>
      <point x="200.02409638554218" y="403.855421686747"/>
      <point x="170.19277108433735" y="444.9277108433735"/>
      <point x="180.84337349397592" y="510.3614457831325" type="curve" smooth="yes"/>
      <point x="193.49397590361448" y="588.9156626506025"/>
      <point x="265.74698795180717" y="637.4578313253012"/>
      <point x="369.3493975903615" y="637.4578313253012" type="curve" smooth="yes"/>
      <point x="447.12048192771084" y="637.4578313253012"/>
      <point x="507.5301204819277" y="614.3373493975903"/>
      <point x="552.1204819277108" y="570.0361445783133" type="curve"/>
      <point x="587.9879518072289" y="632.6987951807229" type="line"/>
      <point x="542.8674698795181" y="678.9397590361446"/>
      <point x="471.45783132530124" y="706.0"/>
      <point x="402.9879518072289" y="708.9397590361446" type="curve"/>
      <point x="413.6265060240964" y="695.0602409638554" type="line"/>
      <point x="434.09638554216866" y="820.0" type="line"/>
      <point x="365.90361445783134" y="820.0" type="line"/>
      <point x="345.43373493975906" y="695.0602409638554" type="line"/>
      <point x="359.95180722891564" y="709.0" type="line"/>
      <point x="220.8433734939759" y="702.7710843373494"/>
      <point x="120.78313253012048" y="631.7710843373494"/>
      <point x="101.8433734939759" y="513.5421686746988" type="curve" smooth="yes"/>
      <point x="84.8433734939759" y="408.0722891566265"/>
      <point x="140.89156626506025" y="337.2530120481928"/>
      <point x="253.95180722891564" y="315.84337349397595" type="curve" smooth="yes"/>
      <point x="346.421686746988" y="298.43373493975906" type="line" smooth="yes"/>
      <point x="437.26506024096386" y="282.31325301204816"/>
      <point x="469.6265060240964" y="244.36144578313252"/>
      <point x="459.5060240963855" y="183.51807228915663" type="curve" smooth="yes"/>
      <point x="448.855421686747" y="115.6144578313253"/>
      <point x="386.13253012048193" y="67.5421686746988"/>
      <point x="279.4698795180723" y="67.5421686746988" type="curve" smooth="yes"/>
      <point x="176.9879518072289" y="67.5421686746988"/>
      <point x="111.87951807228916" y="92.5421686746988"/>
      <point x="56.81927710843373" y="134.19277108433735" type="curve"/>
      <point x="20.07228915662651" y="70.18072289156626" type="line"/>
      <point x="74.60240963855422" y="22.0"/>
      <point x="169.48192771084337" y="-0.4698795180722891"/>
      <point x="254.95180722891564" y="-4.9397590361445785" type="curve"/>
      <point x="237.3734939759036" y="12.289156626506024" type="line"/>
    </contour>
  </outline>
</glyph>
<glyph name="ampersand" format="2">
  <advance width="670.2710843373494"/>
  <unicode hex="0026"/>
  <outline>
    <contour>
      <point x="610.6385542168674" y="-8.939759036144578" type="curve"/>
      <point x="649.2650602409639" y="50.8433734939759" type="line"/>
      <point x="596.6746987951807" y="77.20481927710844"/>
      <point x="552.0240963855422" y="118.74698795180723"/>
      <point x="524.1445783132531" y="155.74698795180723" type="curve"/>
      <point x="530.2048192771085" y="132.10843373493975" type="line"/>
      <point x="585.3132530120482" y="203.9879518072289"/>
      <point x="629.2530120481928" y="301.86746987951807"/>
      <point x="650.722891566265" y="412.9277108433735" type="curve"/>
      <point x="577.710843373494" y="412.9277108433735" type="line"/>
      <point x="561.1807228915663" y="323.4457831325301"/>
      <point x="526.5301204819277" y="239.49397590361446"/>
      <point x="483.5301204819277" y="183.96385542168676" type="curve"/>
      <point x="497.98795180722897" y="183.96385542168676" type="line"/>
      <point x="337.73493975903614" y="394.12048192771084" type="line"/>
      <point x="337.9156626506024" y="372.4216867469879" type="line"/>
      <point x="464.4578313253012" y="442.0240963855421"/>
      <point x="510.6265060240964" y="498.7831325301205"/>
      <point x="521.6265060240964" y="566.1927710843374" type="curve" smooth="yes"/>
      <point x="536.0361445783133" y="658.710843373494"/>
      <point x="468.27710843373495" y="713.9397590361446"/>
      <point x="374.5301204819277" y="713.9397590361446" type="curve" smooth="yes"/>
      <point x="262.96385542168673" y="713.9397590361446"/>
      <point x="197.7951807228916" y="651.2409638554217"/>
      <point x="184.855421686747" y="571.1927710843373" type="curve" smooth="yes"/>
      <point x="174.32530120481928" y="505.54216867469876"/>
      <point x="194.3855421686747" y="454.3734939759036"/>
      <point x="246.09638554216866" y="387.8313253012048" type="curve"/>
      <point x="262.0240963855422" y="402.87951807228916" type="line"/>
      <point x="214.3734939759036" y="375.1686746987952" type="line" smooth="yes"/>
      <point x="115.78313253012048" y="317.86746987951807"/>
      <point x="52.31325301204819" y="263.45783132530124"/>
      <point x="39.31325301204819" y="181.4578313253012" type="curve" smooth="yes"/>
      <point x="21.373493975903614" y="69.93975903614458"/>
      <point x="99.77108433734941" y="-8.939759036144578"/>
      <point x="246.289156626506" y="-8.939759036144578" type="curve" smooth="yes"/>
      <point x="341.7590361445783" y="-8.939759036144578"/>
      <point x="431.6987951807229" y="31.710843373493976"/>
      <point x="497.8795180722892" y="101.07228915662651" type="curve"/>
      <point x="472.89156626506025" y="101.5421686746988" type="line"/>
      <point x="504.0" y="63.19277108433735"/>
      <point x="552.6987951807229" y="18.951807228915662"/>
    </contour>
    <contour>
      <point x="256.27710843373495" y="57.31325301204819" type="curve" smooth="yes"/>
      <point x="155.55421686746988" y="57.31325301204819"/>
      <point x="108.72289156626506" y="106.6144578313253"/>
      <point x="120.3132530120482" y="183.74698795180723" type="curve" smooth="yes"/>
      <point x="130.3734939759036" y="245.16867469879517"/>
      <point x="174.73493975903614" y="280.8192771084337"/>
      <point x="257.51807228915663" y="329.48192771084337" type="curve" smooth="yes"/>
      <point x="302.4096385542169" y="356.31325301204816" type="line"/>
      <point x="268.55421686746985" y="359.8433734939759" type="line"/>
      <point x="449.7951807228916" y="127.75903614457832" type="line"/>
      <point x="456.49397590361446" y="151.3975903614458" type="line"/>
      <point x="401.6626506024096" y="90.20481927710844"/>
      <point x="336.0602409638554" y="57.31325301204819"/>
    </contour>
    <contour>
      <point x="372.1807228915663" y="653.3253012048193" type="curve" smooth="yes"/>
      <point x="428.6626506024096" y="653.3253012048193"/>
      <point x="461.43373493975906" y="619.0240963855422"/>
      <point x="452.3734939759036" y="566.132530120482" type="curve" smooth="yes"/>
      <point x="444.3132530120482" y="513.8915662650602"/>
      <point x="399.60240963855426" y="474.5903614457831"/>
      <point x="297.4096385542169" y="417.9277108433735" type="curve"/>
      <point x="315.3975903614458" y="420.9879518072289" type="line"/>
      <point x="265.03614457831327" y="487.65060240963857"/>
      <point x="253.56626506024097" y="515.7710843373494"/>
      <point x="261.6265060240964" y="568.132530120482" type="curve" smooth="yes"/>
      <point x="269.21686746987956" y="616.0240963855422"/>
      <point x="311.6385542168675" y="653.3253012048193"/>
    </contour>
  </outline>
</glyph>
<glyph name="parenleft" format="2">
  <advance width="317.59638554216866"/>
  <unicode hex="0028"/>
  <outline>
    <contour>
      <point x="145.74698795180723" y="-180.0" type="curve"/>
      <point x="212.87951807228913" y="-180.0" type="line"/>
      <point x="190.87951807228916" y="-83.12048192771084"/>
      <point x="177.93975903614458" y="13.879518072289159"/>
      <point x="177.93975903614458" y="99.06024096385542" type="curve" smooth="yes"/>
      <point x="177.93975903614458" y="326.5903614457832"/>
      <point x="255.59036144578315" y="530.6506024096385"/>
      <point x="360.71084337349396" y="705.0" type="curve"/>
      <point x="287.9879518072289" y="705.0" type="line"/>
      <point x="176.28915662650604" y="554.1686746987951"/>
      <point x="94.0" y="341.2168674698795"/>
      <point x="94.0" y="119.3855421686747" type="curve" smooth="yes"/>
      <point x="94.0" y="21.216867469879517"/>
      <point x="111.81927710843375" y="-80.7710843373494"/>
    </contour>
  </outline>
</glyph>
<glyph name="parenright" format="2">
  <advance width="317.59638554216866"/>
  <unicode hex="0029"/>
  <outline>
    <contour>
      <point x="32.8433734939759" y="-180.0" type="line"/>
      <point x="144.5421686746988" y="-29.16867469879518"/>
      <point x="226.83132530120483" y="184.25301204819277"/>
      <point x="226.83132530120483" y="405.6144578313253" type="curve" smooth="yes"/>
      <point x="226.83132530120483" y="504.2530120481927"/>
      <point x="209.0120481927711" y="605.7710843373493"/>
      <point x="175.0843373493976" y="705.0" type="curve"/>
      <point x="107.95180722891565" y="705.0" type="line"/>
      <point x="129.95180722891567" y="608.1204819277108"/>
      <point x="142.89156626506025" y="511.5903614457832"/>
      <point x="142.89156626506025" y="425.93975903614455" type="curve" smooth="yes"/>
      <point x="142.89156626506025" y="198.87951807228916"/>
      <point x="65.24096385542168" y="-5.650602409638553"/>
      <point x="-39.87951807228916" y="-180.0" type="curve"/>
    </contour>
  </outline>
</glyph>
<glyph name="asterisk" format="2">
  <advance width="454.34939759036143"/>
  <unicode hex="002A"/>
  <outline>
    <contour>
      <point x="174.10843373493975" y="365.72289156626505" type="line"/>
      <point x="277.0602409638554" y="499.6746987951807" type="line"/>
      <point x="355.89156626506025" y="365.72289156626505" type="line"/>
      <point x="404.33734939759034" y="400.93975903614455" type="line"/>
      <point x="315.1566265060241" y="526.9518072289156" type="line"/>
      <point x="474.10843373493975" y="574.2530120481927" type="line"/>
      <point x="458.93975903614455" y="630.5180722891566" type="line"/>
      <point x="302.9277108433735" y="575.3975903614459" type="line"/>
      <point x="320.86746987951807" y="736.0" type="line"/>
      <point x="260.13253012048193" y="736.0" type="line"/>
      <point x="252.48192771084337" y="575.4578313253013" type="line"/>
      <point x="104.46987951807229" y="630.5180722891566" type="line"/>
      <point x="82.48192771084337" y="574.2530120481927" type="line"/>
      <point x="234.90361445783134" y="527.4819277108434" type="line"/>
      <point x="125.66265060240964" y="400.93975903614455" type="line"/>
    </contour>
  </outline>
</glyph>
<glyph name="plus" format="2">
  <advance width="600.0"/>
  <unicode hex="002B"/>
  <outline>
    <contour>
      <point x="234.7831325301205" y="40.0" type="line"/>
      <point x="298.7469879518072" y="40.0" type="line"/>
      <point x="332.86746987951807" y="255.72289156626505" type="line"/>
      <point x="547.1807228915663" y="255.72289156626505" type="line"/>
      <point x="556.9397590361446" y="317.7469879518072" type="line"/>
      <point x="342.6265060240964" y="317.7469879518072" type="line"/>
      <point x="375.7469879518072" y="528.0" type="line"/>
      <point x="311.7831325301205" y="528.0" type="line"/>
      <point x="278.66265060240966" y="317.7469879518072" type="line"/>
      <point x="62.81927710843374" y="317.7469879518072" type="line"/>
      <point x="53.06024096385542" y="255.72289156626505" type="line"/>
      <point x="268.90361445783134" y="255.72289156626505" type="line"/>
    </contour>
  </outline>
</glyph>
<glyph name="comma" format="2">
  <advance width="228.3855421686747"/>
  <unicode hex="002C"/>
  <outline>
    <contour>
      <point x="51.04819277108433" y="-114.44578313253012" type="line"/>
      <point x="103.67469879518072" y="-71.57831325301206"/>
      <point x="118.8433734939759" y="-33.06024096385542"/>
      <point x="127.72289156626506" y="21.68674698795181" type="curve" smooth="yes"/>
      <point x="140.5421686746988" y="102.42168674698794" type="line"/>
      <point x="38.65060240963855" y="102.42168674698794" type="line"/>
      <point x="22.481927710843372" y="0.0" type="line"/>
      <point x="95.56626506024097" y="0.0" type="line"/>
      <point x="73.33734939759036" y="16.80722891566265" type="line"/>
      <point x="67.4578313253012" y="-18.120481927710845"/>
      <point x="57.28915662650603" y="-42.93975903614458"/>
      <point x="18.180722891566262" y="-79.16867469879517" type="curve"/>
    </contour>
  </outline>
</glyph>
<glyph name="hyphen" format="2">
  <advance width="428.4578313253012"/>
  <unicode hex="002D"/>
  <outline>
    <contour>
      <point x="69.89156626506023" y="240.8433734939759" type="line"/>
      <point x="354.8072289156626" y="240.8433734939759" type="line"/>
      <point x="365.0361445783132" y="307.50602409638554" type="line"/>
      <point x="80.59036144578313" y="307.50602409638554" type="line"/>
    </contour>
  </outline>
</glyph>
<glyph name="slash" format="2">
  <advance width="285.54819277108436"/>
  <unicode hex="002F"/>
  <outline>
    <contour>
      <point x="1.66265060240964" y="-55.28915662650603" type="line"/>
      <point x="391.83132530120486" y="747.7590361445783" type="line"/>
      <point x="319.28915662650604" y="747.7590361445783" type="line"/>
      <point x="-71.34939759036145" y="-55.28915662650603" type="line"/>
    </contour>
  </outline>
</glyph>
<glyph name="zero" format="2">
  <advance width="600.0"/>
  <unicode hex="0030"/>
  <outline>
    <contour>
      <point x="267.87951807228916" y="-8.939759036144578" type="curve" smooth="yes"/>
      <point x="420.1686746987952" y="-8.939759036144578"/>
      <point x="525.4578313253012" y="103.53012048192771"/>
      <point x="562.4578313253012" y="341.5903614457831" type="curve" smooth="yes"/>
      <point x="600.9277108433735" y="583.8795180722891"/>
      <point x="531.2891566265062" y="713.9397590361446"/>
      <point x="364.65060240963857" y="713.9397590361446" type="curve" smooth="yes"/>
      <point x="208.95180722891567" y="713.9397590361446"/>
      <point x="107.01204819277108" y="603.8795180722891"/>
      <point x="69.01204819277108" y="365.289156626506" type="curve" smooth="yes"/>
      <point x="32.01204819277108" y="125.87951807228916"/>
      <point x="99.36144578313254" y="-8.939759036144578"/>
    </contour>
    <contour>
      <point x="272.1686746987952" y="62.60240963855422" type="curve" smooth="yes"/>
      <point x="159.43373493975903" y="62.60240963855422"/>
      <point x="118.01204819277108" y="152.44578313253012"/>
      <point x="150.1325301204819" y="356.289156626506" type="curve" smooth="yes"/>
      <point x="181.8433734939759" y="559.7349397590361"/>
      <point x="250.0963855421687" y="642.8674698795181"/>
      <point x="359.8313253012048" y="642.8674698795181" type="curve" smooth="yes"/>
      <point x="473.03614457831327" y="642.8674698795181"/>
      <point x="514.4578313253012" y="555.9638554216868"/>
      <point x="482.33734939759034" y="351.5903614457831" type="curve" smooth="yes"/>
      <point x="450.6265060240964" y="147.144578313253"/>
      <point x="381.3734939759036" y="62.60240963855422"/>
    </contour>
  </outline>
</glyph>
<glyph name="one" format="2">
  <advance width="600.0"/>
  <unicode hex="0031"/>
  <outline>
    <contour>
      <point x="87.43373493975903" y="0.0" type="line"/>
      <point x="491.73493975903614" y="0.0" type="line"/>
      <point x="502.90361445783134" y="70.95180722891567" type="line"/>
      <point x="347.1927710843374" y="70.95180722891567" type="line"/>
      <point x="448.0240963855422" y="705.0" type="line"/>
      <point x="388.3614457831325" y="705.0" type="line"/>
      <point x="196.90361445783134" y="595.5301204819277" type="line"/>
      <point x="184.26506024096386" y="511.87951807228916" type="line"/>
      <point x="396.95180722891564" y="632.698795180723" type="line"/>
      <point x="353.9759036144578" y="634.1084337349398" type="line"/>
      <point x="264.3132530120482" y="70.95180722891567" type="line"/>
      <point x="98.60240963855422" y="70.95180722891567" type="line"/>
    </contour>
  </outline>
</glyph>
<glyph name="two" format="2">
  <advance width="600.0"/>
  <unicode hex="0032"/>
  <outline>
    <contour>
      <point x="46.48192771084338" y="0.0" type="line"/>
      <point x="506.6385542168674" y="0.0" type="line"/>
      <point x="517.8072289156626" y="70.95180722891567" type="line"/>
      <point x="139.71084337349396" y="70.95180722891567" type="line"/>
      <point x="140.77108433734938" y="47.554216867469876" type="line"/>
      <point x="406.6987951807229" y="284.48192771084337" type="line" smooth="yes"/>
      <point x="495.1686746987952" y="363.07228915662654"/>
      <point x="546.5783132530121" y="428.5421686746988"/>
      <point x="559.5783132530121" y="514.5421686746988" type="curve" smooth="yes"/>
      <point x="579.0481927710844" y="639.8313253012049"/>
      <point x="501.578313253012" y="713.9397590361446"/>
      <point x="356.9518072289157" y="713.9397590361446" type="curve" smooth="yes"/>
      <point x="269.07228915662654" y="713.9397590361446"/>
      <point x="172.66265060240966" y="680.8192771084338"/>
      <point x="110.3132530120482" y="629.2289156626506" type="curve"/>
      <point x="139.710843373494" y="565.0361445783133" type="line"/>
      <point x="206.36144578313252" y="618.277108433735"/>
      <point x="272.5421686746988" y="641.4578313253012"/>
      <point x="349.6144578313253" y="641.4578313253012" type="curve" smooth="yes"/>
      <point x="442.4578313253012" y="641.4578313253012"/>
      <point x="489.28915662650604" y="597.5060240963855"/>
      <point x="476.1686746987952" y="515.2530120481928" type="curve" smooth="yes"/>
      <point x="465.04819277108436" y="448.0"/>
      <point x="427.7469879518072" y="400.6385542168675"/>
      <point x="356.44578313253015" y="335.33734939759034" type="curve" smooth="yes"/>
      <point x="56.18072289156627" y="61.60240963855422" type="line"/>
    </contour>
  </outline>
</glyph>
<glyph name="three" format="2">
  <advance width="600.0"/>
  <unicode hex="0033"/>
  <outline>
    <contour>
      <point x="265.2409638554217" y="-8.939759036144578" type="curve" smooth="yes"/>
      <point x="408.289156626506" y="-8.939759036144578"/>
      <point x="507.51807228915663" y="57.0"/>
      <point x="526.4578313253012" y="179.16867469879517" type="curve" smooth="yes"/>
      <point x="542.4578313253012" y="279.7590361445783"/>
      <point x="494.10843373493975" y="349.7590361445783"/>
      <point x="398.8072289156627" y="366.34939759036143" type="curve"/>
      <point x="397.8072289156627" y="355.4096385542168" type="line"/>
      <point x="485.4578313253012" y="376.4698795180723"/>
      <point x="549.0481927710844" y="443.7710843373494"/>
      <point x="561.0481927710844" y="522.7710843373494" type="curve" smooth="yes"/>
      <point x="580.0481927710844" y="643.710843373494"/>
      <point x="502.69879518072287" y="713.9397590361446"/>
      <point x="359.4819277108434" y="713.9397590361446" type="curve" smooth="yes"/>
      <point x="266.5421686746988" y="713.9397590361446"/>
      <point x="174.19277108433738" y="683.8795180722892"/>
      <point x="110.3132530120482" y="627.6987951807229" type="curve"/>
      <point x="139.1807228915663" y="563.5060240963855" type="line"/>
      <point x="204.89156626506025" y="617.8674698795181"/>
      <point x="272.07228915662654" y="641.4578313253012"/>
      <point x="350.90361445783134" y="641.4578313253012" type="curve" smooth="yes"/>
      <point x="444.7469879518072" y="641.4578313253012"/>
      <point x="491.69879518072287" y="598.566265060241"/>
      <point x="479.578313253012" y="522.2530120481928" type="curve" smooth="yes"/>
      <point x="466.39759036144574" y="438.7590361445783"/>
      <point x="399.2048192771084" y="392.09638554216866"/>
      <point x="306.30120481927713" y="392.09638554216866" type="curve" smooth="yes"/>
      <point x="206.95180722891564" y="392.09638554216866" type="line"/>
      <point x="196.25301204819277" y="323.0240963855422" type="line"/>
      <point x="303.710843373494" y="323.0240963855422" type="line" smooth="yes"/>
      <point x="410.9156626506024" y="323.0240963855422"/>
      <point x="459.9879518072289" y="278.5421686746988"/>
      <point x="446.8072289156627" y="191.51807228915663" type="curve" smooth="yes"/>
      <point x="433.1566265060241" y="101.49397590361446"/>
      <point x="369.5542168674699" y="63.5421686746988"/>
      <point x="268.30120481927713" y="63.5421686746988" type="curve" smooth="yes"/>
      <point x="191.06024096385542" y="63.5421686746988"/>
      <point x="124.4698795180723" y="86.60240963855422"/>
      <point x="66.81927710843374" y="140.43373493975903" type="curve"/>
      <point x="32.01204819277109" y="75.7710843373494" type="line"/>
      <point x="83.07228915662651" y="21.59036144578313"/>
      <point x="170.89156626506022" y="-8.939759036144578"/>
    </contour>
  </outline>
</glyph>
<glyph name="four" format="2">
  <advance width="600.0"/>
  <unicode hex="0034"/>
  <outline>
    <contour>
      <point x="346.2168674698795" y="0.0" type="line"/>
      <point x="426.7469879518072" y="0.0" type="line"/>
      <point x="450.3975903614458" y="152.8433734939759" type="line"/>
      <point x="558.8192771084337" y="152.8433734939759" type="line"/>
      <point x="569.5180722891566" y="219.56626506024097" type="line"/>
      <point x="461.09638554216866" y="219.56626506024097" type="line"/>
      <point x="538.7469879518072" y="705.0" type="line"/>
      <point x="470.3855421686747" y="705.0" type="line"/>
      <point x="43.42168674698795" y="212.6265060240964" type="line"/>
      <point x="33.192771084337345" y="152.8433734939759" type="line"/>
      <point x="370.33734939759034" y="152.8433734939759" type="line"/>
    </contour>
    <contour>
      <point x="380.56626506024094" y="219.56626506024097" type="line"/>
      <point x="112.79518072289157" y="219.56626506024097" type="line"/>
      <point x="114.91566265060241" y="199.10843373493975" type="line"/>
      <point x="468.6385542168675" y="607.0722891566265" type="line"/>
      <point x="442.69879518072287" y="607.0722891566265" type="line"/>
    </contour>
  </outline>
</glyph>
<glyph name="five" format="2">
  <advance width="600.0"/>
  <unicode hex="0035"/>
  <outline>
    <contour>
      <point x="280.7710843373494" y="-8.939759036144578" type="curve" smooth="yes"/>
      <point x="427.10843373493975" y="-8.939759036144578"/>
      <point x="528.5180722891566" y="71.2289156626506"/>
      <point x="549.0481927710844" y="205.34939759036146" type="curve" smooth="yes"/>
      <point x="572.5180722891566" y="351.6385542168675"/>
      <point x="490.6385542168674" y="441.10843373493975"/>
      <point x="357.9879518072289" y="441.10843373493975" type="curve" smooth="yes"/>
      <point x="283.86746987951807" y="441.10843373493975"/>
      <point x="213.85542168674698" y="410.8674698795181"/>
      <point x="168.67469879518072" y="353.855421686747" type="curve"/>
      <point x="192.19277108433735" y="353.855421686747" type="line"/>
      <point x="236.20481927710844" y="634.5180722891566" type="line"/>
      <point x="573.9397590361447" y="634.5180722891566" type="line"/>
      <point x="586.1084337349398" y="705.0" type="line"/>
      <point x="168.25301204819277" y="705.0" type="line"/>
      <point x="101.8433734939759" y="285.5421686746988" type="line"/>
      <point x="161.92771084337352" y="285.5421686746988" type="line"/>
      <point x="210.6987951807229" y="343.26506024096386"/>
      <point x="268.18072289156623" y="370.03614457831327"/>
      <point x="337.3132530120482" y="370.03614457831327" type="curve" smooth="yes"/>
      <point x="434.7469879518072" y="370.03614457831327"/>
      <point x="483.578313253012" y="305.72289156626505"/>
      <point x="468.92771084337346" y="212.289156626506" type="curve" smooth="yes"/>
      <point x="453.7469879518072" y="115.08433734939759"/>
      <point x="383.0843373493976" y="63.5421686746988"/>
      <point x="283.7710843373494" y="63.5421686746988" type="curve" smooth="yes"/>
      <point x="208.46987951807228" y="63.5421686746988"/>
      <point x="142.40963855421688" y="87.60240963855422"/>
      <point x="85.75903614457832" y="140.43373493975903" type="curve"/>
      <point x="53.48192771084338" y="75.7710843373494" type="line"/>
      <point x="103.0722891566265" y="22.06024096385542"/>
      <point x="189.83132530120483" y="-8.939759036144578"/>
    </contour>
  </outline>
</glyph>
<glyph name="six" format="2">
  <advance width="600.0"/>
  <unicode hex="0036"/>
  <outline>
    <contour>
      <point x="289.8192771084337" y="-8.939759036144578" type="curve" smooth="yes"/>
      <point x="432.4698795180723" y="-8.939759036144578"/>
      <point x="524.5180722891566" y="75.24096385542168"/>
      <point x="544.9277108433735" y="203.6987951807229" type="curve" smooth="yes"/>
      <point x="568.3975903614457" y="349.0481927710843"/>
      <point x="485.9277108433735" y="442.4578313253012"/>
      <point x="354.566265060241" y="442.4578313253012" type="curve" smooth="yes"/>
      <point x="237.3734939759036" y="442.4578313253012"/>
      <point x="156.48192771084337" y="371.4457831325301"/>
      <point x="126.48192771084338" y="257.72289156626505" type="curve"/>
      <point x="136.36144578313252" y="257.72289156626505" type="line"/>
      <point x="151.5421686746988" y="351.27710843373495" type="line" smooth="yes"/>
      <point x="184.84337349397592" y="551.2048192771084"/>
      <point x="272.566265060241" y="641.4578313253012"/>
      <point x="407.9397590361446" y="641.4578313253012" type="curve" smooth="yes"/>
      <point x="470.12048192771084" y="641.4578313253012"/>
      <point x="523.1807228915662" y="622.3975903614459"/>
      <point x="567.710843373494" y="574.6265060240963" type="curve"/>
      <point x="604.0481927710844" y="636.1686746987953" type="line"/>
      <point x="562.289156626506" y="687.289156626506"/>
      <point x="489.81927710843377" y="713.9397590361446"/>
      <point x="412.34939759036143" y="713.9397590361446" type="curve" smooth="yes"/>
      <point x="237.65060240963857" y="713.9397590361446"/>
      <point x="111.01204819277109" y="598.4698795180723"/>
      <point x="72.95180722891567" y="355.2289156626506" type="curve" smooth="yes"/>
      <point x="33.42168674698795" y="106.86746987951807"/>
      <point x="123.5421686746988" y="-8.939759036144578"/>
    </contour>
    <contour>
      <point x="290.16867469879514" y="60.72289156626506" type="curve" smooth="yes"/>
      <point x="195.14457831325302" y="60.72289156626506"/>
      <point x="141.5421686746988" y="124.3855421686747"/>
      <point x="156.66265060240963" y="218.6987951807229" type="curve" smooth="yes"/>
      <point x="171.3132530120482" y="309.13253012048193"/>
      <point x="238.6265060240964" y="373.26506024096386"/>
      <point x="335.2409638554217" y="373.26506024096386" type="curve" smooth="yes"/>
      <point x="427.73493975903614" y="373.26506024096386"/>
      <point x="482.33734939759034" y="310.13253012048193"/>
      <point x="466.6867469879518" y="208.63855421686748" type="curve" smooth="yes"/>
      <point x="452.56626506024094" y="119.79518072289157"/>
      <point x="396.433734939759" y="60.72289156626506"/>
    </contour>
  </outline>
</glyph>
<glyph name="seven" format="2">
  <advance width="600.0"/>
  <unicode hex="0037"/>
  <outline>
    <contour>
      <point x="68.03614457831326" y="0.0" type="line"/>
      <point x="163.67469879518072" y="0.0" type="line"/>
      <point x="597.1084337349398" y="643.4578313253012" type="line"/>
      <point x="606.8072289156627" y="705.0" type="line"/>
      <point x="137.66265060240966" y="705.0" type="line"/>
      <point x="125.49397590361447" y="633.5783132530121" type="line"/>
      <point x="520.1686746987951" y="633.5783132530121" type="line"/>
      <point x="521.6385542168674" y="669.566265060241" type="line"/>
    </contour>
  </outline>
</glyph>
<glyph name="eight" format="2">
  <advance width="600.0"/>
  <unicode hex="0038"/>
  <outline>
    <contour>
      <point x="267.87951807228916" y="-8.939759036144578" type="curve" smooth="yes"/>
      <point x="423.7590361445783" y="-8.939759036144578"/>
      <point x="522.9277108433735" y="57.53012048192771"/>
      <point x="542.3975903614457" y="178.87951807228916" type="curve" smooth="yes"/>
      <point x="559.3975903614457" y="280.4096385542169"/>
      <point x="508.4578313253012" y="347.69879518072287"/>
      <point x="412.8072289156626" y="364.7590361445783" type="curve"/>
      <point x="410.86746987951807" y="350.5903614457831" type="line"/>
      <point x="502.5783132530121" y="367.71084337349396"/>
      <point x="564.9879518072289" y="429.1807228915663"/>
      <point x="579.4578313253012" y="516.0602409638554" type="curve" smooth="yes"/>
      <point x="597.4578313253012" y="634.0"/>
      <point x="517.6987951807229" y="713.9397590361446"/>
      <point x="369.4698795180723" y="713.9397590361446" type="curve" smooth="yes"/>
      <point x="216.12048192771084" y="713.9397590361446"/>
      <point x="126.01204819277109" y="646.3493975903615"/>
      <point x="108.5421686746988" y="536.0602409638554" type="curve" smooth="yes"/>
      <point x="95.07228915662651" y="448.65060240963857"/>
      <point x="139.54216867469881" y="373.1807228915663"/>
      <point x="226.19277108433735" y="354.12048192771084" type="curve"/>
      <point x="228.1325301204819" y="368.7590361445783" type="line"/>
      <point x="126.95180722891567" y="356.2289156626506"/>
      <point x="53.54216867469879" y="297.28915662650604"/>
      <point x="37.54216867469879" y="199.16867469879517" type="curve" smooth="yes"/>
      <point x="18.072289156626503" y="72.93975903614458"/>
      <point x="99.24096385542168" y="-8.939759036144578"/>
    </contour>
    <contour>
      <point x="272.28915662650604" y="59.25301204819277" type="curve" smooth="yes"/>
      <point x="152.55421686746988" y="59.25301204819277"/>
      <point x="103.13253012048193" y="111.26506024096386"/>
      <point x="116.78313253012048" y="196.63855421686748" type="curve" smooth="yes"/>
      <point x="130.90361445783134" y="280.48192771084337"/>
      <point x="193.44578313253012" y="322.90361445783134"/>
      <point x="310.65060240963857" y="322.90361445783134" type="curve" smooth="yes"/>
      <point x="428.3253012048193" y="322.90361445783134"/>
      <point x="479.2771084337349" y="279.5421686746988"/>
      <point x="464.62650602409633" y="191.10843373493978" type="curve" smooth="yes"/>
      <point x="450.9759036144578" y="102.67469879518073"/>
      <point x="386.43373493975906" y="59.25301204819277"/>
    </contour>
    <contour>
      <point x="322.34939759036143" y="391.09638554216866" type="curve" smooth="yes"/>
      <point x="221.2048192771084" y="391.09638554216866"/>
      <point x="174.72289156626505" y="447.69879518072287"/>
      <point x="186.84337349397592" y="526.0120481927711" type="curve" smooth="yes"/>
      <point x="198.43373493975903" y="599.2650602409639"/>
      <point x="257.03614457831327" y="645.7469879518072"/>
      <point x="362.2409638554217" y="645.7469879518072" type="curve" smooth="yes"/>
      <point x="464.3855421686747" y="645.7469879518072"/>
      <point x="511.92771084337346" y="598.3253012048193"/>
      <point x="499.27710843373495" y="514.3614457831325" type="curve" smooth="yes"/>
      <point x="486.09638554216866" y="431.4578313253012"/>
      <point x="423.96385542168673" y="391.09638554216866"/>
    </contour>
  </outline>
</glyph>
<glyph name="nine" format="2">
  <advance width="600.0"/>
  <unicode hex="0039"/>
  <outline>
    <contour>
      <point x="220.18072289156626" y="-8.939759036144578" type="curve" smooth="yes"/>
      <point x="394.87951807228916" y="-8.939759036144578"/>
      <point x="521.5180722891566" y="107.0"/>
      <point x="560.0481927710844" y="349.7710843373494" type="curve" smooth="yes"/>
      <point x="599.1084337349398" y="598.132530120482"/>
      <point x="510.51807228915663" y="713.9397590361446"/>
      <point x="344.71084337349396" y="713.9397590361446" type="curve" smooth="yes"/>
      <point x="201.59036144578312" y="713.9397590361446"/>
      <point x="108.01204819277109" y="629.7590361445783"/>
      <point x="87.60240963855422" y="501.7710843373494" type="curve" smooth="yes"/>
      <point x="65.13253012048193" y="356.421686746988"/>
      <point x="147.0722891566265" y="262.5421686746988"/>
      <point x="278.433734939759" y="262.5421686746988" type="curve" smooth="yes"/>
      <point x="395.6265060240964" y="262.5421686746988"/>
      <point x="476.04819277108436" y="333.5542168674699"/>
      <point x="506.5180722891566" y="447.27710843373495" type="curve"/>
      <point x="496.16867469879514" y="447.27710843373495" type="line"/>
      <point x="480.9879518072289" y="353.72289156626505" type="line" smooth="yes"/>
      <point x="448.6265060240964" y="153.79518072289156"/>
      <point x="359.96385542168673" y="63.5421686746988"/>
      <point x="225.06024096385542" y="63.5421686746988" type="curve" smooth="yes"/>
      <point x="162.87951807228916" y="63.5421686746988"/>
      <point x="109.34939759036145" y="83.07228915662651"/>
      <point x="64.81927710843374" y="130.3734939759036" type="curve"/>
      <point x="28.481927710843376" y="69.3012048192771" type="line"/>
      <point x="70.71084337349397" y="17.710843373493976"/>
      <point x="142.71084337349396" y="-8.939759036144578"/>
    </contour>
    <contour>
      <point x="297.28915662650604" y="332.2048192771084" type="curve" smooth="yes"/>
      <point x="204.79518072289156" y="332.2048192771084"/>
      <point x="150.66265060240963" y="395.33734939759034"/>
      <point x="166.3132530120482" y="496.3614457831325" type="curve" smooth="yes"/>
      <point x="179.96385542168676" y="585.2048192771085"/>
      <point x="238.09638554216866" y="644.7469879518072"/>
      <point x="343.89156626506025" y="644.7469879518072" type="curve" smooth="yes"/>
      <point x="438.9156626506024" y="644.7469879518072"/>
      <point x="490.9879518072289" y="580.6144578313254"/>
      <point x="476.3373493975904" y="486.7710843373494" type="curve" smooth="yes"/>
      <point x="461.68674698795184" y="395.86746987951807"/>
      <point x="394.3734939759036" y="332.2048192771084"/>
    </contour>
  </outline>
</glyph>
<glyph name="colon" format="2">
  <advance width="228.3855421686747"/>
  <unicode hex="003A"/>
  <outline>
    <contour>
      <point x="86.3132530120482" y="400.3975903614458" type="line"/>
      <point x="188.67469879518072" y="400.3975903614458" type="line"/>
      <point x="204.8433734939759" y="502.34939759036143" type="line"/>
      <point x="102.48192771084338" y="502.34939759036143" type="line"/>
    </contour>
    <contour>
      <point x="22.481927710843372" y="0.0" type="line"/>
      <point x="124.37349397590361" y="0.0" type="line"/>
      <point x="140.5421686746988" y="102.42168674698794" type="line"/>
      <point x="38.65060240963855" y="102.42168674698794" type="line"/>
    </contour>
  </outline>
</glyph>
<glyph name="semicolon" format="2">
  <advance width="228.3855421686747"/>
  <unicode hex="003B"/>
  <outline>
    <contour>
      <point x="49.63855421686746" y="-114.44578313253012" type="line"/>
      <point x="102.26506024096385" y="-74.10843373493977"/>
      <point x="123.43373493975903" y="-31.120481927710845"/>
      <point x="131.3132530120482" y="23.096385542168676" type="curve" smooth="yes"/>
      <point x="143.6024096385542" y="102.42168674698794" type="line"/>
      <point x="41.71084337349397" y="102.42168674698794" type="line"/>
      <point x="25.542168674698793" y="0.0" type="line"/>
      <point x="91.97590361445783" y="0.0" type="line"/>
      <point x="76.39759036144578" y="16.80722891566265" type="line"/>
      <point x="71.4578313253012" y="-17.180722891566266"/>
      <point x="57.81927710843374" y="-47.40963855421687"/>
      <point x="16.301204819277107" y="-85.04819277108433" type="curve"/>
    </contour>
    <contour>
      <point x="86.3132530120482" y="399.9277108433735" type="line"/>
      <point x="188.67469879518072" y="399.9277108433735" type="line"/>
      <point x="204.8433734939759" y="502.34939759036143" type="line"/>
      <point x="102.48192771084338" y="502.34939759036143" type="line"/>
    </contour>
  </outline>
</glyph>
<glyph name="less" format="2">
  <advance width="600.0"/>
  <unicode hex="003C"/>
  <outline>
    <contour>
      <point x="511.06024096385545" y="35.12048192771084" type="line"/>
      <point x="521.8192771084338" y="99.6144578313253" type="line"/>
      <point x="94.04819277108435" y="302.9879518072289" type="line"/>
      <point x="87.2289156626506" y="262.66265060240966" type="line"/>
      <point x="579.7710843373494" y="467.03614457831327" type="line"/>
      <point x="591.0" y="539.3493975903614" type="line"/>
      <point x="63.28915662650603" y="319.09638554216866" type="line"/>
      <point x="53.06024096385542" y="255.3734939759036" type="line"/>
    </contour>
  </outline>
</glyph>
<glyph name="equal" format="2">
  <advance width="600.0"/>
  <unicode hex="003D"/>
  <outline>
    <contour>
      <point x="69.06024096385542" y="355.72289156626505" type="line"/>
      <point x="562.1807228915663" y="355.72289156626505" type="line"/>
      <point x="571.9397590361446" y="417.7469879518072" type="line"/>
      <point x="78.81927710843374" y="417.7469879518072" type="line"/>
    </contour>
    <contour>
      <point x="38.06024096385542" y="156.72289156626505" type="line"/>
      <point x="531.1807228915663" y="156.72289156626505" type="line"/>
      <point x="540.9397590361446" y="218.27710843373495" type="line"/>
      <point x="47.81927710843374" y="218.27710843373495" type="line"/>
    </contour>
  </outline>
</glyph>
<glyph name="greater" format="2">
  <advance width="600.0"/>
  <unicode hex="003E"/>
  <outline>
    <contour>
      <point x="19.46987951807229" y="35.12048192771084" type="line"/>
      <point x="547.1807228915663" y="255.3734939759036" type="line"/>
      <point x="557.4096385542169" y="319.09638554216866" type="line"/>
      <point x="99.40963855421687" y="539.3493975903614" type="line"/>
      <point x="88.65060240963855" y="474.3855421686747" type="line"/>
      <point x="516.421686746988" y="270.0120481927711" type="line"/>
      <point x="523.2409638554217" y="310.8072289156627" type="line"/>
      <point x="30.698795180722893" y="106.96385542168674" type="line"/>
    </contour>
  </outline>
</glyph>
<glyph name="question" format="2">
  <advance width="447.3313253012048"/>
  <unicode hex="003F"/>
  <outline>
    <contour>
      <point x="161.34939759036143" y="184.0843373493976" type="line"/>
      <point x="212.96385542168673" y="184.0843373493976" type="line"/>
      <point x="219.8433734939759" y="208.90361445783134" type="line" smooth="yes"/>
      <point x="231.96385542168676" y="260.50602409638554"/>
      <point x="261.6144578313253" y="304.27710843373495"/>
      <point x="338.73493975903614" y="372.8192771084337" type="curve" smooth="yes"/>
      <point x="401.43373493975906" y="426.53012048192767"/>
      <point x="464.26506024096386" y="492.71084337349396"/>
      <point x="464.26506024096386" y="580.8915662650602" type="curve" smooth="yes"/>
      <point x="464.26506024096386" y="661.6506024096385"/>
      <point x="398.6265060240964" y="713.9397590361446"/>
      <point x="295.92771084337346" y="713.9397590361446" type="curve" smooth="yes"/>
      <point x="244.16867469879517" y="713.9397590361446"/>
      <point x="185.1807228915663" y="702.5903614457832"/>
      <point x="138.83132530120483" y="678.7710843373494" type="curve"/>
      <point x="127.13253012048192" y="603.6385542168674" type="line"/>
      <point x="173.01204819277106" y="627.5180722891566"/>
      <point x="222.7710843373494" y="642.8674698795181"/>
      <point x="276.30120481927713" y="642.8674698795181" type="curve" smooth="yes"/>
      <point x="341.433734939759" y="642.8674698795181"/>
      <point x="380.32530120481925" y="615.0361445783133"/>
      <point x="380.32530120481925" y="566.9638554216867" type="curve" smooth="yes"/>
      <point x="380.32530120481925" y="505.65060240963857"/>
      <point x="330.7228915662651" y="450.5180722891566"/>
      <point x="286.95180722891564" y="409.2168674698795" type="curve" smooth="yes"/>
      <point x="203.87951807228916" y="331.0240963855422"/>
      <point x="176.289156626506" y="279.7831325301205"/>
      <point x="166.2289156626506" y="213.48192771084337" type="curve" smooth="yes"/>
    </contour>
    <contour>
      <point x="106.42168674698794" y="0.0" type="line"/>
      <point x="208.7831325301205" y="0.0" type="line"/>
      <point x="224.95180722891567" y="102.42168674698794" type="line"/>
      <point x="122.59036144578313" y="102.42168674698794" type="line"/>
    </contour>
  </outline>
</glyph>
<glyph name="at" format="2">
  <advance width="969.2409638554217"/>
  <unicode hex="0040"/>
  <outline>
    <contour>
      <point x="505.1807228915663" y="-163.40963855421685" type="curve" smooth="yes"/>
      <point x="625.3012048192771" y="-163.40963855421685"/>
      <point x="728.4216867469879" y="-125.6987951807229"/>
      <point x="792.9518072289158" y="-58.27710843373494" type="curve"/>
      <point x="759.8433734939758" y="-10.301204819277109" type="line"/>
      <point x="702.433734939759" y="-71.72289156626506"/>
      <point x="612.6024096385541" y="-106.55421686746988"/>
      <point x="505.1807228915663" y="-106.55421686746988" type="curve" smooth="yes"/>
      <point x="284.10843373493975" y="-106.55421686746988"/>
      <point x="135.56626506024097" y="35.9277108433735"/>
      <point x="135.56626506024097" y="272.7710843373494" type="curve" smooth="yes"/>
      <point x="135.56626506024097" y="503.6024096385542"/>
      <point x="294.1686746987952" y="657.0843373493976"/>
      <point x="517.4698795180723" y="657.0843373493976" type="curve" smooth="yes"/>
      <point x="716.1807228915662" y="657.0843373493976"/>
      <point x="859.0240963855422" y="533.3614457831326"/>
      <point x="859.0240963855422" y="344.12048192771084" type="curve" smooth="yes"/>
      <point x="859.0240963855422" y="205.33734939759037"/>
      <point x="794.3614457831326" y="113.3855421686747"/>
      <point x="719.2289156626506" y="113.3855421686747" type="curve" smooth="yes"/>
      <point x="678.3975903614457" y="113.3855421686747"/>
      <point x="658.7469879518072" y="135.03614457831324"/>
      <point x="658.7469879518072" y="180.21686746987953" type="curve" smooth="yes"/>
      <point x="658.7469879518072" y="193.1566265060241"/>
      <point x="660.2168674698795" y="209.03614457831324"/>
      <point x="663.6867469879518" y="227.32530120481928" type="curve" smooth="yes"/>
      <point x="708.3373493975903" y="486.34939759036143" type="line"/>
      <point x="642.3734939759036" y="486.34939759036143" type="line"/>
      <point x="625.9036144578313" y="391.8192771084337" type="line"/>
      <point x="637.6024096385541" y="391.8192771084337" type="line"/>
      <point x="623.722891566265" y="457.69879518072287"/>
      <point x="575.6024096385541" y="495.28915662650604"/>
      <point x="503.0120481927711" y="495.28915662650604" type="curve" smooth="yes"/>
      <point x="379.0120481927711" y="495.28915662650604"/>
      <point x="286.89156626506025" y="387.7590361445783"/>
      <point x="286.89156626506025" y="240.6987951807229" type="curve" smooth="yes"/>
      <point x="286.89156626506025" y="127.34939759036145"/>
      <point x="346.30120481927713" y="59.0"/>
      <point x="449.5903614457832" y="59.0" type="curve" smooth="yes"/>
      <point x="517.3493975903614" y="59.0"/>
      <point x="582.8795180722891" y="101.81927710843374"/>
      <point x="617.4096385542168" y="181.6867469879518" type="curve"/>
      <point x="598.6024096385541" y="187.06024096385542" type="line"/>
      <point x="592.1204819277108" y="108.12048192771084"/>
      <point x="635.9397590361446" y="59.0"/>
      <point x="714.8192771084337" y="59.0" type="curve" smooth="yes"/>
      <point x="829.2289156626506" y="59.0"/>
      <point x="916.3493975903615" y="170.59036144578315"/>
      <point x="916.3493975903615" y="344.12048192771084" type="curve" smooth="yes"/>
      <point x="916.3493975903615" y="565.4096385542168"/>
      <point x="749.1686746987951" y="713.9397590361446"/>
      <point x="518.4698795180723" y="713.9397590361446" type="curve" smooth="yes"/>
      <point x="259.4819277108434" y="713.9397590361446"/>
      <point x="72.42168674698796" y="534.9397590361446"/>
      <point x="72.42168674698796" y="272.7710843373494" type="curve" smooth="yes"/>
      <point x="72.42168674698796" y="6.469879518072289"/>
      <point x="250.30120481927713" y="-163.40963855421685"/>
    </contour>
    <contour>
      <point x="458.5783132530121" y="116.79518072289156" type="curve" smooth="yes"/>
      <point x="393.0361445783132" y="116.79518072289156"/>
      <point x="355.73493975903614" y="160.6265060240964"/>
      <point x="355.73493975903614" y="241.16867469879517" type="curve" smooth="yes"/>
      <point x="355.73493975903614" y="354.89156626506025"/>
      <point x="421.86746987951807" y="437.0240963855422"/>
      <point x="510.5301204819277" y="437.0240963855422" type="curve" smooth="yes"/>
      <point x="580.1325301204819" y="437.0240963855422"/>
      <point x="612.433734939759" y="399.7831325301205"/>
      <point x="612.433734939759" y="324.65060240963857" type="curve" smooth="yes"/>
      <point x="612.433734939759" y="203.98795180722894"/>
      <point x="547.3012048192771" y="116.79518072289156"/>
    </contour>
  </outline>
</glyph>
<glyph name="A" format="2">
  <advance width="734.6265060240964"/>
  <unicode hex="0041"/>
  <anchor x="325.51807228915663" y="0.0" name="bottom"/>
  <anchor x="657.3373493975904" y="0.0" name="ogonek"/>
  <anchor x="437.51807228915663" y="705.0" name="top"/>
  <outline>
    <contour>
      <point x="-21.97590361445783" y="0.0" type="line"/>
      <point x="66.90361445783132" y="0.0" type="line"/>
      <point x="184.96385542168673" y="201.18072289156626" type="line"/>
      <point x="141.8674698795181" y="179.96385542168676" type="line"/>
      <point x="572.289156626506" y="179.96385542168676" type="line"/>
      <point x="538.5421686746988" y="201.18072289156626" type="line"/>
      <point x="594.6024096385541" y="0.0" type="line"/>
      <point x="676.6024096385543" y="0.0" type="line"/>
      <point x="473.0240963855422" y="705.0" type="line"/>
      <point x="400.5421686746988" y="705.0" type="line"/>
    </contour>
    <contour>
      <point x="424.34939759036143" y="610.4698795180723" type="line"/>
      <point x="427.289156626506" y="610.4698795180723" type="line"/>
      <point x="532.0722891566264" y="230.34939759036143" type="line"/>
      <point x="553.3012048192771" y="248.09638554216866" type="line"/>
      <point x="181.78313253012047" y="248.09638554216866" type="line"/>
      <point x="202.78313253012047" y="230.34939759036143" type="line"/>
    </contour>
  </outline>
</glyph>
<glyph name="B" format="2">
  <advance width="680.4578313253012"/>
  <unicode hex="0042"/>
  <anchor x="305.69879518072287" y="0.0" name="bottom"/>
  <anchor x="417.1686746987952" y="705.0" name="top"/>
  <outline>
    <contour>
      <point x="48.07228915662651" y="0.0" type="line"/>
      <point x="344.91566265060237" y="0.0" type="line" smooth="yes"/>
      <point x="496.79518072289153" y="0.0"/>
      <point x="590.6144578313252" y="60.638554216867476"/>
      <point x="610.144578313253" y="183.81927710843374" type="curve" smooth="yes"/>
      <point x="625.6746987951807" y="283.4698795180723"/>
      <point x="575.0240963855422" y="353.0"/>
      <point x="473.43373493975906" y="365.34939759036143" type="curve"/>
      <point x="471.43373493975906" y="350.87951807228916" type="line"/>
      <point x="566.6144578313254" y="370.34939759036143"/>
      <point x="631.2048192771084" y="425.16867469879514"/>
      <point x="646.2650602409639" y="515.5301204819277" type="curve" smooth="yes"/>
      <point x="665.2650602409639" y="637.5903614457832"/>
      <point x="591.855421686747" y="705.0"/>
      <point x="446.8072289156627" y="705.0" type="curve" smooth="yes"/>
      <point x="160.0722891566265" y="705.0" type="line"/>
    </contour>
    <contour>
      <point x="138.8313253012048" y="66.72289156626506" type="line"/>
      <point x="179.25301204819277" y="323.8433734939759" type="line"/>
      <point x="392.8192771084337" y="323.8433734939759" type="line" smooth="yes"/>
      <point x="487.48192771084337" y="323.8433734939759"/>
      <point x="545.6746987951808" y="288.5421686746988"/>
      <point x="529.4939759036145" y="186.45783132530119" type="curve" smooth="yes"/>
      <point x="516.3734939759037" y="102.55421686746988"/>
      <point x="447.5301204819277" y="66.72289156626506"/>
      <point x="346.1566265060241" y="66.72289156626506" type="curve" smooth="yes"/>
    </contour>
    <contour>
      <point x="190.48192771084337" y="390.09638554216866" type="line"/>
      <point x="229.3734939759036" y="638.7469879518072" type="line"/>
      <point x="433.71084337349396" y="638.7469879518072" type="line" smooth="yes"/>
      <point x="530.9036144578314" y="638.7469879518072"/>
      <point x="576.3855421686746" y="595.7349397590361"/>
      <point x="562.2650602409639" y="505.8313253012048" type="curve" smooth="yes"/>
      <point x="551.144578313253" y="433.10843373493975"/>
      <point x="489.8915662650602" y="390.09638554216866"/>
      <point x="380.92771084337346" y="390.09638554216866" type="curve" smooth="yes"/>
    </contour>
  </outline>
</glyph>
<glyph name="C" format="2">
  <advance width="684.2349397590361"/>
  <unicode hex="0043"/>
  <anchor x="350.578313253012" y="0.0" name="bottom"/>
  <anchor x="463.6385542168675" y="705.0" name="top"/>
  <outline>
    <contour>
      <point x="372.3975903614458" y="-8.939759036144578" type="curve" smooth="yes"/>
      <point x="463.86746987951807" y="-8.939759036144578"/>
      <point x="555.4578313253013" y="22.650602409638555"/>
      <point x="618.277108433735" y="81.42168674698794" type="curve"/>
      <point x="588.7590361445783" y="146.90361445783134" type="line"/>
      <point x="525.7590361445783" y="89.5421686746988"/>
      <point x="453.86746987951807" y="66.36144578313252"/>
      <point x="379.4457831325301" y="66.36144578313252" type="curve" smooth="yes"/>
      <point x="205.77108433734938" y="66.36144578313252"/>
      <point x="137.46987951807228" y="180.67469879518072"/>
      <point x="165.65060240963854" y="356.28915662650604" type="curve" smooth="yes"/>
      <point x="194.36144578313252" y="536.2048192771084"/>
      <point x="296.9036144578313" y="638.6385542168674"/>
      <point x="454.51807228915663" y="638.6385542168674" type="curve" smooth="yes"/>
      <point x="535.4096385542168" y="638.6385542168674"/>
      <point x="589.1807228915662" y="618.9879518072289"/>
      <point x="646.7710843373494" y="565.0361445783133" type="curve"/>
      <point x="680.5783132530121" y="632.5180722891566" type="line"/>
      <point x="627.987951807229" y="685.8795180722892"/>
      <point x="554.5783132530121" y="713.9397590361446"/>
      <point x="458.9277108433735" y="713.9397590361446" type="curve" smooth="yes"/>
      <point x="254.46987951807228" y="714.4096385542168"/>
      <point x="114.89156626506025" y="587.4096385542169"/>
      <point x="79.36144578313254" y="365.34939759036143" type="curve" smooth="yes"/>
      <point x="44.36144578313253" y="143.2289156626506"/>
      <point x="141.40963855421685" y="-8.939759036144578"/>
    </contour>
  </outline>
</glyph>
<glyph name="D" format="2">
  <advance width="746.6265060240964"/>
  <unicode hex="0044"/>
  <anchor x="339.51807228915663" y="0.0" name="bottom"/>
  <anchor x="202.86746987951807" y="358.0" name="center"/>
  <anchor x="451.51807228915663" y="705.0" name="top"/>
  <outline>
    <contour>
      <point x="48.07228915662651" y="0.0" type="line"/>
      <point x="284.1566265060241" y="0.0" type="line" smooth="yes"/>
      <point x="516.3855421686746" y="0.0"/>
      <point x="662.2048192771084" y="112.46987951807229"/>
      <point x="698.7349397590361" y="340.65060240963857" type="curve" smooth="yes"/>
      <point x="734.7349397590361" y="569.2409638554217"/>
      <point x="631.4457831325301" y="705.0"/>
      <point x="385.51807228915663" y="705.0" type="curve" smooth="yes"/>
      <point x="160.0722891566265" y="705.0" type="line"/>
    </contour>
    <contour>
      <point x="142.12048192771084" y="70.95180722891567" type="line"/>
      <point x="230.7831325301205" y="634.5180722891566" type="line"/>
      <point x="375.28915662650604" y="634.5180722891566" type="line" smooth="yes"/>
      <point x="566.9638554216868" y="634.5180722891566"/>
      <point x="645.9759036144578" y="541.7951807228916"/>
      <point x="615.7951807228916" y="349.71084337349396" type="curve" smooth="yes"/>
      <point x="586.0240963855422" y="160.6144578313253"/>
      <point x="478.30120481927713" y="70.95180722891567"/>
      <point x="287.0963855421687" y="70.95180722891567" type="curve" smooth="yes"/>
    </contour>
  </outline>
</glyph>
<glyph name="E" format="2">
  <advance width="588.1084337349398"/>
  <unicode hex="0045"/>
  <anchor x="287.69879518072287" y="0.0" name="bottom"/>
  <anchor x="464.6385542168675" y="0.0" name="ogonek"/>
  <anchor x="399.69879518072287" y="705.0" name="top"/>
  <anchor x="95.12048192771084" y="705.0" name="topleft"/>
  <outline>
    <contour>
      <point x="48.07228915662651" y="0.0" type="line"/>
      <point x="498.15662650602405" y="0.0" type="line"/>
      <point x="508.8554216867469" y="68.60240963855422" type="line"/>
      <point x="139.3012048192771" y="68.60240963855422" type="line"/>
      <point x="180.25301204819277" y="323.43373493975906" type="line"/>
      <point x="527.3373493975903" y="323.43373493975906" type="line"/>
      <point x="538.0361445783133" y="392.03614457831327" type="line"/>
      <point x="190.95180722891564" y="392.03614457831327" type="line"/>
      <point x="228.9036144578313" y="636.8674698795181" type="line"/>
      <point x="598.9277108433735" y="636.8674698795181" type="line"/>
      <point x="610.156626506024" y="705.0" type="line"/>
      <point x="160.0722891566265" y="705.0" type="line"/>
    </contour>
  </outline>
</glyph>
<glyph name="F" format="2">
  <advance width="562.4578313253012"/>
  <unicode hex="0046"/>
  <anchor x="263.28915662650604" y="0.0" name="bottom"/>
  <anchor x="376.69879518072287" y="705.0" name="top"/>
  <outline>
    <contour>
      <point x="48.07228915662651" y="0.0" type="line"/>
      <point x="130.95180722891567" y="0.0" type="line"/>
      <point x="182.13253012048193" y="321.5542168674699" type="line"/>
      <point x="517.3975903614457" y="321.5542168674699" type="line"/>
      <point x="528.0963855421686" y="389.6867469879518" type="line"/>
      <point x="192.83132530120483" y="389.6867469879518" type="line"/>
      <point x="231.25301204819277" y="636.8674698795181" type="line"/>
      <point x="588.4578313253012" y="636.8674698795181" type="line"/>
      <point x="600.156626506024" y="705.0" type="line"/>
      <point x="160.0722891566265" y="705.0" type="line"/>
    </contour>
  </outline>
</glyph>
<glyph name="G" format="2">
  <advance width="730.7530120481928"/>
  <unicode hex="0047"/>
  <anchor x="373.04819277108436" y="0.0" name="bottom"/>
  <anchor x="471.9277108433735" y="705.0" name="top"/>
  <outline>
    <contour>
      <point x="380.9277108433735" y="-8.939759036144578" type="curve" smooth="yes"/>
      <point x="460.27710843373495" y="-8.939759036144578"/>
      <point x="558.2168674698795" y="11.590361445783133"/>
      <point x="618.3855421686746" y="44.46987951807229" type="curve"/>
      <point x="670.2650602409637" y="368.7469879518072" type="line"/>
      <point x="418.4096385542169" y="368.7469879518072" type="line"/>
      <point x="407.65060240963857" y="303.90361445783134" type="line"/>
      <point x="587.5542168674698" y="303.90361445783134" type="line"/>
      <point x="548.722891566265" y="56.32530120481928" type="line"/>
      <point x="576.1204819277109" y="102.8433734939759" type="line"/>
      <point x="515.4096385542169" y="77.07228915662651"/>
      <point x="455.4578313253012" y="64.48192771084338"/>
      <point x="386.50602409638554" y="64.48192771084338" type="curve" smooth="yes"/>
      <point x="202.95180722891567" y="64.48192771084338"/>
      <point x="136.46987951807228" y="172.2048192771084"/>
      <point x="165.65060240963854" y="353.4096385542169" type="curve" smooth="yes"/>
      <point x="193.89156626506025" y="535.2650602409639"/>
      <point x="301.08433734939763" y="639.5783132530121"/>
      <point x="467.8072289156626" y="639.5783132530121" type="curve" smooth="yes"/>
      <point x="555.6385542168674" y="639.5783132530121"/>
      <point x="604.3493975903615" y="619.3373493975904"/>
      <point x="658.8192771084338" y="570.3855421686746" type="curve"/>
      <point x="693.6265060240963" y="637.4578313253012" type="line"/>
      <point x="643.0963855421686" y="685.289156626506"/>
      <point x="575.277108433735" y="713.9397590361446"/>
      <point x="471.7469879518072" y="713.9397590361446" type="curve" smooth="yes"/>
      <point x="260.34939759036143" y="713.9397590361446"/>
      <point x="114.89156626506025" y="587.4096385542169"/>
      <point x="79.89156626506025" y="364.4096385542169" type="curve" smooth="yes"/>
      <point x="43.89156626506024" y="136.81927710843374"/>
      <point x="138.59036144578315" y="-8.939759036144578"/>
    </contour>
  </outline>
</glyph>
<glyph name="H" format="2">
  <advance width="766.0481927710844"/>
  <unicode hex="0048"/>
  <anchor x="343.7590361445783" y="0.0" name="bottom"/>
  <anchor x="430.69879518072287" y="553.0481927710844" name="center"/>
  <anchor x="455.7590361445783" y="705.0" name="top"/>
  <anchor x="95.12048192771084" y="705.0" name="topleft"/>
  <outline>
    <contour>
      <point x="48.07228915662651" y="0.0" type="line"/>
      <point x="130.95180722891567" y="0.0" type="line"/>
      <point x="182.13253012048193" y="322.0240963855422" type="line"/>
      <point x="606.7469879518072" y="322.0240963855422" type="line"/>
      <point x="555.566265060241" y="0.0" type="line"/>
      <point x="638.4457831325301" y="0.0" type="line"/>
      <point x="750.4457831325301" y="705.0" type="line"/>
      <point x="667.566265060241" y="705.0" type="line"/>
      <point x="617.9156626506025" y="392.9759036144578" type="line"/>
      <point x="193.3012048192771" y="392.9759036144578" type="line"/>
      <point x="242.95180722891567" y="705.0" type="line"/>
      <point x="160.0722891566265" y="705.0" type="line"/>
    </contour>
  </outline>
</glyph>
<glyph name="I" format="2">
  <advance width="258.5542168674699"/>
  <unicode hex="0049"/>
  <anchor x="89.27710843373495" y="0.0" name="bottom"/>
  <anchor x="117.79518072289156" y="0.0" name="ogonek"/>
  <anchor x="201.27710843373495" y="705.0" name="top"/>
  <anchor x="96.12048192771084" y="705.0" name="topleft"/>
  <outline>
    <contour>
      <point x="48.07228915662651" y="0.0" type="line"/>
      <point x="130.95180722891567" y="0.0" type="line"/>
      <point x="242.95180722891567" y="705.0" type="line"/>
      <point x="160.0722891566265" y="705.0" type="line"/>
    </contour>
  </outline>
</glyph>
<glyph name="J" format="2">
  <advance width="328.8975903614458"/>
  <unicode hex="004A"/>
  <anchor x="159.79518072289156" y="0.0" name="bottom"/>
  <anchor x="271.7951807228916" y="705.0" name="top"/>
  <outline>
    <contour>
      <point x="9.92771084337349" y="-186.46987951807228" type="curve" smooth="yes"/>
      <point x="121.42168674698796" y="-186.46987951807228"/>
      <point x="181.06024096385542" y="-126.06024096385542"/>
      <point x="200.34939759036143" y="-4.855421686746988" type="curve" smooth="yes"/>
      <point x="313.06024096385545" y="705.0" type="line"/>
      <point x="230.18072289156626" y="705.0" type="line"/>
      <point x="118.40963855421687" y="0.9036144578313277" type="line" smooth="yes"/>
      <point x="105.87951807228916" y="-81.80722891566265"/>
      <point x="68.57831325301206" y="-117.92771084337349"/>
      <point x="7.57831325301205" y="-117.92771084337349" type="curve" smooth="yes"/>
      <point x="-10.481927710843369" y="-117.92771084337349"/>
      <point x="-32.36144578313253" y="-115.39759036144578"/>
      <point x="-56.83132530120482" y="-106.39759036144578" type="curve"/>
      <point x="-67.53012048192771" y="-175.0" type="line"/>
      <point x="-40.24096385542168" y="-184.46987951807228"/>
      <point x="-12.012048192771083" y="-186.46987951807228"/>
    </contour>
  </outline>
</glyph>
<glyph name="K" format="2">
  <advance width="633.4277108433735"/>
  <unicode hex="004B"/>
  <anchor x="283.09638554216866" y="0.0" name="bottom"/>
  <anchor x="394.56626506024094" y="705.0" name="top"/>
  <anchor x="95.12048192771084" y="705.0" name="topleft"/>
  <outline>
    <contour>
      <point x="48.07228915662651" y="0.0" type="line"/>
      <point x="130.95180722891567" y="0.0" type="line"/>
      <point x="184.0120481927711" y="332.3614457831325" type="line"/>
      <point x="186.0120481927711" y="332.3614457831325" type="line"/>
      <point x="499.4096385542169" y="0.0" type="line"/>
      <point x="604.5783132530121" y="0.0" type="line"/>
      <point x="245.19277108433738" y="382.86746987951807" type="line"/>
      <point x="247.0722891566265" y="340.65060240963857" type="line"/>
      <point x="688.8674698795181" y="705.0" type="line"/>
      <point x="578.7590361445783" y="705.0" type="line"/>
      <point x="193.89156626506025" y="384.51807228915663" type="line"/>
      <point x="191.89156626506025" y="384.51807228915663" type="line"/>
      <point x="242.95180722891567" y="705.0" type="line"/>
      <point x="160.0722891566265" y="705.0" type="line"/>
    </contour>
  </outline>
</glyph>
<glyph name="L" format="2">
  <advance width="545.156626506024"/>
  <unicode hex="004C"/>
  <anchor x="267.69879518072287" y="0.0" name="bottom"/>
  <anchor x="196.74698795180723" y="387.0" name="center"/>
  <anchor x="427.0843373493976" y="389.7590361445783" name="dot"/>
  <anchor x="201.27710843373495" y="705.0" name="top"/>
  <anchor x="354.3132530120482" y="705.0" name="topright"/>
  <outline>
    <contour>
      <point x="48.07228915662651" y="0.0" type="line"/>
      <point x="487.3373493975904" y="0.0" type="line"/>
      <point x="498.5060240963856" y="71.89156626506025" type="line"/>
      <point x="142.12048192771084" y="71.89156626506025" type="line"/>
      <point x="242.95180722891567" y="705.0" type="line"/>
      <point x="160.0722891566265" y="705.0" type="line"/>
    </contour>
  </outline>
</glyph>
<glyph name="M" format="2">
  <advance width="858.3373493975904"/>
  <unicode hex="004D"/>
  <anchor x="389.1686746987952" y="0.0" name="bottom"/>
  <anchor x="501.1686746987952" y="705.0" name="top"/>
  <outline>
    <contour>
      <point x="48.5421686746988" y="0.0" type="line"/>
      <point x="124.19277108433735" y="0.0" type="line"/>
      <point x="218.85542168674698" y="598.277108433735" type="line"/>
      <point x="189.80722891566265" y="598.277108433735" type="line"/>
      <point x="364.3614457831325" y="0.0" type="line"/>
      <point x="416.56626506024094" y="0.0" type="line"/>
      <point x="780.5060240963855" y="597.7469879518072" type="line"/>
      <point x="748.8072289156626" y="597.7469879518072" type="line"/>
      <point x="654.144578313253" y="0.0" type="line"/>
      <point x="729.7951807228916" y="0.0" type="line"/>
      <point x="841.7951807228916" y="705.0" type="line"/>
      <point x="770.0843373493976" y="705.0" type="line"/>
      <point x="385.2168674698795" y="66.33734939759037" type="line"/>
      <point x="414.6265060240964" y="66.33734939759037" type="line"/>
      <point x="233.25301204819277" y="705.0" type="line"/>
      <point x="160.54216867469881" y="705.0" type="line"/>
    </contour>
  </outline>
</glyph>
<glyph name="O" format="2">
  <advance width="771.9216867469879"/>
  <unicode hex="004F"/>
  <anchor x="344.578313253012" y="-8.939759036144578" name="Qtail"/>
  <anchor x="345.578313253012" y="0.0" name="bottom"/>
  <anchor x="404.9277108433735" y="353.0" name="center"/>
  <anchor x="407.27710843373495" y="0.0" name="ogonek"/>
  <anchor x="457.578313253012" y="705.0" name="top"/>
  <anchor x="97.0" y="705.0" name="topleft"/>
  <anchor x="527.1084337349398" y="705.0" name="topright"/>
  <outline>
    <contour>
      <point x="353.33734939759034" y="-8.939759036144578" type="curve" smooth="yes"/>
      <point x="551.566265060241" y="-8.939759036144578"/>
      <point x="689.2650602409639" y="118.0602409638554"/>
      <point x="723.7951807228916" y="340.12048192771084" type="curve" smooth="yes"/>
      <point x="758.7951807228916" y="561.1807228915663"/>
      <point x="660.0963855421687" y="713.9397590361446"/>
      <point x="449.8192771084337" y="713.9397590361446" type="curve" smooth="yes"/>
      <point x="252.12048192771084" y="713.9397590361446"/>
      <point x="114.89156626506025" y="587.4096385542169"/>
      <point x="79.89156626506025" y="365.34939759036143" type="curve" smooth="yes"/>
      <point x="45.36144578313253" y="143.2289156626506"/>
      <point x="144.06024096385542" y="-8.939759036144578"/>
    </contour>
    <contour>
      <point x="359.6265060240964" y="64.48192771084338" type="curve" smooth="yes"/>
      <point x="208.5421686746988" y="64.48192771084338"/>
      <point x="136.46987951807228" y="174.7951807228916"/>
      <point x="165.65060240963854" y="355.34939759036143" type="curve" smooth="yes"/>
      <point x="194.89156626506025" y="535.2650602409639"/>
      <point x="289.855421686747" y="640.5180722891566"/>
      <point x="443.5903614457831" y="640.5180722891566" type="curve" smooth="yes"/>
      <point x="595.144578313253" y="640.5180722891566"/>
      <point x="666.6867469879518" y="529.6746987951807"/>
      <point x="638.5060240963855" y="350.12048192771084" type="curve" smooth="yes"/>
      <point x="610.2650602409639" y="170.67469879518072"/>
      <point x="513.3614457831325" y="64.48192771084338"/>
    </contour>
  </outline>
</glyph>
<glyph name="P" format="2">
  <advance width="651.156626506024"/>
  <unicode hex="0050"/>
  <anchor x="281.51807228915663" y="0.0" name="bottom"/>
  <anchor x="393.04819277108436" y="705.0" name="top"/>
  <outline>
    <contour>
      <point x="48.07228915662651" y="0.0" type="line"/>
      <point x="130.95180722891567" y="0.0" type="line"/>
      <point x="178.60240963855424" y="301.49397590361446" type="line"/>
      <point x="389.86746987951807" y="301.49397590361446" type="line" smooth="yes"/>
      <point x="532.2048192771084" y="301.49397590361446"/>
      <point x="624.2650602409639" y="370.0722891566265"/>
      <point x="643.2650602409639" y="491.6024096385542" type="curve" smooth="yes"/>
      <point x="664.7349397590361" y="624.3614457831326"/>
      <point x="591.8554216867469" y="705.0"/>
      <point x="438.2771084337349" y="705.0" type="curve" smooth="yes"/>
      <point x="160.0722891566265" y="705.0" type="line"/>
    </contour>
    <contour>
      <point x="189.3012048192771" y="370.09638554216866" type="line"/>
      <point x="231.25301204819277" y="636.8674698795181" type="line"/>
      <point x="426.34939759036143" y="636.8674698795181" type="line" smooth="yes"/>
      <point x="529.7831325301205" y="636.8674698795181"/>
      <point x="576.3253012048193" y="588.3855421686746"/>
      <point x="561.6746987951808" y="497.95180722891564" type="curve" smooth="yes"/>
      <point x="548.0240963855422" y="412.51807228915663"/>
      <point x="488.3012048192771" y="370.09638554216866"/>
      <point x="384.8072289156626" y="370.09638554216866" type="curve" smooth="yes"/>
    </contour>
  </outline>
</glyph>
<glyph name="R" format="2">
  <advance width="692.4578313253012"/>
  <unicode hex="0052"/>
  <anchor x="305.9879518072289" y="0.0" name="bottom"/>
  <anchor x="417.51807228915663" y="705.0" name="top"/>
  <outline>
    <contour>
      <point x="48.07228915662651" y="0.0" type="line"/>
      <point x="130.95180722891567" y="0.0" type="line"/>
      <point x="179.13253012048193" y="305.0843373493976" type="line"/>
      <point x="327.1325301204819" y="305.0843373493976" type="line" smooth="yes"/>
      <point x="394.9759036144578" y="305.0843373493976"/>
      <point x="435.6867469879518" y="292.49397590361446"/>
      <point x="452.86746987951807" y="232.710843373494" type="curve" smooth="yes"/>
      <point x="523.0361445783133" y="0.0" type="line"/>
      <point x="610.3253012048193" y="0.0" type="line"/>
      <point x="537.4457831325301" y="237.43373493975903" type="line" smooth="yes"/>
      <point x="518.0361445783133" y="298.5542168674699"/>
      <point x="480.56626506024094" y="324.3132530120482"/>
      <point x="426.1566265060241" y="324.3132530120482" type="curve" smooth="yes"/>
      <point x="407.34939759036143" y="324.3132530120482" type="line"/>
      <point x="400.7590361445783" y="311.144578313253" type="line"/>
      <point x="529.156626506024" y="311.144578313253"/>
      <point x="629.5060240963855" y="378.78313253012044"/>
      <point x="647.9759036144578" y="496.0120481927711" type="curve" smooth="yes"/>
      <point x="668.9156626506024" y="628.6506024096385"/>
      <point x="595.566265060241" y="705.0"/>
      <point x="439.6385542168675" y="705.0" type="curve" smooth="yes"/>
      <point x="160.0722891566265" y="705.0" type="line"/>
    </contour>
    <contour>
      <point x="189.36144578313252" y="370.3975903614458" type="line"/>
      <point x="231.25301204819277" y="636.8674698795181" type="line"/>
      <point x="424.71084337349396" y="636.8674698795181" type="line" smooth="yes"/>
      <point x="530.6144578313252" y="636.8674698795181"/>
      <point x="580.0361445783133" y="590.3855421686746"/>
      <point x="565.9156626506025" y="499.6024096385542" type="curve" smooth="yes"/>
      <point x="552.7951807228916" y="417.34939759036143"/>
      <point x="492.1927710843373" y="370.3975903614458"/>
      <point x="391.4096385542168" y="370.3975903614458" type="curve" smooth="yes"/>
    </contour>
  </outline>
</glyph>
<glyph name="S" format="2">
  <advance width="623.0301204819277"/>
  <unicode hex="0053"/>
  <anchor x="284.1686746987952" y="0.0" name="bottom"/>
  <anchor x="393.4578313253012" y="705.0" name="top"/>
  <outline>
    <contour>
      <point x="285.1686746987952" y="-8.939759036144578" type="curve" smooth="yes"/>
      <point x="441.855421686747" y="-8.939759036144578"/>
      <point x="547.0843373493976" y="70.81927710843374"/>
      <point x="564.4939759036145" y="179.33734939759037" type="curve" smooth="yes"/>
      <point x="581.4939759036145" y="289.2168674698795"/>
      <point x="526.6746987951807" y="353.44578313253015"/>
      <point x="395.49397590361446" y="372.3855421686747" type="curve" smooth="yes"/>
      <point x="300.50602409638554" y="386.26506024096386" type="line" smooth="yes"/>
      <point x="205.0120481927711" y="399.855421686747"/>
      <point x="173.59036144578312" y="442.8072289156626"/>
      <point x="185.24096385542168" y="512.3012048192771" type="curve" smooth="yes"/>
      <point x="197.89156626506025" y="590.7349397590361"/>
      <point x="271.67469879518075" y="641.4578313253012"/>
      <point x="382.51807228915663" y="641.4578313253012" type="curve" smooth="yes"/>
      <point x="468.69879518072287" y="641.4578313253012"/>
      <point x="531.1686746987951" y="617.3975903614457"/>
      <point x="584.3493975903615" y="574.0361445783133" type="curve"/>
      <point x="617.156626506024" y="639.6385542168674" type="line"/>
      <point x="568.156626506024" y="683.2289156626506"/>
      <point x="487.3975903614458" y="713.9397590361446"/>
      <point x="390.7469879518072" y="713.9397590361446" type="curve" smooth="yes"/>
      <point x="229.81927710843374" y="713.9397590361446"/>
      <point x="121.18072289156626" y="632.4698795180724"/>
      <point x="102.7710843373494" y="514.4819277108434" type="curve" smooth="yes"/>
      <point x="85.3012048192771" y="405.66265060240966"/>
      <point x="142.0" y="333.2530120481928"/>
      <point x="272.7710843373494" y="313.7831325301205" type="curve" smooth="yes"/>
      <point x="367.2289156626506" y="299.43373493975906" type="line" smooth="yes"/>
      <point x="461.7831325301205" y="286.31325301204816"/>
      <point x="492.20481927710847" y="247.36144578313252"/>
      <point x="481.5542168674699" y="181.9879518072289" type="curve" smooth="yes"/>
      <point x="470.90361445783134" y="111.6144578313253"/>
      <point x="406.5903614457832" y="63.5421686746988"/>
      <point x="289.86746987951807" y="63.5421686746988" type="curve" smooth="yes"/>
      <point x="190.50602409638554" y="63.5421686746988"/>
      <point x="123.92771084337349" y="89.01204819277109"/>
      <point x="59.807228915662655" y="130.25301204819277" type="curve"/>
      <point x="25.939759036144576" y="63.71084337349397" type="line"/>
      <point x="84.34939759036145" y="21.65060240963855"/>
      <point x="172.9879518072289" y="-8.939759036144578"/>
    </contour>
  </outline>
</glyph>
<glyph name="T" format="2">
  <advance width="603.6265060240964"/>
  <unicode hex="0054"/>
  <anchor x="262.04819277108436" y="0.0" name="bottom"/>
  <anchor x="319.04819277108436" y="358.0" name="center"/>
  <anchor x="374.04819277108436" y="705.0" name="top"/>
  <outline>
    <contour>
      <point x="218.8433734939759" y="0.0" type="line"/>
      <point x="301.72289156626505" y="0.0" type="line"/>
      <point x="402.0240963855422" y="634.5180722891566" type="line"/>
      <point x="650.3975903614459" y="634.5180722891566" type="line"/>
      <point x="662.0963855421687" y="705.0" type="line"/>
      <point x="82.46987951807229" y="705.0" type="line"/>
      <point x="70.7710843373494" y="634.5180722891566" type="line"/>
      <point x="319.144578313253" y="634.5180722891566" type="line"/>
    </contour>
  </outline>
</glyph>
<glyph name="U" format="2">
  <advance width="730.4578313253012"/>
  <unicode hex="0055"/>
  <anchor x="326.1686746987952" y="0.0" name="bottom"/>
  <anchor x="404.03614457831327" y="0.0" name="ogonek"/>
  <anchor x="438.1686746987952" y="705.0" name="top"/>
  <anchor x="663.3012048192771" y="705.0" name="topright"/>
  <outline>
    <contour>
      <point x="333.6385542168675" y="-8.939759036144578" type="curve" smooth="yes"/>
      <point x="513.7349397590361" y="-8.939759036144578"/>
      <point x="620.3253012048193" y="78.6987951807229"/>
      <point x="651.7951807228916" y="276.5783132530121" type="curve" smooth="yes"/>
      <point x="719.855421686747" y="705.0" type="line"/>
      <point x="637.9156626506024" y="705.0" type="line"/>
      <point x="570.8554216867469" y="282.578313253012" type="line" smooth="yes"/>
      <point x="546.144578313253" y="126.7831325301205"/>
      <point x="468.8313253012048" y="64.48192771084338"/>
      <point x="341.3373493975904" y="64.48192771084338" type="curve" smooth="yes"/>
      <point x="195.60240963855424" y="64.48192771084338"/>
      <point x="148.18072289156626" y="136.96385542168676"/>
      <point x="171.36144578313252" y="281.6385542168675" type="curve" smooth="yes"/>
      <point x="238.42168674698794" y="705.0" type="line"/>
      <point x="155.54216867469881" y="705.0" type="line"/>
      <point x="87.95180722891567" y="280.8072289156627" type="line" smooth="yes"/>
      <point x="57.5421686746988" y="88.46987951807229"/>
      <point x="149.93975903614458" y="-8.939759036144578"/>
    </contour>
  </outline>
</glyph>
<glyph name="V" format="2">
  <advance width="697.6746987951807"/>
  <unicode hex="0056"/>
  <anchor x="310.7469879518072" y="0.0" name="bottom"/>
  <anchor x="422.7469879518072" y="705.0" name="top"/>
  <outline>
    <contour>
      <point x="270.2409638554217" y="0.0" type="line"/>
      <point x="345.8433734939759" y="0.0" type="line"/>
      <point x="767.0722891566265" y="705.0" type="line"/>
      <point x="676.843373493976" y="705.0" type="line"/>
      <point x="302.21686746987956" y="65.81927710843374" type="line"/>
      <point x="332.0843373493976" y="65.81927710843374" type="line"/>
      <point x="159.83132530120483" y="705.0" type="line"/>
      <point x="75.07228915662651" y="705.0" type="line"/>
    </contour>
  </outline>
</glyph>
<glyph name="W" format="2">
  <advance width="1111.7530120481927"/>
  <unicode hex="0057"/>
  <anchor x="516.2289156626506" y="0.0" name="bottom"/>
  <anchor x="628.2289156626506" y="705.0" name="top"/>
  <outline>
    <contour>
      <point x="239.8313253012048" y="0.0" type="line"/>
      <point x="312.3734939759036" y="0.0" type="line"/>
      <point x="625.3614457831325" y="610.9156626506024" type="line"/>
      <point x="604.8915662650603" y="610.9156626506024" type="line"/>
      <point x="716.0240963855422" y="0.0" type="line"/>
      <point x="789.6265060240964" y="0.0" type="line"/>
      <point x="1149.9759036144578" y="705.0" type="line"/>
      <point x="1064.0361445783133" y="705.0" type="line"/>
      <point x="741.8795180722892" y="69.74698795180723" type="line"/>
      <point x="773.5783132530121" y="69.74698795180723" type="line"/>
      <point x="660.855421686747" y="705.0" type="line"/>
      <point x="595.0722891566265" y="705.0" type="line"/>
      <point x="267.9759036144579" y="69.74698795180723" type="line"/>
      <point x="302.67469879518075" y="69.74698795180723" type="line"/>
      <point x="188.89156626506025" y="705.0" type="line"/>
      <point x="106.01204819277109" y="705.0" type="line"/>
    </contour>
  </outline>
</glyph>
<glyph name="X" format="2">
  <advance width="652.210843373494"/>
  <unicode hex="0058"/>
  <anchor x="286.4578313253012" y="0.0" name="bottom"/>
  <anchor x="398.4578313253012" y="705.0" name="top"/>
  <outline>
    <contour>
      <point x="-33.506024096385545" y="0.0" type="line"/>
      <point x="69.42168674698796" y="0.0" type="line"/>
      <point x="355.3373493975904" y="319.4457831325301" type="line"/>
      <point x="322.5301204819277" y="319.4457831325301" type="line"/>
      <point x="506.49397590361446" y="0.0" type="line"/>
      <point x="601.0120481927711" y="0.0" type="line"/>
      <point x="378.96385542168673" y="375.9277108433735" type="line"/>
      <point x="379.6144578313253" y="344.7831325301205" type="line"/>
      <point x="705.3012048192771" y="705.0" type="line"/>
      <point x="601.9036144578313" y="705.0" type="line"/>
      <point x="335.8192771084337" y="404.3855421686747" type="line"/>
      <point x="361.4457831325301" y="404.3855421686747" type="line"/>
      <point x="189.13253012048193" y="705.0" type="line"/>
      <point x="95.08433734939759" y="705.0" type="line"/>
      <point x="307.0722891566265" y="344.7831325301205" type="line"/>
      <point x="307.4216867469879" y="375.9277108433735" type="line"/>
    </contour>
  </outline>
</glyph>
<glyph name="Y" format="2">
  <advance width="606.7349397590361"/>
  <unicode hex="0059"/>
  <anchor x="264.33734939759034" y="0.0" name="bottom"/>
  <anchor x="375.86746987951807" y="705.0" name="top"/>
  <anchor x="90.06024096385542" y="705.0" name="topleft"/>
  <outline>
    <contour>
      <point x="221.66265060240966" y="0.0" type="line"/>
      <point x="304.5421686746988" y="0.0" type="line"/>
      <point x="357.0120481927711" y="329.28915662650604" type="line"/>
      <point x="330.20481927710847" y="270.6144578313253" type="line"/>
      <point x="690.4216867469879" y="705.0" type="line"/>
      <point x="593.9036144578314" y="705.0" type="line"/>
      <point x="306.8072289156627" y="354.2530120481928" type="line"/>
      <point x="327.9156626506024" y="354.2530120481928" type="line"/>
      <point x="152.36144578313252" y="705.0" type="line"/>
      <point x="60.78313253012048" y="705.0" type="line"/>
      <point x="283.3614457831326" y="272.96385542168673" type="line"/>
      <point x="274.13253012048193" y="329.28915662650604" type="line"/>
    </contour>
  </outline>
</glyph>
<glyph name="Z" format="2">
  <advance width="595.8072289156627"/>
  <unicode hex="005A"/>
  <anchor x="261.9879518072289" y="0.0" name="bottom"/>
  <anchor x="373.9879518072289" y="705.0" name="top"/>
  <outline>
    <contour>
      <point x="3.409638554216869" y="0.0" type="line"/>
      <point x="520.0963855421687" y="0.0" type="line"/>
      <point x="531.2650602409639" y="70.95180722891567" type="line"/>
      <point x="97.51807228915663" y="70.95180722891567" type="line"/>
      <point x="93.10843373493977" y="39.963855421686745" type="line"/>
      <point x="610.9879518072289" y="644.3975903614457" type="line"/>
      <point x="620.6867469879518" y="705.0" type="line"/>
      <point x="115.40963855421687" y="705.0" type="line"/>
      <point x="103.71084337349397" y="634.0481927710844" type="line"/>
      <point x="525.0481927710844" y="634.0481927710844" type="line"/>
      <point x="529.9879518072289" y="665.5060240963855" type="line"/>
      <point x="13.10843373493976" y="61.07228915662651" type="line"/>
    </contour>
  </outline>
</glyph>
<glyph name="bracketleft" format="2">
  <advance width="316.89156626506025"/>
  <unicode hex="005B"/>
  <outline>
    <contour>
      <point x="37.24096385542168" y="-180.0" type="line"/>
      <point x="239.66265060240966" y="-180.0" type="line"/>
      <point x="249.89156626506025" y="-116.21686746987952" type="line"/>
      <point x="127.53012048192771" y="-116.21686746987952" type="line"/>
      <point x="247.0722891566265" y="641.2168674698795" type="line"/>
      <point x="369.43373493975906" y="641.2168674698795" type="line"/>
      <point x="379.66265060240966" y="705.0" type="line"/>
      <point x="177.24096385542168" y="705.0" type="line"/>
    </contour>
  </outline>
</glyph>
<glyph name="backslash" format="2">
  <advance width="285.54819277108436"/>
  <unicode hex="005C"/>
  <outline>
    <contour>
      <point x="193.40963855421688" y="-55.28915662650603" type="line"/>
      <point x="262.07228915662654" y="-55.28915662650603" type="line"/>
      <point x="124.25301204819277" y="747.7590361445783" type="line"/>
      <point x="55.59036144578313" y="747.7590361445783" type="line"/>
    </contour>
  </outline>
</glyph>
<glyph name="bracketright" format="2">
  <advance width="316.89156626506025"/>
  <unicode hex="005D"/>
  <outline>
    <contour>
      <point x="-59.7710843373494" y="-180.0" type="line"/>
      <point x="141.65060240963857" y="-180.0" type="line"/>
      <point x="281.65060240963857" y="705.0" type="line"/>
      <point x="80.2289156626506" y="705.0" type="line"/>
      <point x="70.0" y="641.2168674698795" type="line"/>
      <point x="191.36144578313252" y="641.2168674698795" type="line"/>
      <point x="71.81927710843374" y="-116.21686746987952" type="line"/>
      <point x="-50.5421686746988" y="-116.21686746987952" type="line"/>
    </contour>
  </outline>
</glyph>
<glyph name="asciicircum" format="2">
  <advance width="600.0"/>
  <unicode hex="005E"/>
  <outline>
    <contour>
      <point x="27.59036144578313" y="140.0" type="line"/>
      <point x="98.43373493975903" y="140.0" type="line"/>
      <point x="377.3975903614458" y="594.7710843373494" type="line"/>
      <point x="337.0722891566265" y="594.7710843373494" type="line"/>
      <point x="472.50602409638554" y="140.0" type="line"/>
      <point x="536.4096385542168" y="140.0" type="line"/>
      <point x="390.6265060240964" y="628.0" type="line"/>
      <point x="327.3734939759036" y="628.0" type="line"/>
    </contour>
  </outline>
</glyph>
<glyph name="underscore" format="2">
  <advance width="505.0"/>
  <unicode hex="005F"/>
  <outline>
    <contour>
      <point x="-40.53012048192771" y="-52.734939759036145" type="line"/>
      <point x="448.95180722891564" y="-52.734939759036145" type="line"/>
      <point x="457.2409638554217" y="0.0" type="line"/>
      <point x="-32.24096385542168" y="0.0" type="line"/>
    </contour>
  </outline>
</glyph>
<glyph name="a" format="2">
  <advance width="600.3855421686746"/>
  <unicode hex="0061"/>
  <anchor x="252.9879518072289" y="0.0" name="bottom"/>
  <anchor x="284.86746987951807" y="253.46987951807228" name="center"/>
  <anchor x="471.9156626506024" y="0.0" name="ogonek"/>
  <anchor x="331.3975903614458" y="484.0" name="top"/>
  <outline>
    <contour>
      <point x="237.18072289156626" y="-8.939759036144578" type="curve" smooth="yes"/>
      <point x="331.48192771084337" y="-8.939759036144578"/>
      <point x="400.1927710843373" y="39.7710843373494"/>
      <point x="435.3132530120482" y="119.72289156626506" type="curve"/>
      <point x="420.3734939759036" y="119.72289156626506" type="line"/>
      <point x="401.2530120481928" y="0.0" type="line"/>
      <point x="481.7831325301205" y="0.0" type="line"/>
      <point x="542.843373493976" y="385.89156626506025" type="line" smooth="yes"/>
      <point x="548.7831325301205" y="423.1807228915663"/>
      <point x="558.7831325301205" y="463.0"/>
      <point x="569.2530120481928" y="502.34939759036143" type="curve"/>
      <point x="491.13253012048193" y="502.34939759036143" type="line"/>
      <point x="461.54216867469876" y="383.09638554216866" type="line"/>
      <point x="472.6024096385542" y="384.50602409638554" type="line"/>
      <point x="459.54216867469876" y="463.0481927710843"/>
      <point x="395.5421686746988" y="511.28915662650604"/>
      <point x="306.7710843373494" y="511.28915662650604" type="curve" smooth="yes"/>
      <point x="175.7710843373494" y="511.28915662650604"/>
      <point x="75.83132530120483" y="425.16867469879514"/>
      <point x="49.36144578313253" y="263.75903614457826" type="curve" smooth="yes"/>
      <point x="21.83132530120482" y="92.6987951807229"/>
      <point x="98.18072289156626" y="-8.939759036144578"/>
    </contour>
    <contour>
      <point x="258.56626506024094" y="56.8433734939759" type="curve" smooth="yes"/>
      <point x="160.13253012048193" y="56.8433734939759"/>
      <point x="109.2409638554217" y="124.03614457831326"/>
      <point x="130.36144578313252" y="253.7590361445783" type="curve" smooth="yes"/>
      <point x="150.0120481927711" y="378.7831325301205"/>
      <point x="220.20481927710844" y="445.50602409638554"/>
      <point x="313.578313253012" y="445.50602409638554" type="curve" smooth="yes"/>
      <point x="411.0120481927711" y="445.50602409638554"/>
      <point x="463.43373493975906" y="378.7831325301205"/>
      <point x="443.3132530120482" y="249.06024096385542" type="curve" smooth="yes"/>
      <point x="422.66265060240966" y="123.56626506024097"/>
      <point x="350.93975903614455" y="56.8433734939759"/>
    </contour>
  </outline>
</glyph>
<glyph name="c" format="2">
  <advance width="494.7530120481928"/>
  <unicode hex="0063"/>
  <anchor x="246.63855421686748" y="0.0" name="bottom"/>
  <anchor x="323.6385542168675" y="484.0" name="top"/>
  <outline>
    <contour>
      <point x="258.21686746987956" y="-8.939759036144578" type="curve" smooth="yes"/>
      <point x="322.9156626506024" y="-8.939759036144578"/>
      <point x="397.4457831325301" y="15.590361445783133"/>
      <point x="439.5060240963855" y="55.83132530120482" type="curve"/>
      <point x="411.4578313253012" y="113.73493975903615" type="line"/>
      <point x="367.7469879518072" y="74.37349397590361"/>
      <point x="314.50602409638554" y="57.78313253012048"/>
      <point x="268.14457831325296" y="57.78313253012048" type="curve" smooth="yes"/>
      <point x="165.0722891566265" y="57.78313253012048"/>
      <point x="111.12048192771086" y="130.14457831325302"/>
      <point x="131.3012048192771" y="255.8192771084337" type="curve" smooth="yes"/>
      <point x="150.95180722891567" y="378.78313253012044"/>
      <point x="223.96385542168676" y="445.03614457831327"/>
      <point x="324.33734939759034" y="445.03614457831327" type="curve" smooth="yes"/>
      <point x="366.4578313253012" y="445.03614457831327"/>
      <point x="413.51807228915663" y="429.9759036144578"/>
      <point x="449.2289156626506" y="395.67469879518075" type="curve"/>
      <point x="480.6867469879518" y="451.51807228915663" type="line"/>
      <point x="445.2168674698795" y="490.6987951807229"/>
      <point x="384.45783132530124" y="511.28915662650604"/>
      <point x="321.3975903614458" y="511.28915662650604" type="curve" smooth="yes"/>
      <point x="178.93975903614455" y="511.28915662650604"/>
      <point x="75.36144578313254" y="424.6987951807229"/>
      <point x="49.36144578313253" y="263.7590361445783" type="curve" smooth="yes"/>
      <point x="21.83132530120482" y="93.16867469879519"/>
      <point x="106.53012048192771" y="-8.939759036144578"/>
    </contour>
  </outline>
</glyph>
<glyph name="d" format="2">
  <advance width="600.3855421686746"/>
  <unicode hex="0064"/>
  <anchor x="262.4578313253012" y="0.0" name="bottom"/>
  <anchor x="300.6385542168675" y="253.46987951807228" name="center"/>
  <anchor x="486.0481927710843" y="605.1084337349398" name="stroke"/>
  <anchor x="367.9277108433735" y="675.9397590361446" name="top"/>
  <anchor x="647.6746987951807" y="736.0" name="topright"/>
  <outline>
    <contour>
      <point x="237.1807228915663" y="-8.939759036144578" type="curve" smooth="yes"/>
      <point x="331.48192771084337" y="-8.939759036144578"/>
      <point x="400.1927710843374" y="39.7710843373494"/>
      <point x="435.31325301204816" y="119.72289156626506" type="curve"/>
      <point x="420.8433734939759" y="119.72289156626506" type="line"/>
      <point x="401.72289156626505" y="0.0" type="line"/>
      <point x="481.7831325301205" y="0.0" type="line"/>
      <point x="598.7831325301205" y="736.0" type="line"/>
      <point x="517.7831325301205" y="736.0" type="line"/>
      <point x="462.13253012048193" y="384.50602409638554" type="line"/>
      <point x="472.6024096385542" y="384.50602409638554" type="line"/>
      <point x="459.54216867469876" y="463.04819277108436"/>
      <point x="395.5421686746988" y="511.28915662650604"/>
      <point x="306.7710843373494" y="511.28915662650604" type="curve" smooth="yes"/>
      <point x="175.7710843373494" y="511.28915662650604"/>
      <point x="75.36144578313254" y="425.16867469879514"/>
      <point x="49.36144578313253" y="263.75903614457826" type="curve" smooth="yes"/>
      <point x="21.83132530120482" y="92.6987951807229"/>
      <point x="98.18072289156626" y="-8.939759036144578"/>
    </contour>
    <contour>
      <point x="258.566265060241" y="56.8433734939759" type="curve" smooth="yes"/>
      <point x="160.1325301204819" y="56.8433734939759"/>
      <point x="109.2409638554217" y="124.03614457831326"/>
      <point x="130.36144578313252" y="253.7590361445783" type="curve" smooth="yes"/>
      <point x="150.0120481927711" y="378.7831325301205"/>
      <point x="220.2048192771084" y="445.50602409638554"/>
      <point x="313.5783132530121" y="445.50602409638554" type="curve" smooth="yes"/>
      <point x="411.0120481927711" y="445.50602409638554"/>
      <point x="463.433734939759" y="378.7831325301205"/>
      <point x="443.31325301204816" y="249.06024096385542" type="curve" smooth="yes"/>
      <point x="422.6626506024096" y="123.56626506024097"/>
      <point x="350.9397590361446" y="56.8433734939759"/>
    </contour>
  </outline>
</glyph>
<glyph name="e" format="2">
  <advance width="544.289156626506"/>
  <unicode hex="0065"/>
  <anchor x="249.2289156626506" y="0.0" name="bottom"/>
  <anchor x="329.03614457831327" y="0.0" name="ogonek"/>
  <anchor x="323.4096385542169" y="484.0" name="top"/>
  <outline>
    <contour>
      <point x="273.33734939759034" y="-8.939759036144578" type="curve" smooth="yes"/>
      <point x="347.27710843373495" y="-8.939759036144578"/>
      <point x="419.86746987951807" y="14.710843373493976"/>
      <point x="473.2771084337349" y="57.89156626506024" type="curve"/>
      <point x="444.69879518072287" y="114.855421686747" type="line"/>
      <point x="396.10843373493975" y="72.96385542168674"/>
      <point x="338.68674698795184" y="56.8433734939759"/>
      <point x="281.3855421686747" y="56.8433734939759" type="curve" smooth="yes"/>
      <point x="161.9036144578313" y="56.8433734939759"/>
      <point x="108.95180722891567" y="125.3855421686747"/>
      <point x="126.07228915662651" y="248.46987951807228" type="curve" smooth="yes"/>
      <point x="129.48192771084337" y="271.92771084337346" type="line" smooth="yes"/>
      <point x="143.6024096385542" y="374.48192771084337"/>
      <point x="205.85542168674698" y="450.73493975903614"/>
      <point x="311.5301204819277" y="450.73493975903614" type="curve" smooth="yes"/>
      <point x="409.144578313253" y="450.73493975903614"/>
      <point x="450.50602409638554" y="389.6024096385542"/>
      <point x="434.9156626506024" y="280.7590361445783" type="curve"/>
      <point x="452.855421686747" y="295.16867469879514" type="line"/>
      <point x="116.60240963855422" y="295.16867469879514" type="line"/>
      <point x="108.72289156626506" y="244.0120481927711" type="line"/>
      <point x="497.9879518072289" y="244.0120481927711" type="line"/>
      <point x="502.45783132530124" y="273.3614457831325" type="line" smooth="yes"/>
      <point x="523.867469879518" y="414.12048192771084"/>
      <point x="454.1084337349398" y="511.28915662650604"/>
      <point x="316.0" y="511.28915662650604" type="curve" smooth="yes"/>
      <point x="173.24096385542168" y="511.28915662650604"/>
      <point x="74.89156626506025" y="420.4096385542168"/>
      <point x="50.36144578313253" y="267.28915662650604" type="curve" smooth="yes"/>
      <point x="23.36144578313253" y="97.75903614457832"/>
      <point x="106.53012048192772" y="-8.939759036144578"/>
    </contour>
  </outline>
</glyph>
<glyph name="f" format="2">
  <advance width="337.54819277108436"/>
  <unicode hex="0066"/>
  <anchor x="105.9156626506024" y="0.0" name="bottom"/>
  <anchor x="211.9156626506024" y="670.0" name="top"/>
  <outline>
    <contour>
      <point x="65.18072289156626" y="0.0" type="line"/>
      <point x="146.18072289156626" y="0.0" type="line"/>
      <point x="215.42168674698794" y="439.09638554216866" type="line"/>
      <point x="355.3734939759036" y="439.09638554216866" type="line"/>
      <point x="365.6024096385542" y="502.34939759036143" type="line"/>
      <point x="212.48192771084337" y="502.34939759036143" type="line"/>
      <point x="222.710843373494" y="484.5903614457831" type="line"/>
      <point x="233.83132530120483" y="558.3132530120482" type="line" smooth="yes"/>
      <point x="246.42168674698797" y="634.855421686747"/>
      <point x="289.710843373494" y="671.8674698795181"/>
      <point x="351.7831325301205" y="671.8674698795181" type="curve" smooth="yes"/>
      <point x="375.8433734939759" y="671.8674698795181"/>
      <point x="397.43373493975906" y="666.3373493975904"/>
      <point x="412.3734939759036" y="659.8072289156627" type="curve"/>
      <point x="423.0722891566265" y="727.0602409638554" type="line"/>
      <point x="405.31325301204816" y="734.4698795180723"/>
      <point x="375.90361445783134" y="740.0"/>
      <point x="350.6144578313253" y="740.0" type="curve" smooth="yes"/>
      <point x="240.289156626506" y="740.0"/>
      <point x="173.710843373494" y="681.2409638554217"/>
      <point x="155.83132530120483" y="572.4939759036145" type="curve" smooth="yes"/>
      <point x="141.24096385542168" y="481.48192771084337" type="line"/>
      <point x="166.39759036144576" y="502.34939759036143" type="line"/>
      <point x="46.06024096385542" y="502.34939759036143" type="line"/>
      <point x="35.83132530120482" y="439.09638554216866" type="line"/>
      <point x="134.42168674698794" y="439.09638554216866" type="line"/>
    </contour>
  </outline>
</glyph>
<glyph name="g" format="2">
  <advance width="603.4457831325301"/>
  <unicode hex="0067"/>
  <anchor x="341.9277108433735" y="484.0" name="top"/>
  <outline>
    <contour>
      <point x="228.16867469879517" y="-223.46987951807228" type="curve" smooth="yes"/>
      <point x="375.26506024096386" y="-223.46987951807228"/>
      <point x="462.7831325301205" y="-145.89156626506025"/>
      <point x="486.1927710843374" y="2.506024096385543" type="curve" smooth="yes"/>
      <point x="546.9036144578314" y="385.89156626506025" type="line" smooth="yes"/>
      <point x="552.3734939759037" y="423.1807228915663"/>
      <point x="562.3734939759036" y="463.0"/>
      <point x="573.3132530120482" y="502.34939759036143" type="curve"/>
      <point x="494.72289156626505" y="502.34939759036143" type="line"/>
      <point x="468.13253012048193" y="393.1566265060241" type="line"/>
      <point x="475.6626506024096" y="383.4457831325301" type="line"/>
      <point x="464.6626506024096" y="463.04819277108436"/>
      <point x="400.1325301204819" y="511.28915662650604"/>
      <point x="309.30120481927713" y="511.28915662650604" type="curve" smooth="yes"/>
      <point x="175.83132530120483" y="511.28915662650604"/>
      <point x="75.83132530120483" y="426.69879518072287"/>
      <point x="51.36144578313253" y="274.2289156626506" type="curve" smooth="yes"/>
      <point x="25.951807228915662" y="116.12048192771084"/>
      <point x="103.65060240963857" y="11.93975903614458"/>
      <point x="241.710843373494" y="11.93975903614458" type="curve" smooth="yes"/>
      <point x="331.95180722891564" y="11.93975903614458"/>
      <point x="407.2530120481928" y="60.65060240963855"/>
      <point x="439.43373493975906" y="139.25301204819277" type="curve"/>
      <point x="427.90361445783134" y="139.25301204819277" type="line"/>
      <point x="404.66265060240966" y="-8.25301204819277" type="line" smooth="yes"/>
      <point x="389.07228915662654" y="-104.85542168674698"/>
      <point x="331.65060240963857" y="-157.6867469879518"/>
      <point x="231.40963855421688" y="-157.6867469879518" type="curve" smooth="yes"/>
      <point x="158.63855421686745" y="-157.6867469879518"/>
      <point x="104.59036144578315" y="-140.21686746987953"/>
      <point x="49.87951807228915" y="-96.91566265060241" type="curve"/>
      <point x="21.301204819277103" y="-157.6987951807229" type="line"/>
      <point x="72.65060240963855" y="-201.87951807228916"/>
      <point x="143.06024096385542" y="-223.46987951807228"/>
    </contour>
    <contour>
      <point x="261.0361445783132" y="77.25301204819277" type="curve" smooth="yes"/>
      <point x="164.13253012048193" y="77.25301204819277"/>
      <point x="112.71084337349399" y="144.9156626506024"/>
      <point x="131.36144578313252" y="262.34939759036143" type="curve" smooth="yes"/>
      <point x="150.0120481927711" y="378.8433734939759"/>
      <point x="220.73493975903617" y="445.50602409638554"/>
      <point x="317.6385542168675" y="445.50602409638554" type="curve" smooth="yes"/>
      <point x="414.0120481927711" y="445.50602409638554"/>
      <point x="464.9638554216868" y="378.8433734939759"/>
      <point x="446.3132530120482" y="260.9397590361446" type="curve" smooth="yes"/>
      <point x="428.13253012048193" y="144.9156626506024"/>
      <point x="357.4096385542169" y="77.25301204819277"/>
    </contour>
  </outline>
</glyph>
<glyph name="h" format="2">
  <advance width="585.2710843373494"/>
  <unicode hex="0068"/>
  <anchor x="253.9879518072289" y="0.0" name="bottom"/>
  <anchor x="294.4578313253012" y="254.40963855421685" name="center"/>
  <anchor x="273.51807228915663" y="364.5301204819277" name="dot"/>
  <anchor x="224.80722891566265" y="586.1084337349398" name="stroke"/>
  <anchor x="370.45783132530124" y="712.5180722891566" name="top"/>
  <anchor x="270.3734939759036" y="712.5180722891566" name="topright"/>
  <outline>
    <contour>
      <point x="38.60240963855422" y="0.0" type="line"/>
      <point x="119.6024096385542" y="0.0" type="line"/>
      <point x="165.6024096385542" y="288.5903614457831" type="line" smooth="yes"/>
      <point x="180.25301204819277" y="382.49397590361446"/>
      <point x="245.44578313253012" y="444.56626506024094"/>
      <point x="339.87951807228916" y="444.56626506024094" type="curve" smooth="yes"/>
      <point x="420.8433734939759" y="444.56626506024094"/>
      <point x="452.6144578313253" y="405.20481927710847"/>
      <point x="436.9638554216868" y="304.71084337349396" type="curve" smooth="yes"/>
      <point x="388.90361445783134" y="0.0" type="line"/>
      <point x="469.90361445783134" y="0.0" type="line"/>
      <point x="517.9638554216867" y="305.7710843373494" type="line" smooth="yes"/>
      <point x="539.3734939759036" y="438.7590361445783"/>
      <point x="492.5542168674699" y="511.28915662650604"/>
      <point x="369.49397590361446" y="511.28915662650604" type="curve" smooth="yes"/>
      <point x="279.6626506024096" y="511.28915662650604"/>
      <point x="207.01204819277106" y="469.578313253012"/>
      <point x="167.01204819277106" y="390.7469879518072" type="curve"/>
      <point x="181.48192771084337" y="390.7469879518072" type="line"/>
      <point x="236.6024096385542" y="736.0" type="line"/>
      <point x="155.6024096385542" y="736.0" type="line"/>
    </contour>
  </outline>
</glyph>
<glyph name="i" format="2">
  <advance width="238.20481927710844"/>
  <unicode hex="0069"/>
  <anchor x="83.92771084337349" y="0.0" name="bottom"/>
  <anchor x="108.3855421686747" y="0.0" name="ogonek"/>
  <anchor x="156.33734939759034" y="484.0" name="top"/>
  <outline>
    <contour>
      <point x="38.60240963855422" y="0.0" type="line"/>
      <point x="119.6024096385542" y="0.0" type="line"/>
      <point x="199.07228915662648" y="502.34939759036143" type="line"/>
      <point x="118.07228915662651" y="502.34939759036143" type="line"/>
    </contour>
    <contour>
      <point x="127.13253012048192" y="616.433734939759" type="line"/>
      <point x="226.3734939759036" y="616.433734939759" type="line"/>
      <point x="241.07228915662648" y="707.156626506024" type="line"/>
      <point x="141.8313253012048" y="707.156626506024" type="line"/>
    </contour>
  </outline>
</glyph>
<glyph name="j" format="2">
  <advance width="237.96987951807228"/>
  <unicode hex="006A"/>
  <anchor x="84.51807228915662" y="0.0" name="bottom"/>
  <anchor x="161.51807228915663" y="484.0" name="top"/>
  <outline>
    <contour>
      <point x="-62.24096385542168" y="-219.87951807228916" type="curve" smooth="yes"/>
      <point x="39.614457831325296" y="-219.87951807228916"/>
      <point x="99.72289156626506" y="-160.710843373494"/>
      <point x="117.60240963855422" y="-46.373493975903614" type="curve" smooth="yes"/>
      <point x="204.72289156626505" y="502.34939759036143" type="line"/>
      <point x="123.72289156626506" y="502.34939759036143" type="line"/>
      <point x="38.13253012048193" y="-38.31325301204819" type="line" smooth="yes"/>
      <point x="25.542168674698797" y="-117.3855421686747"/>
      <point x="-6.927710843373494" y="-151.27710843373495"/>
      <point x="-62.879518072289166" y="-151.27710843373495" type="curve" smooth="yes"/>
      <point x="-80.81927710843372" y="-151.27710843373495"/>
      <point x="-103.46987951807229" y="-146.2168674698795"/>
      <point x="-118.40963855421687" y="-140.2168674698795" type="curve"/>
      <point x="-129.63855421686748" y="-207.93975903614458" type="line"/>
      <point x="-111.87951807228916" y="-216.87951807228916"/>
      <point x="-81.40963855421687" y="-219.87951807228916"/>
    </contour>
    <contour>
      <point x="132.31325301204822" y="616.433734939759" type="line"/>
      <point x="231.5542168674699" y="616.433734939759" type="line"/>
      <point x="246.25301204819277" y="707.156626506024" type="line"/>
      <point x="147.0120481927711" y="707.156626506024" type="line"/>
    </contour>
  </outline>
</glyph>
<glyph name="l" format="2">
  <advance width="237.96987951807228"/>
  <unicode hex="006C"/>
  <anchor x="79.33734939759036" y="0.0" name="bottom"/>
  <anchor x="136.80722891566262" y="362.1686746987952" name="center"/>
  <anchor x="280.6987951807229" y="355.5903614457831" name="dot"/>
  <anchor x="192.27710843373492" y="712.5180722891566" name="top"/>
  <anchor x="283.90361445783134" y="736.0" name="topright"/>
  <outline>
    <contour>
      <point x="38.60240963855422" y="0.0" type="line"/>
      <point x="119.6024096385542" y="0.0" type="line"/>
      <point x="236.6024096385542" y="736.0" type="line"/>
      <point x="155.6024096385542" y="736.0" type="line"/>
    </contour>
  </outline>
</glyph>
<glyph name="m" format="2">
  <advance width="878.3253012048193"/>
  <unicode hex="006D"/>
  <anchor x="399.3975903614458" y="0.0" name="bottom"/>
  <anchor x="476.3975903614458" y="484.0" name="top"/>
  <outline>
    <contour>
      <point x="38.60240963855422" y="0.0" type="line"/>
      <point x="119.6024096385542" y="0.0" type="line"/>
      <point x="165.13253012048193" y="285.1807228915663" type="line" smooth="yes"/>
      <point x="180.25301204819277" y="382.49397590361446"/>
      <point x="238.44578313253012" y="444.56626506024094"/>
      <point x="323.2289156626506" y="444.56626506024094" type="curve" smooth="yes"/>
      <point x="398.60240963855426" y="444.56626506024094"/>
      <point x="423.84337349397595" y="403.20481927710847"/>
      <point x="408.7228915662651" y="309.30120481927713" type="curve" smooth="yes"/>
      <point x="359.66265060240966" y="0.0" type="line"/>
      <point x="440.66265060240966" y="0.0" type="line"/>
      <point x="486.1927710843374" y="285.1807228915663" type="line" smooth="yes"/>
      <point x="501.3132530120482" y="382.49397590361446"/>
      <point x="560.5060240963855" y="444.56626506024094"/>
      <point x="644.8192771084338" y="444.56626506024094" type="curve" smooth="yes"/>
      <point x="719.6626506024096" y="444.56626506024094"/>
      <point x="745.433734939759" y="403.20481927710847"/>
      <point x="730.7831325301205" y="309.30120481927713" type="curve" smooth="yes"/>
      <point x="681.722891566265" y="0.0" type="line"/>
      <point x="762.722891566265" y="0.0" type="line"/>
      <point x="811.2530120481928" y="303.7710843373494" type="line" smooth="yes"/>
      <point x="833.722891566265" y="446.93975903614455"/>
      <point x="782.6626506024096" y="511.28915662650604"/>
      <point x="671.433734939759" y="511.28915662650604" type="curve" smooth="yes"/>
      <point x="586.6626506024096" y="511.28915662650604"/>
      <point x="512.1927710843373" y="461.578313253012"/>
      <point x="476.8433734939759" y="387.9277108433735" type="curve"/>
      <point x="491.1927710843374" y="387.9277108433735" type="line"/>
      <point x="487.9036144578313" y="469.10843373493975"/>
      <point x="436.433734939759" y="511.28915662650604"/>
      <point x="352.72289156626505" y="511.28915662650604" type="curve" smooth="yes"/>
      <point x="270.6024096385542" y="511.28915662650604"/>
      <point x="205.48192771084337" y="470.578313253012"/>
      <point x="167.01204819277106" y="391.7469879518072" type="curve"/>
      <point x="180.5421686746988" y="391.7469879518072" type="line"/>
      <point x="188.66265060240963" y="502.34939759036143" type="line"/>
      <point x="110.07228915662651" y="502.34939759036143" type="line"/>
      <point x="108.07228915662651" y="463.0"/>
      <point x="105.13253012048193" y="423.1807228915663"/>
      <point x="99.66265060240964" y="385.89156626506025" type="curve" smooth="yes"/>
    </contour>
  </outline>
</glyph>
<glyph name="o" format="2">
  <advance width="571.3253012048193"/>
  <unicode hex="006F"/>
  <anchor x="246.3975903614458" y="0.0" name="bottom"/>
  <anchor x="285.3975903614458" y="251.40963855421685" name="center"/>
  <anchor x="301.86746987951807" y="0.0" name="ogonek"/>
  <anchor x="323.3975903614458" y="484.0" name="top"/>
  <anchor x="376.1566265060241" y="500.0" name="topright"/>
  <outline>
    <contour>
      <point x="252.21686746987953" y="-8.939759036144578" type="curve" smooth="yes"/>
      <point x="390.26506024096386" y="-8.939759036144578"/>
      <point x="495.433734939759" y="78.12048192771084"/>
      <point x="521.433734939759" y="239.06024096385542" type="curve" smooth="yes"/>
      <point x="548.433734939759" y="411.5301204819277"/>
      <point x="469.73493975903614" y="511.28915662650604"/>
      <point x="318.51807228915663" y="511.28915662650604" type="curve" smooth="yes"/>
      <point x="180.46987951807228" y="511.28915662650604"/>
      <point x="75.36144578313254" y="424.69879518072287"/>
      <point x="49.36144578313253" y="263.75903614457826" type="curve" smooth="yes"/>
      <point x="22.36144578313253" y="90.81927710843374"/>
      <point x="101.0" y="-8.939759036144578"/>
    </contour>
    <contour>
      <point x="257.6265060240964" y="56.8433734939759" type="curve" smooth="yes"/>
      <point x="159.66265060240966" y="56.8433734939759"/>
      <point x="109.2409638554217" y="124.03614457831326"/>
      <point x="130.36144578313252" y="253.7590361445783" type="curve" smooth="yes"/>
      <point x="150.0120481927711" y="378.7831325301205"/>
      <point x="219.73493975903617" y="445.50602409638554"/>
      <point x="312.6385542168675" y="445.50602409638554" type="curve" smooth="yes"/>
      <point x="409.60240963855426" y="445.50602409638554"/>
      <point x="461.5542168674699" y="378.7831325301205"/>
      <point x="441.43373493975906" y="249.06024096385542" type="curve" smooth="yes"/>
      <point x="420.7831325301205" y="123.56626506024097"/>
      <point x="349.5301204819277" y="56.8433734939759"/>
    </contour>
  </outline>
</glyph>
<glyph name="p" format="2">
  <advance width="600.3855421686746"/>
  <unicode hex="0070"/>
  <anchor x="257.10843373493975" y="0.0" name="bottom"/>
  <anchor x="334.10843373493975" y="484.0" name="top"/>
  <outline>
    <contour>
      <point x="4.602409638554221" y="-216.0" type="line"/>
      <point x="85.6024096385542" y="-216.0" type="line"/>
      <point x="138.72289156626505" y="118.3132530120482" type="line"/>
      <point x="128.25301204819277" y="118.3132530120482" type="line"/>
      <point x="141.3132530120482" y="39.30120481927711"/>
      <point x="205.3132530120482" y="-8.939759036144578"/>
      <point x="294.0843373493976" y="-8.939759036144578" type="curve" smooth="yes"/>
      <point x="425.08433734939763" y="-8.939759036144578"/>
      <point x="525.0240963855422" y="77.65060240963855"/>
      <point x="551.4939759036145" y="239.06024096385542" type="curve" smooth="yes"/>
      <point x="579.0240963855422" y="409.65060240963857"/>
      <point x="502.67469879518075" y="511.28915662650604"/>
      <point x="363.67469879518075" y="511.28915662650604" type="curve" smooth="yes"/>
      <point x="269.37349397590356" y="511.28915662650604"/>
      <point x="200.66265060240963" y="462.578313253012"/>
      <point x="165.5421686746988" y="383.09638554216866" type="curve"/>
      <point x="180.01204819277106" y="383.09638554216866" type="line"/>
      <point x="188.66265060240963" y="502.34939759036143" type="line"/>
      <point x="110.07228915662651" y="502.34939759036143" type="line"/>
      <point x="108.07228915662651" y="463.0"/>
      <point x="105.60240963855422" y="423.1807228915663"/>
      <point x="99.66265060240964" y="385.89156626506025" type="curve" smooth="yes"/>
    </contour>
    <contour>
      <point x="287.27710843373495" y="56.8433734939759" type="curve" smooth="yes"/>
      <point x="189.84337349397592" y="56.8433734939759"/>
      <point x="137.42168674698794" y="124.03614457831326"/>
      <point x="157.5421686746988" y="253.7590361445783" type="curve" smooth="yes"/>
      <point x="177.19277108433735" y="378.7831325301205"/>
      <point x="249.91566265060243" y="445.50602409638554"/>
      <point x="342.28915662650604" y="445.50602409638554" type="curve" smooth="yes"/>
      <point x="440.7228915662651" y="445.50602409638554"/>
      <point x="491.6144578313253" y="378.7831325301205"/>
      <point x="470.49397590361446" y="249.06024096385542" type="curve" smooth="yes"/>
      <point x="449.8433734939759" y="123.56626506024097"/>
      <point x="380.65060240963857" y="56.8433734939759"/>
    </contour>
  </outline>
</glyph>
<glyph name="r" format="2">
  <advance width="362.54819277108436"/>
  <unicode hex="0072"/>
  <anchor x="77.80722891566265" y="0.0" name="bottom"/>
  <anchor x="259.566265060241" y="484.0" name="top"/>
  <outline>
    <contour>
      <point x="37.07228915662651" y="0.0" type="line"/>
      <point x="118.54216867469879" y="0.0" type="line"/>
      <point x="165.78313253012047" y="296.03614457831327" type="line" smooth="yes"/>
      <point x="178.72289156626505" y="377.20481927710847"/>
      <point x="240.43373493975903" y="441.27710843373495"/>
      <point x="330.9759036144578" y="441.27710843373495" type="curve" smooth="yes"/>
      <point x="352.20481927710847" y="441.27710843373495"/>
      <point x="368.2048192771084" y="439.8072289156627"/>
      <point x="384.433734939759" y="433.4578313253012" type="curve"/>
      <point x="398.13253012048193" y="506.289156626506" type="line"/>
      <point x="383.13253012048193" y="509.8192771084337"/>
      <point x="368.1927710843373" y="511.28915662650604"/>
      <point x="351.2530120481928" y="511.28915662650604" type="curve" smooth="yes"/>
      <point x="274.0843373493976" y="511.28915662650604"/>
      <point x="197.84337349397592" y="468.5903614457831"/>
      <point x="164.96385542168676" y="379.1927710843373" type="curve"/>
      <point x="180.60240963855424" y="379.72289156626505" type="line"/>
      <point x="188.66265060240963" y="502.34939759036143" type="line"/>
      <point x="110.07228915662651" y="502.34939759036143" type="line"/>
      <point x="108.07228915662651" y="463.0"/>
      <point x="103.60240963855422" y="420.65060240963857"/>
      <point x="97.60240963855422" y="381.30120481927713" type="curve" smooth="yes"/>
    </contour>
  </outline>
</glyph>
<glyph name="s" format="2">
  <advance width="495.99397590361446"/>
  <unicode hex="0073"/>
  <anchor x="205.87951807228916" y="0.0" name="bottom"/>
  <anchor x="290.87951807228916" y="484.0" name="top"/>
  <outline>
    <contour>
      <point x="212.75903614457832" y="-8.939759036144578" type="curve" smooth="yes"/>
      <point x="330.04819277108436" y="-8.939759036144578"/>
      <point x="411.566265060241" y="44.59036144578313"/>
      <point x="424.9759036144578" y="130.98795180722894" type="curve" smooth="yes"/>
      <point x="437.44578313253015" y="206.74698795180723"/>
      <point x="398.9759036144578" y="256.68674698795184"/>
      <point x="297.3855421686747" y="273.7469879518072" type="curve" smooth="yes"/>
      <point x="222.86746987951807" y="286.6867469879518" type="line" smooth="yes"/>
      <point x="171.26506024096383" y="295.8072289156626"/>
      <point x="152.55421686746988" y="325.1686746987952"/>
      <point x="159.14457831325302" y="367.7710843373494" type="curve" smooth="yes"/>
      <point x="166.73493975903617" y="414.8433734939759"/>
      <point x="211.74698795180723" y="449.26506024096386"/>
      <point x="288.28915662650604" y="449.26506024096386" type="curve" smooth="yes"/>
      <point x="341.46987951807233" y="449.26506024096386"/>
      <point x="391.7590361445783" y="431.26506024096386"/>
      <point x="427.22891566265065" y="401.6144578313253" type="curve"/>
      <point x="458.2168674698795" y="458.1686746987952" type="line"/>
      <point x="423.51807228915663" y="489.10843373493975"/>
      <point x="361.2289156626506" y="511.28915662650604"/>
      <point x="288.28915662650604" y="511.28915662650604" type="curve" smooth="yes"/>
      <point x="181.30120481927713" y="511.28915662650604"/>
      <point x="96.66265060240964" y="459.4096385542168"/>
      <point x="82.72289156626506" y="371.8313253012048" type="curve" smooth="yes"/>
      <point x="70.72289156626506" y="294.48192771084337"/>
      <point x="106.66265060240964" y="238.48192771084337"/>
      <point x="205.72289156626508" y="222.48192771084337" type="curve" smooth="yes"/>
      <point x="277.71084337349396" y="210.5421686746988" type="line" smooth="yes"/>
      <point x="334.43373493975906" y="201.42168674698794"/>
      <point x="356.144578313253" y="174.06024096385542"/>
      <point x="349.5542168674699" y="131.51807228915663" type="curve" smooth="yes"/>
      <point x="341.96385542168673" y="84.44578313253012"/>
      <point x="294.89156626506025" y="53.554216867469876"/>
      <point x="217.69879518072287" y="53.554216867469876" type="curve" smooth="yes"/>
      <point x="156.69879518072287" y="53.554216867469876"/>
      <point x="99.93975903614458" y="72.55421686746988"/>
      <point x="56.06024096385542" y="105.20481927710843" type="curve"/>
      <point x="27.012048192771086" y="47.71084337349398" type="line"/>
      <point x="66.3012048192771" y="13.650602409638553"/>
      <point x="136.65060240963854" y="-8.939759036144578"/>
    </contour>
  </outline>
</glyph>
<glyph name="t" format="2">
  <advance width="349.8433734939759"/>
  <unicode hex="0074"/>
  <anchor x="184.6265060240964" y="0.0" name="bottom"/>
  <anchor x="175.6265060240964" y="275.8313253012048" name="center"/>
  <anchor x="207.9156626506024" y="646.0" name="top"/>
  <anchor x="330.84337349397595" y="712.5180722891566" name="topright"/>
  <outline>
    <contour>
      <point x="223.67469879518072" y="-8.939759036144578" type="curve" smooth="yes"/>
      <point x="248.144578313253" y="-8.939759036144578"/>
      <point x="269.43373493975906" y="-4.409638554216867"/>
      <point x="289.66265060240966" y="4.0" type="curve"/>
      <point x="300.3614457831325" y="71.72289156626506" type="line"/>
      <point x="282.95180722891564" y="64.72289156626506"/>
      <point x="262.77108433734935" y="59.66265060240964"/>
      <point x="238.1807228915663" y="59.66265060240964" type="curve" smooth="yes"/>
      <point x="182.7590361445783" y="59.66265060240964"/>
      <point x="160.93975903614458" y="93.08433734939759"/>
      <point x="173.5301204819277" y="172.1566265060241" type="curve" smooth="yes"/>
      <point x="215.42168674698794" y="439.09638554216866" type="line"/>
      <point x="359.433734939759" y="439.09638554216866" type="line"/>
      <point x="369.6626506024096" y="502.34939759036143" type="line"/>
      <point x="225.65060240963854" y="502.34939759036143" type="line"/>
      <point x="251.12048192771084" y="662.289156626506" type="line"/>
      <point x="166.710843373494" y="638.7710843373494" type="line"/>
      <point x="144.65060240963854" y="502.34939759036143" type="line"/>
      <point x="46.06024096385542" y="502.34939759036143" type="line"/>
      <point x="35.83132530120482" y="439.09638554216866" type="line"/>
      <point x="134.42168674698794" y="439.09638554216866" type="line"/>
      <point x="90.53012048192771" y="162.09638554216866" type="line" smooth="yes"/>
      <point x="73.12048192771084" y="49.57831325301205"/>
      <point x="116.69879518072288" y="-8.939759036144578"/>
    </contour>
  </outline>
</glyph>
<glyph name="u" format="2">
  <advance width="577.210843373494"/>
  <unicode hex="0075"/>
  <anchor x="248.9879518072289" y="0.0" name="bottom"/>
  <anchor x="444.7469879518072" y="0.0" name="ogonek"/>
  <anchor x="325.9879518072289" y="485.0" name="top"/>
  <anchor x="471.4096385542169" y="500.0" name="topright"/>
  <outline>
    <contour>
      <point x="223.36144578313252" y="-8.939759036144578" type="curve" smooth="yes"/>
      <point x="305.54216867469876" y="-8.939759036144578"/>
      <point x="373.90361445783134" y="35.24096385542169"/>
      <point x="412.3734939759036" y="113.07228915662651" type="curve"/>
      <point x="397.3734939759036" y="113.07228915662651" type="line"/>
      <point x="379.7831325301205" y="0.0" type="line"/>
      <point x="458.8433734939759" y="0.0" type="line"/>
      <point x="538.3132530120481" y="502.34939759036143" type="line"/>
      <point x="457.31325301204816" y="502.34939759036143" type="line"/>
      <point x="412.31325301204816" y="217.28915662650604" type="line" smooth="yes"/>
      <point x="396.6626506024096" y="120.855421686747"/>
      <point x="335.46987951807233" y="58.25301204819277"/>
      <point x="245.03614457831324" y="58.25301204819277" type="curve" smooth="yes"/>
      <point x="164.19277108433735" y="58.25301204819277"/>
      <point x="132.89156626506022" y="99.67469879518072"/>
      <point x="148.07228915662648" y="199.81927710843374" type="curve" smooth="yes"/>
      <point x="196.07228915662648" y="502.34939759036143" type="line"/>
      <point x="115.07228915662651" y="502.34939759036143" type="line"/>
      <point x="66.5421686746988" y="196.22891566265062" type="line" smooth="yes"/>
      <point x="44.5421686746988" y="55.6987951807229"/>
      <point x="105.13253012048192" y="-8.939759036144578"/>
    </contour>
  </outline>
</glyph>
<glyph name="v" format="2">
  <advance width="531.0421686746988"/>
  <unicode hex="0076"/>
  <anchor x="226.10843373493975" y="0.0" name="bottom"/>
  <anchor x="303.10843373493975" y="484.0" name="top"/>
  <outline>
    <contour>
      <point x="186.6024096385542" y="0.0" type="line"/>
      <point x="263.73493975903614" y="0.0" type="line"/>
      <point x="558.4939759036145" y="502.34939759036143" type="line"/>
      <point x="471.90361445783134" y="502.34939759036143" type="line"/>
      <point x="219.33734939759037" y="60.16867469879518" type="line"/>
      <point x="246.6265060240964" y="60.16867469879518" type="line"/>
      <point x="136.25301204819277" y="502.34939759036143" type="line"/>
      <point x="51.72289156626506" y="502.34939759036143" type="line"/>
    </contour>
  </outline>
</glyph>
<glyph name="w" format="2">
  <advance width="869.2168674698795"/>
  <unicode hex="0077"/>
  <anchor x="394.578313253012" y="0.0" name="bottom"/>
  <anchor x="471.578313253012" y="484.0" name="top"/>
  <outline>
    <contour>
      <point x="173.3012048192771" y="0.0" type="line"/>
      <point x="252.49397590361446" y="0.0" type="line"/>
      <point x="486.7590361445783" y="449.18072289156623" type="line"/>
      <point x="445.48192771084337" y="449.18072289156623" type="line"/>
      <point x="537.1927710843373" y="0.0" type="line"/>
      <point x="615.3855421686746" y="0.0" type="line"/>
      <point x="881.2530120481928" y="502.34939759036143" type="line"/>
      <point x="796.6024096385543" y="502.34939759036143" type="line"/>
      <point x="570.3373493975904" y="60.04819277108434" type="line"/>
      <point x="595.4578313253013" y="60.04819277108434" type="line"/>
      <point x="508.03614457831327" y="502.34939759036143" type="line"/>
      <point x="438.65060240963857" y="502.34939759036143" type="line"/>
      <point x="208.32530120481928" y="60.04819277108434" type="line"/>
      <point x="234.32530120481925" y="60.04819277108434" type="line"/>
      <point x="149.02409638554215" y="502.34939759036143" type="line"/>
      <point x="66.90361445783132" y="502.34939759036143" type="line"/>
    </contour>
  </outline>
</glyph>
<glyph name="x" format="2">
  <advance width="534.4518072289156"/>
  <unicode hex="0078"/>
  <anchor x="226.63855421686748" y="0.0" name="bottom"/>
  <anchor x="303.6385542168675" y="484.0" name="top"/>
  <outline>
    <contour>
      <point x="-31.734939759036145" y="0.0" type="line"/>
      <point x="69.78313253012048" y="0.0" type="line"/>
      <point x="277.8072289156626" y="219.02409638554218" type="line"/>
      <point x="248.24096385542168" y="219.02409638554218" type="line"/>
      <point x="385.43373493975906" y="0.0" type="line"/>
      <point x="480.07228915662654" y="0.0" type="line"/>
      <point x="301.08433734939763" y="277.33734939759034" type="line"/>
      <point x="299.20481927710847" y="240.48192771084337" type="line"/>
      <point x="551.0120481927711" y="502.34939759036143" type="line"/>
      <point x="449.49397590361446" y="502.34939759036143" type="line"/>
      <point x="256.9397590361446" y="297.32530120481925" type="line"/>
      <point x="285.56626506024094" y="297.32530120481925" type="line"/>
      <point x="157.31325301204822" y="502.34939759036143" type="line"/>
      <point x="65.08433734939759" y="502.34939759036143" type="line"/>
      <point x="236.66265060240966" y="238.89156626506025" type="line"/>
      <point x="237.6024096385542" y="279.4578313253012" type="line"/>
    </contour>
  </outline>
</glyph>
<glyph name="y" format="2">
  <advance width="530.8072289156627"/>
  <unicode hex="0079"/>
  <anchor x="361.855421686747" y="0.0" name="bottom"/>
  <anchor x="301.6385542168675" y="484.0" name="top"/>
  <outline>
    <contour>
      <point x="-15.409638554216869" y="-227.0" type="line"/>
      <point x="90.86746987951807" y="-208.0"/>
      <point x="165.3855421686747" y="-169.87951807228916"/>
      <point x="240.7831325301205" y="-41.78313253012048" type="curve" smooth="yes"/>
      <point x="558.4939759036145" y="502.34939759036143" type="line"/>
      <point x="470.90361445783134" y="502.34939759036143" type="line"/>
      <point x="221.33734939759037" y="60.63855421686747" type="line"/>
      <point x="247.1566265060241" y="60.63855421686747" type="line"/>
      <point x="136.25301204819277" y="502.34939759036143" type="line"/>
      <point x="51.25301204819277" y="502.34939759036143" type="line"/>
      <point x="189.19277108433732" y="-10.710843373493976" type="line"/>
      <point x="193.07228915662648" y="23.44578313253012" type="line"/>
      <point x="158.5421686746988" y="-36.084337349397586" type="line" smooth="yes"/>
      <point x="115.36144578313252" y="-109.44578313253012"/>
      <point x="67.89156626506023" y="-139.2168674698795"/>
      <point x="-29.578313253012045" y="-159.80722891566265" type="curve"/>
    </contour>
  </outline>
</glyph>
<glyph name="z" format="2">
  <advance width="518.343373493976"/>
  <unicode hex="007A"/>
  <anchor x="218.51807228915663" y="0.0" name="bottom"/>
  <anchor x="295.51807228915663" y="484.0" name="top"/>
  <outline>
    <contour>
      <point x="9.590361445783131" y="0.0" type="line"/>
      <point x="435.27710843373495" y="0.0" type="line"/>
      <point x="445.50602409638554" y="63.25301204819277" type="line"/>
      <point x="98.18072289156628" y="63.25301204819277" type="line"/>
      <point x="94.77108433734941" y="40.32530120481928" type="line"/>
      <point x="494.4578313253012" y="447.9156626506024" type="line"/>
      <point x="503.2168674698795" y="502.34939759036143" type="line"/>
      <point x="89.06024096385542" y="502.34939759036143" type="line"/>
      <point x="78.83132530120481" y="439.09638554216866" type="line"/>
      <point x="412.68674698795184" y="439.09638554216866" type="line"/>
      <point x="416.09638554216866" y="460.0843373493976" type="line"/>
      <point x="18.349397590361445" y="54.433734939759034" type="line"/>
    </contour>
  </outline>
</glyph>
<glyph name="braceleft" format="2">
  <advance width="354.6566265060241"/>
  <unicode hex="007B"/>
  <outline>
    <contour>
      <point x="201.97590361445782" y="-180.0" type="curve" smooth="yes"/>
      <point x="278.66265060240966" y="-180.0" type="line"/>
      <point x="288.89156626506025" y="-116.21686746987952" type="line"/>
      <point x="212.0602409638554" y="-116.21686746987952" type="line" smooth="yes"/>
      <point x="181.93975903614458" y="-116.21686746987952"/>
      <point x="170.5301204819277" y="-101.56626506024097"/>
      <point x="176.0" y="-70.62650602409639" type="curve" smooth="yes"/>
      <point x="210.83132530120483" y="157.95180722891567" type="line" smooth="yes"/>
      <point x="221.83132530120483" y="230.4819277108434"/>
      <point x="178.42168674698794" y="265.4698795180723"/>
      <point x="137.0120481927711" y="265.4698795180723" type="curve"/>
      <point x="137.0120481927711" y="261.4698795180723" type="line"/>
      <point x="178.89156626506025" y="261.4698795180723"/>
      <point x="234.18072289156626" y="294.578313253012"/>
      <point x="245.18072289156626" y="367.578313253012" type="curve" smooth="yes"/>
      <point x="281.0120481927711" y="595.6265060240963" type="line" smooth="yes"/>
      <point x="286.0120481927711" y="626.5662650602409"/>
      <point x="303.95180722891564" y="641.2168674698795"/>
      <point x="333.0722891566265" y="641.2168674698795" type="curve" smooth="yes"/>
      <point x="408.43373493975906" y="641.2168674698795" type="line"/>
      <point x="418.66265060240966" y="705.0" type="line"/>
      <point x="315.86746987951807" y="705.0" type="line" smooth="yes"/>
      <point x="251.81927710843374" y="705.0"/>
      <point x="213.24096385542168" y="670.2409638554217"/>
      <point x="202.36144578313252" y="602.0843373493976" type="curve" smooth="yes"/>
      <point x="166.06024096385542" y="375.7469879518072" type="line" smooth="yes"/>
      <point x="157.06024096385542" y="322.1566265060241"/>
      <point x="136.4698795180723" y="299.56626506024094"/>
      <point x="82.6987951807229" y="296.09638554216866" type="curve" smooth="yes"/>
      <point x="52.65060240963856" y="293.6867469879518" type="line"/>
      <point x="43.42168674698795" y="231.8433734939759" type="line"/>
      <point x="71.93975903614458" y="229.43373493975906" type="line" smooth="yes"/>
      <point x="126.71084337349397" y="225.96385542168676"/>
      <point x="137.83132530120483" y="202.8433734939759"/>
      <point x="129.83132530120483" y="149.3132530120482" type="curve" smooth="yes"/>
      <point x="94.53012048192771" y="-77.08433734939759" type="line" smooth="yes"/>
      <point x="84.12048192771084" y="-141.13253012048193"/>
      <point x="118.63855421686746" y="-180.0"/>
    </contour>
  </outline>
</glyph>
<glyph name="bar" format="2">
  <advance width="263.9759036144578"/>
  <unicode hex="007C"/>
  <outline>
    <contour>
      <point x="22.722891566265062" y="-180.0" type="line"/>
      <point x="103.72289156626505" y="-180.0" type="line"/>
      <point x="243.72289156626505" y="705.0" type="line"/>
      <point x="162.72289156626505" y="705.0" type="line"/>
    </contour>
  </outline>
</glyph>
<glyph name="braceright" format="2">
  <advance width="354.6566265060241"/>
  <unicode hex="007D"/>
  <outline>
    <contour>
      <point x="-60.71084337349397" y="-180.0" type="line"/>
      <point x="42.55421686746988" y="-180.0" type="line" smooth="yes"/>
      <point x="106.6024096385542" y="-180.0"/>
      <point x="145.65060240963857" y="-145.24096385542168"/>
      <point x="156.53012048192772" y="-77.08433734939759" type="curve" smooth="yes"/>
      <point x="192.83132530120483" y="149.25301204819277" type="line" smooth="yes"/>
      <point x="201.36144578313255" y="202.31325301204816"/>
      <point x="221.42168674698794" y="225.90361445783134"/>
      <point x="276.1927710843373" y="229.3734939759036" type="curve" smooth="yes"/>
      <point x="305.2409638554217" y="231.3132530120482" type="line"/>
      <point x="314.4698795180723" y="293.6265060240964" type="line"/>
      <point x="286.48192771084337" y="295.56626506024094" type="line" smooth="yes"/>
      <point x="232.710843373494" y="299.0361445783132"/>
      <point x="220.59036144578315" y="321.6265060240964"/>
      <point x="228.59036144578315" y="375.6867469879518" type="curve" smooth="yes"/>
      <point x="264.3614457831326" y="602.0843373493976" type="line" smooth="yes"/>
      <point x="274.30120481927713" y="666.1325301204819"/>
      <point x="239.78313253012047" y="705.0"/>
      <point x="156.44578313253015" y="705.0" type="curve" smooth="yes"/>
      <point x="79.75903614457832" y="705.0" type="line"/>
      <point x="69.53012048192771" y="641.2168674698795" type="line"/>
      <point x="146.83132530120483" y="641.2168674698795" type="line" smooth="yes"/>
      <point x="175.95180722891564" y="641.2168674698795"/>
      <point x="187.89156626506025" y="626.5662650602409"/>
      <point x="182.89156626506025" y="595.6265060240963" type="curve" smooth="yes"/>
      <point x="147.59036144578315" y="367.51807228915663" type="line" smooth="yes"/>
      <point x="136.59036144578315" y="294.51807228915663"/>
      <point x="179.4698795180723" y="260.0"/>
      <point x="221.87951807228913" y="260.0" type="curve"/>
      <point x="221.40963855421685" y="264.0" type="line"/>
      <point x="179.0" y="264.0"/>
      <point x="124.24096385542168" y="230.42168674698794"/>
      <point x="113.24096385542168" y="157.42168674698794" type="curve" smooth="yes"/>
      <point x="77.40963855421687" y="-70.62650602409639" type="line" smooth="yes"/>
      <point x="72.40963855421687" y="-101.56626506024097"/>
      <point x="53.93975903614457" y="-116.21686746987952"/>
      <point x="24.81927710843373" y="-116.21686746987952" type="curve" smooth="yes"/>
      <point x="-51.01204819277108" y="-116.21686746987952" type="line"/>
    </contour>
  </outline>
</glyph>
<glyph name="asciitilde" format="2">
  <advance width="600.0"/>
  <unicode hex="007E"/>
  <outline>
    <contour>
      <point x="420.18072289156623" y="216.95180722891567" type="curve" smooth="yes"/>
      <point x="480.18072289156623" y="216.95180722891567"/>
      <point x="522.4698795180723" y="251.2409638554217"/>
      <point x="557.0602409638554" y="312.0602409638554" type="curve"/>
      <point x="510.90361445783134" y="342.8072289156627" type="line"/>
      <point x="488.90361445783134" y="305.39759036144574"/>
      <point x="458.72289156626505" y="277.09638554216866"/>
      <point x="414.3614457831325" y="277.09638554216866" type="curve" smooth="yes"/>
      <point x="384.65060240963857" y="277.09638554216866"/>
      <point x="356.5903614457831" y="293.6867469879518"/>
      <point x="321.0" y="313.33734939759034" type="curve" smooth="yes"/>
      <point x="283.5301204819277" y="333.92771084337346"/>
      <point x="237.93975903614458" y="357.51807228915663"/>
      <point x="191.34939759036143" y="357.51807228915663" type="curve" smooth="yes"/>
      <point x="131.34939759036146" y="357.51807228915663"/>
      <point x="89.53012048192771" y="323.2289156626506"/>
      <point x="54.93975903614458" y="261.9397590361446" type="curve"/>
      <point x="101.09638554216868" y="231.66265060240963" type="line"/>
      <point x="122.62650602409639" y="268.60240963855426"/>
      <point x="153.27710843373495" y="297.3734939759036"/>
      <point x="197.16867469879517" y="297.3734939759036" type="curve" smooth="yes"/>
      <point x="226.87951807228916" y="297.3734939759036"/>
      <point x="257.9397590361446" y="280.2530120481928"/>
      <point x="293.5301204819277" y="260.1325301204819" type="curve" smooth="yes"/>
      <point x="330.5301204819277" y="239.5421686746988"/>
      <point x="374.0602409638554" y="216.95180722891567"/>
    </contour>
  </outline>
</glyph>
<glyph name="exclamdown" format="2">
  <advance width="228.3855421686747"/>
  <unicode hex="00A1"/>
  <outline>
    <contour>
      <point x="-5.036144578313255" y="-180.0" type="line"/>
      <point x="95.42168674698794" y="-180.0" type="line"/>
      <point x="149.91566265060243" y="319.26506024096386" type="line"/>
      <point x="99.89156626506023" y="319.26506024096386" type="line"/>
    </contour>
    <contour>
      <point x="86.3132530120482" y="400.3975903614458" type="line"/>
      <point x="188.67469879518072" y="400.3975903614458" type="line"/>
      <point x="204.8433734939759" y="502.34939759036143" type="line"/>
      <point x="102.48192771084338" y="502.34939759036143" type="line"/>
    </contour>
  </outline>
</glyph>
<glyph name="cent" format="2">
  <advance width="600.0"/>
  <unicode hex="00A2"/>
  <outline>
    <contour>
      <point x="223.90361445783134" y="-115.0" type="line"/>
      <point x="292.09638554216866" y="-115.0" type="line"/>
      <point x="312.0361445783132" y="13.168674698795181" type="line"/>
      <point x="290.10843373493975" y="-8.93975903614458" type="line"/>
      <point x="361.86746987951807" y="-10.349397590361447"/>
      <point x="438.7469879518072" y="14.180722891566266"/>
      <point x="483.1566265060241" y="53.77108433734939" type="curve"/>
      <point x="455.1084337349398" y="111.20481927710843" type="line"/>
      <point x="411.3975903614458" y="73.8433734939759"/>
      <point x="358.1566265060241" y="57.78313253012048"/>
      <point x="311.79518072289153" y="57.78313253012048" type="curve" smooth="yes"/>
      <point x="208.72289156626505" y="57.78313253012048"/>
      <point x="154.7710843373494" y="127.0843373493976"/>
      <point x="174.95180722891567" y="245.8192771084337" type="curve" smooth="yes"/>
      <point x="194.13253012048193" y="361.8433734939759"/>
      <point x="267.6144578313253" y="425.0361445783132"/>
      <point x="367.9879518072289" y="425.0361445783132" type="curve" smooth="yes"/>
      <point x="410.10843373493975" y="425.0361445783132"/>
      <point x="457.1686746987952" y="410.9759036144578"/>
      <point x="492.87951807228916" y="378.2048192771084" type="curve"/>
      <point x="524.3373493975904" y="433.0481927710843" type="line"/>
      <point x="490.3975903614458" y="470.6987951807229"/>
      <point x="432.9277108433735" y="489.8192771084337"/>
      <point x="371.10843373493975" y="490.7590361445783" type="curve"/>
      <point x="384.09638554216866" y="467.06024096385545" type="line"/>
      <point x="406.56626506024094" y="606.3493975903615" type="line"/>
      <point x="338.3734939759036" y="606.3493975903615" type="line"/>
      <point x="315.43373493975906" y="463.7710843373494" type="line"/>
      <point x="335.95180722891564" y="489.87951807228916" type="line"/>
      <point x="206.84337349397592" y="477.65060240963857"/>
      <point x="117.13253012048193" y="396.89156626506025"/>
      <point x="92.5421686746988" y="251.40963855421685" type="curve" smooth="yes"/>
      <point x="67.42168674698796" y="98.9277108433735"/>
      <point x="136.95180722891567" y="12.10843373493976"/>
      <point x="257.95180722891564" y="-4.590361445783133" type="curve"/>
      <point x="244.3132530120482" y="15.987951807228916" type="line"/>
    </contour>
  </outline>
</glyph>
<glyph name="sterling" format="2">
  <advance width="600.0"/>
  <unicode hex="00A3"/>
  <outline>
    <contour>
      <point x="6.180722891566262" y="0.0" type="line"/>
      <point x="523.2289156626506" y="0.0" type="line"/>
      <point x="534.3975903614457" y="70.01204819277109" type="line"/>
      <point x="118.34939759036145" y="70.01204819277109" type="line"/>
      <point x="117.34939759036145" y="64.48192771084338" type="line"/>
      <point x="171.24096385542168" y="84.66265060240964"/>
      <point x="211.19277108433735" y="124.90361445783132"/>
      <point x="222.3132530120482" y="198.6867469879518" type="curve" smooth="yes"/>
      <point x="243.02409638554218" y="326.13253012048193" type="line"/>
      <point x="427.4578313253012" y="326.13253012048193" type="line"/>
      <point x="436.27710843373495" y="381.3975903614458" type="line"/>
      <point x="251.3734939759036" y="381.3975903614458" type="line"/>
      <point x="271.55421686746985" y="505.54216867469876" type="line" smooth="yes"/>
      <point x="286.73493975903614" y="599.9759036144578"/>
      <point x="339.2771084337349" y="643.8072289156627"/>
      <point x="432.93975903614455" y="643.8072289156627" type="curve" smooth="yes"/>
      <point x="501.0120481927711" y="643.8072289156627"/>
      <point x="543.0120481927711" y="623.1566265060242"/>
      <point x="585.3614457831325" y="582.5060240963855" type="curve"/>
      <point x="620.1686746987953" y="641.7590361445783" type="line"/>
      <point x="576.8192771084337" y="689.4096385542169"/>
      <point x="512.0" y="713.9397590361446"/>
      <point x="430.65060240963857" y="713.9397590361446" type="curve" smooth="yes"/>
      <point x="295.7831325301205" y="713.9397590361446"/>
      <point x="211.14457831325302" y="644.8915662650602"/>
      <point x="189.20481927710844" y="510.2530120481928" type="curve" smooth="yes"/>
      <point x="168.49397590361446" y="381.3975903614458" type="line"/>
      <point x="66.12048192771084" y="381.3975903614458" type="line"/>
      <point x="57.3012048192771" y="326.13253012048193" type="line"/>
      <point x="159.67469879518075" y="326.13253012048193" type="line"/>
      <point x="135.49397590361446" y="174.51807228915663" type="line" smooth="yes"/>
      <point x="126.43373493975905" y="117.09638554216868"/>
      <point x="82.48192771084338" y="83.73493975903614"/>
      <point x="14.939759036144576" y="57.903614457831324" type="curve"/>
    </contour>
  </outline>
</glyph>
<glyph name="currency" format="2">
  <advance width="600.0"/>
  <unicode hex="00A4"/>
  <outline>
    <contour>
      <point x="112.28915662650603" y="-25.759036144578314" type="line"/>
      <point x="185.81927710843374" y="49.24096385542169" type="line"/>
      <point x="226.87951807228916" y="16.59036144578313"/>
      <point x="278.4698795180723" y="-3.0"/>
      <point x="334.5903614457832" y="-3.0" type="curve" smooth="yes"/>
      <point x="390.1807228915663" y="-3.0"/>
      <point x="441.2409638554217" y="16.06024096385542"/>
      <point x="481.7710843373494" y="49.18072289156626" type="curve"/>
      <point x="554.2409638554217" y="-25.289156626506024" type="line"/>
      <point x="597.289156626506" y="17.759036144578314" type="line"/>
      <point x="523.8192771084338" y="92.2289156626506" type="line"/>
      <point x="556.4698795180723" y="134.75903614457832"/>
      <point x="575.0602409638554" y="187.34939759036143"/>
      <point x="575.0602409638554" y="245.0" type="curve" smooth="yes"/>
      <point x="575.0602409638554" y="302.65060240963857"/>
      <point x="556.9397590361446" y="354.7710843373494"/>
      <point x="524.289156626506" y="397.8313253012048" type="curve"/>
      <point x="597.7590361445783" y="471.7710843373494" type="line"/>
      <point x="553.3012048192771" y="516.6987951807229" type="line"/>
      <point x="481.3614457831325" y="441.7590361445783" type="line"/>
      <point x="440.30120481927713" y="474.4096385542169"/>
      <point x="389.710843373494" y="493.0"/>
      <point x="334.5903614457832" y="493.0" type="curve" smooth="yes"/>
      <point x="278.93975903614455" y="493.0"/>
      <point x="226.81927710843374" y="473.4096385542169"/>
      <point x="186.28915662650604" y="440.2289156626506" type="curve"/>
      <point x="112.28915662650603" y="515.7590361445783" type="line"/>
      <point x="69.7710843373494" y="472.71084337349396" type="line"/>
      <point x="143.30120481927713" y="397.1807228915663" type="line"/>
      <point x="111.71084337349397" y="355.1807228915663"/>
      <point x="93.65060240963855" y="302.06024096385545"/>
      <point x="93.65060240963855" y="245.0" type="curve" smooth="yes"/>
      <point x="93.65060240963855" y="188.40963855421685"/>
      <point x="112.71084337349397" y="134.81927710843374"/>
      <point x="143.30120481927713" y="93.28915662650603" type="curve"/>
      <point x="69.7710843373494" y="17.759036144578314" type="line"/>
    </contour>
    <contour>
      <point x="334.06024096385545" y="67.25301204819277" type="curve" smooth="yes"/>
      <point x="241.21686746987953" y="67.25301204819277"/>
      <point x="166.96385542168676" y="146.50602409638554"/>
      <point x="166.96385542168676" y="245.0" type="curve" smooth="yes"/>
      <point x="166.96385542168676" y="343.96385542168673"/>
      <point x="241.68674698795184" y="422.6867469879518"/>
      <point x="334.06024096385545" y="423.2168674698795" type="curve" smooth="yes"/>
      <point x="426.49397590361446" y="423.7469879518072"/>
      <point x="500.68674698795184" y="343.96385542168673"/>
      <point x="500.68674698795184" y="245.0" type="curve" smooth="yes"/>
      <point x="500.68674698795184" y="146.50602409638554"/>
      <point x="426.49397590361446" y="67.25301204819277"/>
    </contour>
  </outline>
</glyph>
<glyph name="yen" format="2">
  <advance width="600.0"/>
  <unicode hex="00A5"/>
  <outline>
    <contour>
      <point x="218.7951807228916" y="0.0" type="line"/>
      <point x="301.2048192771084" y="0.0" type="line"/>
      <point x="329.79518072289153" y="178.19277108433735" type="line"/>
      <point x="516.3493975903615" y="178.19277108433735" type="line"/>
      <point x="524.6987951807229" y="232.04819277108433" type="line"/>
      <point x="338.14457831325296" y="232.04819277108433" type="line"/>
      <point x="353.79518072289153" y="331.0120481927711" type="line"/>
      <point x="540.3493975903615" y="331.0120481927711" type="line"/>
      <point x="548.6385542168674" y="384.86746987951807" type="line"/>
      <point x="388.5542168674699" y="384.86746987951807" type="line"/>
      <point x="387.0843373493976" y="374.10843373493975" type="line"/>
      <point x="676.8674698795181" y="705.0" type="line"/>
      <point x="581.1084337349398" y="705.0" type="line"/>
      <point x="307.0" y="389.72289156626505" type="line"/>
      <point x="328.578313253012" y="389.72289156626505" type="line"/>
      <point x="155.48192771084337" y="705.0" type="line"/>
      <point x="67.13253012048193" y="705.0" type="line"/>
      <point x="252.32530120481928" y="374.10843373493975" type="line"/>
      <point x="253.79518072289156" y="384.86746987951807" type="line"/>
      <point x="93.12048192771084" y="384.86746987951807" type="line"/>
      <point x="84.83132530120481" y="331.0120481927711" type="line"/>
      <point x="271.3855421686747" y="331.0120481927711" type="line"/>
      <point x="255.73493975903617" y="232.04819277108433" type="line"/>
      <point x="69.18072289156626" y="232.04819277108433" type="line"/>
      <point x="60.831325301204814" y="178.19277108433735" type="line"/>
      <point x="246.91566265060243" y="178.19277108433735" type="line"/>
    </contour>
  </outline>
</glyph>
<glyph name="brokenbar" format="2">
  <advance width="263.9759036144578"/>
  <unicode hex="00A6"/>
  <outline>
    <contour>
      <point x="109.72289156626506" y="372.0" type="line"/>
      <point x="190.72289156626505" y="372.0" type="line"/>
      <point x="243.72289156626505" y="705.0" type="line"/>
      <point x="162.72289156626505" y="705.0" type="line"/>
    </contour>
    <contour>
      <point x="22.722891566265062" y="-180.0" type="line"/>
      <point x="103.72289156626505" y="-180.0" type="line"/>
      <point x="156.72289156626505" y="153.46987951807228" type="line"/>
      <point x="75.72289156626506" y="153.46987951807228" type="line"/>
    </contour>
  </outline>
</glyph>
<glyph name="section" format="2">
  <advance width="542.1987951807229"/>
  <unicode hex="00A7"/>
  <outline>
    <contour>
      <point x="201.38554216867468" y="-188.93975903614458" type="curve" smooth="yes"/>
      <point x="325.08433734939763" y="-188.93975903614458"/>
      <point x="425.7831325301205" y="-114.81927710843374"/>
      <point x="425.7831325301205" y="0.1084337349397595" type="curve" smooth="yes"/>
      <point x="425.7831325301205" y="25.457831325301203"/>
      <point x="421.3734939759036" y="47.86746987951807"/>
      <point x="410.0240963855422" y="69.27710843373494" type="curve"/>
      <point x="407.5542168674699" y="54.51807228915663" type="line"/>
      <point x="465.7831325301205" y="91.4578313253012"/>
      <point x="498.13253012048193" y="145.98795180722894"/>
      <point x="498.13253012048193" y="205.50602409638554" type="curve" smooth="yes"/>
      <point x="498.13253012048193" y="264.9759036144579"/>
      <point x="458.07228915662654" y="315.3855421686747"/>
      <point x="377.89156626506025" y="361.56626506024094" type="curve" smooth="yes"/>
      <point x="278.67469879518075" y="418.73493975903614" type="line" smooth="yes"/>
      <point x="222.13253012048193" y="451.6265060240964"/>
      <point x="200.95180722891567" y="478.33734939759034"/>
      <point x="200.95180722891567" y="529.9397590361446" type="curve" smooth="yes"/>
      <point x="200.95180722891567" y="599.1325301204819"/>
      <point x="256.49397590361446" y="651.9156626506024"/>
      <point x="348.578313253012" y="651.9156626506024" type="curve" smooth="yes"/>
      <point x="408.8192771084337" y="651.9156626506024"/>
      <point x="474.289156626506" y="629.9156626506025"/>
      <point x="512.9879518072289" y="593.2650602409639" type="curve"/>
      <point x="542.0361445783133" y="647.8192771084338" type="line"/>
      <point x="492.4578313253012" y="693.9397590361447"/>
      <point x="422.6385542168675" y="713.9397590361446"/>
      <point x="346.6385542168675" y="713.9397590361446" type="curve" smooth="yes"/>
      <point x="221.93975903614458" y="713.9397590361446"/>
      <point x="121.24096385542168" y="639.3493975903615"/>
      <point x="121.24096385542168" y="525.8313253012049" type="curve" smooth="yes"/>
      <point x="121.24096385542168" y="501.0120481927711"/>
      <point x="125.65060240963855" y="479.6024096385542"/>
      <point x="135.06024096385542" y="458.13253012048193" type="curve"/>
      <point x="138.0" y="469.54216867469876" type="line"/>
      <point x="79.7710843373494" y="432.0722891566265"/>
      <point x="48.36144578313253" y="379.0120481927711"/>
      <point x="48.36144578313253" y="319.49397590361446" type="curve" smooth="yes"/>
      <point x="48.36144578313253" y="259.5542168674699"/>
      <point x="89.48192771084337" y="208.14457831325302"/>
      <point x="166.0722891566265" y="162.96385542168676" type="curve" smooth="yes"/>
      <point x="268.34939759036143" y="103.20481927710843" type="line" smooth="yes"/>
      <point x="323.3614457831325" y="70.3132530120482"/>
      <point x="346.07228915662654" y="46.66265060240964"/>
      <point x="346.07228915662654" y="-5.409638554216867" type="curve" smooth="yes"/>
      <point x="346.07228915662654" y="-74.13253012048193"/>
      <point x="290.5301204819277" y="-126.91566265060241"/>
      <point x="198.97590361445782" y="-126.91566265060241" type="curve" smooth="yes"/>
      <point x="126.144578313253" y="-126.91566265060241"/>
      <point x="63.44578313253012" y="-106.56626506024097"/>
      <point x="20.036144578313248" y="-66.44578313253012" type="curve"/>
      <point x="-12.891566265060238" y="-122.46987951807229" type="line"/>
      <point x="39.03614457831326" y="-165.40963855421685"/>
      <point x="111.20481927710843" y="-188.93975903614458"/>
    </contour>
    <contour>
      <point x="122.78313253012048" y="332.48192771084337" type="curve" smooth="yes"/>
      <point x="122.78313253012048" y="362.7228915662651"/>
      <point x="139.02409638554218" y="399.5542168674699"/>
      <point x="172.3855421686747" y="427.6144578313253" type="curve"/>
      <point x="160.6265060240964" y="425.7951807228916" type="line"/>
      <point x="177.80722891566265" y="398.3734939759036"/>
      <point x="207.6987951807229" y="377.5421686746988"/>
      <point x="244.7710843373494" y="354.1807228915663" type="curve" smooth="yes"/>
      <point x="330.86746987951807" y="304.48192771084337" type="line" smooth="yes"/>
      <point x="391.4698795180723" y="267.06024096385545"/>
      <point x="424.2409638554217" y="235.87951807228913"/>
      <point x="424.2409638554217" y="192.51807228915663" type="curve" smooth="yes"/>
      <point x="424.2409638554217" y="162.74698795180726"/>
      <point x="407.46987951807233" y="126.3855421686747"/>
      <point x="375.578313253012" y="98.73493975903615" type="curve"/>
      <point x="386.92771084337346" y="97.144578313253" type="line"/>
      <point x="369.7469879518072" y="123.56626506024097"/>
      <point x="340.855421686747" y="143.86746987951807"/>
      <point x="302.7831325301205" y="167.75903614457832" type="curve" smooth="yes"/>
      <point x="213.0963855421687" y="220.51807228915663" type="line" smooth="yes"/>
      <point x="154.55421686746988" y="255.93975903614458"/>
      <point x="122.78313253012048" y="288.65060240963857"/>
    </contour>
  </outline>
</glyph>
<glyph name="copyright" format="2">
  <advance width="815.0"/>
  <unicode hex="00A9"/>
  <outline>
    <contour>
      <point x="429.0" y="-8.939759036144578" type="curve" smooth="yes"/>
      <point x="633.4698795180723" y="-8.939759036144578"/>
      <point x="789.9397590361446" y="148.53012048192772"/>
      <point x="789.9397590361446" y="353.0" type="curve" smooth="yes"/>
      <point x="789.9397590361446" y="557.4698795180723"/>
      <point x="633.4698795180723" y="713.9397590361446"/>
      <point x="429.0" y="713.9397590361446" type="curve" smooth="yes"/>
      <point x="223.53012048192772" y="713.9397590361446"/>
      <point x="67.06024096385542" y="557.4698795180723"/>
      <point x="67.06024096385542" y="353.0" type="curve" smooth="yes"/>
      <point x="67.06024096385542" y="148.53012048192772"/>
      <point x="224.06024096385542" y="-8.939759036144578"/>
    </contour>
    <contour>
      <point x="441.7590361445783" y="137.0" type="curve" smooth="yes"/>
      <point x="493.2289156626506" y="137.0"/>
      <point x="550.6385542168674" y="157.59036144578315"/>
      <point x="584.6385542168674" y="190.24096385542168" type="curve"/>
      <point x="560.5301204819277" y="242.97590361445782" type="line"/>
      <point x="525.289156626506" y="210.67469879518072"/>
      <point x="484.04819277108436" y="196.6144578313253"/>
      <point x="445.4578313253012" y="196.6144578313253" type="curve" smooth="yes"/>
      <point x="358.2048192771084" y="196.6144578313253"/>
      <point x="305.7831325301205" y="257.2168674698795"/>
      <point x="305.7831325301205" y="354.5301204819277" type="curve" smooth="yes"/>
      <point x="305.7831325301205" y="452.3734939759036"/>
      <point x="358.2048192771084" y="508.855421686747"/>
      <point x="445.4578313253012" y="508.855421686747" type="curve" smooth="yes"/>
      <point x="484.04819277108436" y="508.855421686747"/>
      <point x="525.289156626506" y="494.855421686747"/>
      <point x="560.5301204819277" y="463.0240963855422" type="curve"/>
      <point x="584.6385542168674" y="515.2289156626506" type="line"/>
      <point x="550.6385542168674" y="547.8795180722891"/>
      <point x="494.7590361445783" y="568.0"/>
      <point x="441.7590361445783" y="568.0" type="curve" smooth="yes"/>
      <point x="313.0" y="568.0"/>
      <point x="234.24096385542168" y="487.0"/>
      <point x="234.24096385542168" y="355.06024096385545" type="curve" smooth="yes"/>
      <point x="234.24096385542168" y="223.59036144578315"/>
      <point x="313.0" y="137.0"/>
    </contour>
    <contour>
      <point x="429.0" y="35.04819277108434" type="curve" smooth="yes"/>
      <point x="248.81927710843374" y="35.04819277108434"/>
      <point x="112.98795180722891" y="172.75903614457832"/>
      <point x="112.98795180722891" y="353.0" type="curve" smooth="yes"/>
      <point x="112.98795180722891" y="533.2409638554217"/>
      <point x="248.81927710843374" y="669.9518072289156"/>
      <point x="429.0" y="669.9518072289156" type="curve" smooth="yes"/>
      <point x="607.710843373494" y="669.9518072289156"/>
      <point x="744.0120481927711" y="533.2409638554217"/>
      <point x="744.0120481927711" y="353.0" type="curve" smooth="yes"/>
      <point x="744.0120481927711" y="172.75903614457832"/>
      <point x="607.710843373494" y="35.04819277108434"/>
    </contour>
  </outline>
</glyph>
<glyph name="ordfeminine" format="2">
  <advance width="325.921686746988"/>
  <unicode hex="00AA"/>
  <outline>
    <contour>
      <point x="160.0" y="410.65060240963857" type="curve" smooth="yes"/>
      <point x="205.06024096385542" y="410.65060240963857"/>
      <point x="239.65060240963857" y="429.06024096385545"/>
      <point x="265.1807228915663" y="470.06024096385545" type="curve"/>
      <point x="267.65060240963857" y="470.06024096385545" type="line"/>
      <point x="259.1807228915663" y="416.12048192771084" type="line"/>
      <point x="312.3855421686747" y="416.12048192771084" type="line"/>
      <point x="340.3855421686747" y="590.7710843373494" type="line" smooth="yes"/>
      <point x="353.855421686747" y="674.1204819277109"/>
      <point x="314.50602409638554" y="713.9397590361446"/>
      <point x="229.75903614457832" y="713.9397590361446" type="curve" smooth="yes"/>
      <point x="186.34939759036146" y="713.9397590361446"/>
      <point x="136.18072289156626" y="702.4698795180723"/>
      <point x="100.71084337349397" y="682.4096385542168" type="curve"/>
      <point x="115.53012048192771" y="640.2530120481928" type="line"/>
      <point x="148.40963855421688" y="659.7831325301205"/>
      <point x="188.34939759036146" y="668.843373493976"/>
      <point x="222.4698795180723" y="668.843373493976" type="curve" smooth="yes"/>
      <point x="273.1807228915663" y="668.843373493976"/>
      <point x="293.3614457831325" y="646.6626506024097"/>
      <point x="286.7710843373494" y="603.1807228915662" type="curve" smooth="yes"/>
      <point x="277.7710843373494" y="545.710843373494" type="line" smooth="yes"/>
      <point x="268.18072289156623" y="487.69879518072287"/>
      <point x="226.34939759036143" y="452.9277108433735"/>
      <point x="174.33734939759037" y="452.9277108433735" type="curve" smooth="yes"/>
      <point x="132.3855421686747" y="452.9277108433735"/>
      <point x="116.26506024096386" y="474.6385542168675"/>
      <point x="121.32530120481928" y="504.9397590361446" type="curve" smooth="yes"/>
      <point x="125.855421686747" y="535.1807228915662"/>
      <point x="156.15662650602408" y="550.8313253012049"/>
      <point x="210.04819277108433" y="550.8313253012049" type="curve" smooth="yes"/>
      <point x="285.710843373494" y="550.8313253012049" type="line"/>
      <point x="292.12048192771084" y="586.8795180722891" type="line"/>
      <point x="215.86746987951807" y="586.8795180722891" type="line" smooth="yes"/>
      <point x="134.3012048192771" y="586.8795180722891"/>
      <point x="74.18072289156626" y="568.0"/>
      <point x="64.18072289156626" y="506.34939759036143" type="curve" smooth="yes"/>
      <point x="55.71084337349397" y="450.5903614457832"/>
      <point x="94.46987951807229" y="410.65060240963857"/>
    </contour>
  </outline>
</glyph>
<glyph name="logicalnot" format="2">
  <advance width="600.0"/>
  <unicode hex="00AC"/>
  <outline>
    <contour>
      <point x="466.6867469879518" y="149.0120481927711" type="line"/>
      <point x="530.6506024096386" y="149.0120481927711" type="line"/>
      <point x="573.4698795180723" y="419.8072289156627" type="line"/>
      <point x="79.81927710843374" y="419.8072289156627" type="line"/>
      <point x="70.06024096385542" y="357.7831325301205" type="line"/>
      <point x="500.2168674698795" y="357.7831325301205" type="line"/>
    </contour>
  </outline>
</glyph>
<glyph name="registered" format="2">
  <advance width="815.0"/>
  <unicode hex="00AE"/>
  <outline>
    <contour>
      <point x="429.0" y="-8.939759036144578" type="curve" smooth="yes"/>
      <point x="633.4698795180723" y="-8.939759036144578"/>
      <point x="789.9397590361446" y="148.53012048192772"/>
      <point x="789.9397590361446" y="353.0" type="curve" smooth="yes"/>
      <point x="789.9397590361446" y="557.4698795180723"/>
      <point x="633.4698795180723" y="713.9397590361446"/>
      <point x="429.0" y="713.9397590361446" type="curve" smooth="yes"/>
      <point x="223.53012048192772" y="713.9397590361446"/>
      <point x="67.06024096385542" y="557.4698795180723"/>
      <point x="67.06024096385542" y="353.0" type="curve" smooth="yes"/>
      <point x="67.06024096385542" y="148.53012048192772"/>
      <point x="224.06024096385542" y="-8.939759036144578"/>
    </contour>
    <contour>
      <point x="429.0" y="35.04819277108434" type="curve" smooth="yes"/>
      <point x="248.81927710843374" y="35.04819277108434"/>
      <point x="112.98795180722891" y="172.75903614457832"/>
      <point x="112.98795180722891" y="353.0" type="curve" smooth="yes"/>
      <point x="112.98795180722891" y="533.2409638554217"/>
      <point x="248.81927710843374" y="669.9518072289156"/>
      <point x="429.0" y="669.9518072289156" type="curve" smooth="yes"/>
      <point x="607.710843373494" y="669.9518072289156"/>
      <point x="744.0120481927711" y="533.2409638554217"/>
      <point x="744.0120481927711" y="353.0" type="curve" smooth="yes"/>
      <point x="744.0120481927711" y="172.75903614457832"/>
      <point x="607.710843373494" y="35.04819277108434"/>
    </contour>
    <contour>
      <point x="284.13253012048193" y="142.0" type="line"/>
      <point x="351.4457831325301" y="142.0" type="line"/>
      <point x="351.4457831325301" y="324.0120481927711" type="line"/>
      <point x="338.09638554216866" y="314.0722891566265" type="line"/>
      <point x="412.4698795180723" y="314.0722891566265" type="line" smooth="yes"/>
      <point x="447.3614457831325" y="314.0722891566265"/>
      <point x="471.66265060240966" y="305.0120481927711"/>
      <point x="484.84337349397595" y="271.7710843373494" type="curve" smooth="yes"/>
      <point x="533.3253012048193" y="142.0" type="line"/>
      <point x="601.6987951807229" y="142.0" type="line"/>
      <point x="553.6265060240964" y="269.72289156626505" type="line" smooth="yes"/>
      <point x="537.6265060240964" y="317.65060240963857"/>
      <point x="510.56626506024094" y="333.06024096385545"/>
      <point x="469.7469879518072" y="333.06024096385545" type="curve"/>
      <point x="457.81927710843377" y="323.12048192771084" type="line"/>
      <point x="546.2289156626506" y="323.12048192771084"/>
      <point x="596.6385542168674" y="365.12048192771084"/>
      <point x="596.6385542168674" y="441.5903614457831" type="curve" smooth="yes"/>
      <point x="596.6385542168674" y="517.1807228915662"/>
      <point x="546.289156626506" y="563.9397590361446"/>
      <point x="456.4698795180723" y="563.9397590361446" type="curve" smooth="yes"/>
      <point x="284.13253012048193" y="563.9397590361446" type="line"/>
    </contour>
    <contour>
      <point x="350.9759036144578" y="367.51807228915663" type="line"/>
      <point x="350.9759036144578" y="510.49397590361446" type="line"/>
      <point x="447.2409638554217" y="510.49397590361446" type="line" smooth="yes"/>
      <point x="504.90361445783134" y="510.49397590361446"/>
      <point x="531.6746987951808" y="487.72289156626505"/>
      <point x="531.6746987951808" y="439.2409638554217" type="curve" smooth="yes"/>
      <point x="531.6746987951808" y="389.7590361445783"/>
      <point x="504.3734939759036" y="367.51807228915663"/>
      <point x="447.2409638554217" y="367.51807228915663" type="curve" smooth="yes"/>
    </contour>
  </outline>
</glyph>
<glyph name="degree" format="2">
  <advance width="371.04819277108436"/>
  <unicode hex="00B0"/>
  <outline>
    <contour>
      <point x="236.28915662650604" y="416.1325301204819" type="curve" smooth="yes"/>
      <point x="319.9879518072289" y="416.1325301204819"/>
      <point x="383.27710843373495" y="479.48192771084337"/>
      <point x="383.27710843373495" y="563.7710843373494" type="curve" smooth="yes"/>
      <point x="383.27710843373495" y="648.0602409638554"/>
      <point x="319.9879518072289" y="711.4096385542168"/>
      <point x="236.28915662650604" y="711.4096385542168" type="curve" smooth="yes"/>
      <point x="151.59036144578315" y="711.4096385542168"/>
      <point x="87.7710843373494" y="647.5301204819277"/>
      <point x="87.7710843373494" y="563.7710843373494" type="curve" smooth="yes"/>
      <point x="87.7710843373494" y="480.0120481927711"/>
      <point x="151.59036144578315" y="416.1325301204819"/>
    </contour>
    <contour>
      <point x="236.28915662650604" y="470.69879518072287" type="curve" smooth="yes"/>
      <point x="183.4578313253012" y="470.69879518072287"/>
      <point x="146.74698795180723" y="509.4096385542168"/>
      <point x="146.74698795180723" y="563.7710843373494" type="curve" smooth="yes"/>
      <point x="146.74698795180723" y="618.1325301204819"/>
      <point x="183.4578313253012" y="656.8433734939758"/>
      <point x="236.28915662650604" y="656.8433734939758" type="curve" smooth="yes"/>
      <point x="288.65060240963857" y="656.8433734939758"/>
      <point x="324.8313253012048" y="618.1325301204819"/>
      <point x="324.8313253012048" y="563.7710843373494" type="curve" smooth="yes"/>
      <point x="324.8313253012048" y="509.4096385542168"/>
      <point x="288.65060240963857" y="470.69879518072287"/>
    </contour>
  </outline>
</glyph>
<glyph name="plusminus" format="2">
  <advance width="600.0"/>
  <unicode hex="00B1"/>
  <outline>
    <contour>
      <point x="249.19277108433735" y="127.33734939759036" type="line"/>
      <point x="313.15662650602405" y="127.33734939759036" type="line"/>
      <point x="339.8072289156626" y="297.3614457831325" type="line"/>
      <point x="553.1204819277109" y="297.3614457831325" type="line"/>
      <point x="561.3493975903615" y="359.3855421686747" type="line"/>
      <point x="350.09638554216866" y="359.3855421686747" type="line"/>
      <point x="376.7469879518072" y="529.4096385542168" type="line"/>
      <point x="312.7831325301205" y="529.4096385542168" type="line"/>
      <point x="286.13253012048193" y="359.3855421686747" type="line"/>
      <point x="69.75903614457832" y="359.3855421686747" type="line"/>
      <point x="60.0" y="297.3614457831325" type="line"/>
      <point x="275.8433734939759" y="297.3614457831325" type="line"/>
    </contour>
    <contour>
      <point x="12.93975903614458" y="0.0" type="line"/>
      <point x="506.06024096385545" y="0.0" type="line"/>
      <point x="515.8192771084338" y="62.024096385542165" type="line"/>
      <point x="22.698795180722893" y="62.024096385542165" type="line"/>
    </contour>
  </outline>
</glyph>
<glyph name="micro" format="2">
  <advance width="570.1626506024096"/>
  <unicode hex="00B5"/>
  <outline>
    <contour>
      <point x="1.253012048192773" y="-216.0" type="line"/>
      <point x="82.72289156626505" y="-216.0" type="line"/>
      <point x="118.49397590361447" y="57.72289156626506" type="line"/>
      <point x="113.31325301204818" y="56.19277108433735" type="line"/>
      <point x="133.02409638554218" y="13.240963855421688"/>
      <point x="176.4457831325301" y="-8.939759036144578"/>
      <point x="234.04819277108433" y="-8.939759036144578" type="curve" smooth="yes"/>
      <point x="311.4216867469879" y="-8.939759036144578"/>
      <point x="370.6144578313253" y="37.30120481927711"/>
      <point x="399.85542168674704" y="112.07228915662651" type="curve"/>
      <point x="392.144578313253" y="112.07228915662651" type="line"/>
      <point x="374.5542168674699" y="0.0" type="line"/>
      <point x="453.6144578313253" y="0.0" type="line"/>
      <point x="531.0843373493976" y="502.34939759036143" type="line"/>
      <point x="450.0843373493976" y="502.34939759036143" type="line"/>
      <point x="408.0843373493976" y="226.87951807228916" type="line" smooth="yes"/>
      <point x="392.433734939759" y="124.44578313253012"/>
      <point x="334.3614457831325" y="58.25301204819277"/>
      <point x="239.74698795180723" y="58.25301204819277" type="curve" smooth="yes"/>
      <point x="164.96385542168676" y="58.25301204819277"/>
      <point x="133.01204819277106" y="102.20481927710844"/>
      <point x="147.66265060240963" y="197.289156626506" type="curve" smooth="yes"/>
      <point x="194.19277108433732" y="502.34939759036143" type="line"/>
      <point x="113.19277108433735" y="502.34939759036143" type="line"/>
    </contour>
  </outline>
</glyph>
<glyph name="paragraph" format="2">
  <advance width="598.8975903614457"/>
  <unicode hex="00B6"/>
  <outline>
    <contour>
      <point x="181.81927710843374" y="-180.0" type="line"/>
      <point x="246.8433734939759" y="-180.0" type="line"/>
      <point x="377.0843373493976" y="642.0963855421687" type="line"/>
      <point x="507.27710843373495" y="642.0963855421687" type="line"/>
      <point x="377.03614457831327" y="-180.0" type="line"/>
      <point x="442.06024096385545" y="-180.0" type="line"/>
      <point x="582.0602409638554" y="705.0" type="line"/>
      <point x="317.2289156626506" y="705.0" type="line" smooth="yes"/>
      <point x="181.24096385542168" y="705.0"/>
      <point x="84.13253012048193" y="614.3012048192771"/>
      <point x="84.13253012048193" y="479.90361445783134" type="curve" smooth="yes"/>
      <point x="84.13253012048193" y="383.855421686747"/>
      <point x="150.83132530120483" y="309.1566265060241"/>
      <point x="259.06024096385545" y="309.1566265060241" type="curve"/>
    </contour>
  </outline>
</glyph>
<glyph name="periodcentered" format="2">
  <advance width="231.3855421686747"/>
  <unicode hex="00B7"/>
  <outline>
    <contour>
      <point x="59.66265060240964" y="222.96385542168676" type="line"/>
      <point x="163.02409638554218" y="222.96385542168676" type="line"/>
      <point x="178.72289156626505" y="325.3855421686747" type="line"/>
      <point x="75.83132530120483" y="325.3855421686747" type="line"/>
    </contour>
  </outline>
</glyph>
<glyph name="ordmasculine" format="2">
  <advance width="341.1566265060241"/>
  <unicode hex="00BA"/>
  <outline>
    <contour>
      <point x="201.51807228915663" y="411.12048192771084" type="curve" smooth="yes"/>
      <point x="286.9759036144578" y="411.12048192771084"/>
      <point x="350.4457831325301" y="464.4698795180723"/>
      <point x="364.9759036144578" y="556.5903614457832" type="curve" smooth="yes"/>
      <point x="380.9759036144578" y="658.0602409638554"/>
      <point x="326.15662650602405" y="713.9397590361446"/>
      <point x="237.63855421686748" y="713.9397590361446" type="curve" smooth="yes"/>
      <point x="152.65060240963857" y="713.9397590361446"/>
      <point x="88.18072289156626" y="661.0602409638554"/>
      <point x="74.18072289156626" y="568.9397590361446" type="curve" smooth="yes"/>
      <point x="59.18072289156626" y="468.4698795180723"/>
      <point x="113.46987951807229" y="411.12048192771084"/>
    </contour>
    <contour>
      <point x="204.4578313253012" y="457.1566265060241" type="curve" smooth="yes"/>
      <point x="148.44578313253012" y="457.1566265060241"/>
      <point x="120.20481927710844" y="493.9879518072289"/>
      <point x="131.26506024096386" y="563.0" type="curve" smooth="yes"/>
      <point x="141.855421686747" y="632.0120481927711"/>
      <point x="182.21686746987953" y="668.3734939759036"/>
      <point x="235.1686746987952" y="668.3734939759036" type="curve" smooth="yes"/>
      <point x="290.710843373494" y="668.3734939759036"/>
      <point x="318.95180722891564" y="631.5421686746988"/>
      <point x="308.3614457831325" y="563.0" type="curve" smooth="yes"/>
      <point x="297.3012048192771" y="494.4578313253012"/>
      <point x="256.93975903614455" y="457.1566265060241"/>
    </contour>
  </outline>
</glyph>
<glyph name="questiondown" format="2">
  <advance width="447.3313253012048"/>
  <unicode hex="00BF"/>
  <outline>
    <contour>
      <point x="151.57831325301206" y="-208.3012048192771" type="curve" smooth="yes"/>
      <point x="203.80722891566265" y="-208.3012048192771"/>
      <point x="262.3253012048193" y="-196.4819277108434"/>
      <point x="309.144578313253" y="-172.66265060240963" type="curve"/>
      <point x="320.8433734939759" y="-98.0" type="line"/>
      <point x="274.49397590361446" y="-121.87951807228916"/>
      <point x="224.7349397590361" y="-137.2289156626506"/>
      <point x="171.20481927710844" y="-137.2289156626506" type="curve" smooth="yes"/>
      <point x="106.0722891566265" y="-137.2289156626506"/>
      <point x="67.65060240963855" y="-109.39759036144578"/>
      <point x="67.65060240963855" y="-61.32530120481927" type="curve" smooth="yes"/>
      <point x="67.65060240963855" y="0.4578313253012044"/>
      <point x="116.78313253012048" y="55.59036144578313"/>
      <point x="161.02409638554218" y="96.89156626506023" type="curve" smooth="yes"/>
      <point x="244.0963855421687" y="175.0843373493976"/>
      <point x="270.7469879518072" y="226.32530120481928"/>
      <point x="281.7469879518072" y="292.6265060240964" type="curve" smooth="yes"/>
      <point x="286.1566265060241" y="318.73493975903614" type="line"/>
      <point x="234.54216867469881" y="318.73493975903614" type="line"/>
      <point x="228.13253012048193" y="297.20481927710847" type="line" smooth="yes"/>
      <point x="214.6024096385542" y="246.0722891566265"/>
      <point x="186.36144578313255" y="201.83132530120483"/>
      <point x="108.7710843373494" y="133.28915662650604" type="curve" smooth="yes"/>
      <point x="46.5421686746988" y="79.57831325301204"/>
      <point x="-16.759036144578314" y="13.397590361445783"/>
      <point x="-16.759036144578314" y="-75.25301204819277" type="curve" smooth="yes"/>
      <point x="-16.759036144578314" y="-156.0120481927711"/>
      <point x="49.34939759036145" y="-208.3012048192771"/>
    </contour>
    <contour>
      <point x="341.5542168674699" y="502.34939759036143" type="line"/>
      <point x="238.72289156626505" y="502.34939759036143" type="line"/>
      <point x="222.55421686746988" y="400.3975903614458" type="line"/>
      <point x="325.3855421686747" y="400.3975903614458" type="line"/>
    </contour>
  </outline>
</glyph>
<glyph name="AE" format="2">
  <advance width="1005.867469879518"/>
  <unicode hex="00C6"/>
  <anchor x="476.8795180722891" y="0.0" name="bottom"/>
  <anchor x="588.3493975903615" y="705.0" name="top"/>
  <outline>
    <contour>
      <point x="-41.975903614457835" y="0.0" type="line"/>
      <point x="53.78313253012048" y="0.0" type="line"/>
      <point x="207.5542168674699" y="202.3012048192771" type="line"/>
      <point x="172.27710843373495" y="179.96385542168676" type="line"/>
      <point x="556.6506024096385" y="179.96385542168676" type="line"/>
      <point x="532.6506024096386" y="196.12048192771084" type="line"/>
      <point x="519.710843373494" y="0.0" type="line"/>
      <point x="915.9156626506024" y="0.0" type="line"/>
      <point x="926.6144578313252" y="68.60240963855422" type="line"/>
      <point x="593.0722891566264" y="68.60240963855422" type="line"/>
      <point x="600.8313253012049" y="45.373493975903614" type="line"/>
      <point x="619.4216867469879" y="333.43373493975906" type="line"/>
      <point x="605.2530120481928" y="323.43373493975906" type="line"/>
      <point x="946.0963855421686" y="323.43373493975906" type="line"/>
      <point x="956.7951807228916" y="392.03614457831327" type="line"/>
      <point x="608.710843373494" y="392.03614457831327" type="line"/>
      <point x="622.8313253012049" y="369.7590361445783" type="line"/>
      <point x="642.3614457831326" y="659.4578313253012" type="line"/>
      <point x="616.9518072289156" y="636.8674698795181" type="line"/>
      <point x="1016.2168674698795" y="636.8674698795181" type="line"/>
      <point x="1027.9156626506024" y="705.0" type="line"/>
      <point x="499.6024096385542" y="705.0" type="line"/>
    </contour>
    <contour>
      <point x="533.6987951807229" y="635.8674698795181" type="line"/>
      <point x="563.5903614457831" y="635.8674698795181" type="line"/>
      <point x="536.1204819277109" y="227.34939759036143" type="line"/>
      <point x="547.8795180722892" y="248.56626506024097" type="line"/>
      <point x="217.5421686746988" y="248.56626506024097" type="line"/>
      <point x="226.6024096385542" y="228.6987951807229" type="line"/>
    </contour>
  </outline>
</glyph>
<glyph name="multiply" format="2">
  <advance width="600.0"/>
  <unicode hex="00D7"/>
  <outline>
    <contour>
      <point x="107.91566265060241" y="49.93975903614458" type="line"/>
      <point x="314.5301204819277" y="239.96385542168673" type="line"/>
      <point x="487.96385542168673" y="49.93975903614458" type="line"/>
      <point x="532.4096385542168" y="93.91566265060241" type="line"/>
      <point x="360.50602409638554" y="283.4096385542168" type="line"/>
      <point x="568.6506024096385" y="474.49397590361446" type="line"/>
      <point x="525.6144578313254" y="518.9397590361446" type="line"/>
      <point x="319.0" y="328.9156626506024" type="line"/>
      <point x="145.56626506024097" y="518.9397590361446" type="line"/>
      <point x="100.65060240963855" y="474.49397590361446" type="line"/>
      <point x="272.5542168674699" y="286.4698795180723" type="line"/>
      <point x="64.40963855421687" y="93.91566265060241" type="line"/>
    </contour>
  </outline>
</glyph>
<glyph name="Thorn" format="2">
  <advance width="651.6265060240964"/>
  <unicode hex="00DE"/>
  <anchor x="284.8072289156627" y="0.0" name="bottom"/>
  <anchor x="396.33734939759034" y="705.0" name="top"/>
  <outline>
    <contour>
      <point x="48.07228915662651" y="0.0" type="line"/>
      <point x="130.95180722891567" y="0.0" type="line"/>
      <point x="157.0120481927711" y="166.3012048192771" type="line"/>
      <point x="368.7469879518072" y="166.3012048192771" type="line" smooth="yes"/>
      <point x="511.08433734939763" y="166.3012048192771"/>
      <point x="603.144578313253" y="234.87951807228916"/>
      <point x="622.144578313253" y="356.4096385542169" type="curve" smooth="yes"/>
      <point x="642.6144578313252" y="489.1686746987952"/>
      <point x="570.7349397590361" y="569.8072289156627"/>
      <point x="416.6867469879518" y="569.8072289156627" type="curve" smooth="yes"/>
      <point x="221.36144578313252" y="569.8072289156627" type="line"/>
      <point x="242.95180722891567" y="705.0" type="line"/>
      <point x="160.0722891566265" y="705.0" type="line"/>
    </contour>
    <contour>
      <point x="167.710843373494" y="234.90361445783134" type="line"/>
      <point x="210.13253012048193" y="501.67469879518075" type="line"/>
      <point x="405.2289156626506" y="501.67469879518075" type="line" smooth="yes"/>
      <point x="508.66265060240966" y="501.67469879518075"/>
      <point x="555.2048192771085" y="453.1927710843373"/>
      <point x="540.5542168674699" y="362.7590361445783" type="curve" smooth="yes"/>
      <point x="526.9036144578314" y="277.3253012048193"/>
      <point x="466.710843373494" y="234.90361445783134"/>
      <point x="363.2168674698795" y="234.90361445783134" type="curve" smooth="yes"/>
    </contour>
  </outline>
</glyph>
<glyph name="germandbls" format="2">
  <advance width="634.0060240963855"/>
  <unicode hex="00DF"/>
  <outline>
    <contour>
      <point x="38.60240963855422" y="0.0" type="line"/>
      <point x="119.6024096385542" y="0.0" type="line"/>
      <point x="199.19277108433735" y="501.66265060240966" type="line" smooth="yes"/>
      <point x="218.25301204819277" y="623.0240963855421"/>
      <point x="275.96385542168673" y="678.5060240963855"/>
      <point x="380.21686746987956" y="678.5060240963855" type="curve" smooth="yes"/>
      <point x="463.28915662650604" y="678.5060240963855"/>
      <point x="501.46987951807233" y="636.2650602409639"/>
      <point x="489.4096385542169" y="563.722891566265" type="curve" smooth="yes"/>
      <point x="479.81927710843377" y="499.1807228915663"/>
      <point x="434.9277108433735" y="445.1686746987952"/>
      <point x="299.6144578313253" y="397.6265060240964" type="curve"/>
      <point x="289.3855421686747" y="332.8433734939759" type="line"/>
      <point x="475.16867469879514" y="282.0120481927711"/>
      <point x="518.6987951807229" y="226.710843373494"/>
      <point x="508.1084337349397" y="156.16867469879517" type="curve" smooth="yes"/>
      <point x="497.98795180722885" y="90.3855421686747"/>
      <point x="448.9156626506024" y="54.493975903614455"/>
      <point x="375.1927710843374" y="54.493975903614455" type="curve" smooth="yes"/>
      <point x="318.48192771084337" y="54.493975903614455"/>
      <point x="272.0120481927711" y="71.02409638554217"/>
      <point x="227.0722891566265" y="102.67469879518073" type="curve"/>
      <point x="199.55421686746988" y="45.18072289156627" type="line"/>
      <point x="238.7831325301205" y="12.650602409638553"/>
      <point x="298.90361445783134" y="-8.939759036144578"/>
      <point x="376.0120481927711" y="-8.939759036144578" type="curve" smooth="yes"/>
      <point x="489.3614457831325" y="-8.939759036144578"/>
      <point x="570.4096385542168" y="50.65060240963856"/>
      <point x="585.8192771084337" y="148.57831325301206" type="curve" smooth="yes"/>
      <point x="603.2891566265059" y="258.7469879518072"/>
      <point x="533.1807228915662" y="328.9879518072289"/>
      <point x="361.04819277108436" y="378.69879518072287" type="curve"/>
      <point x="360.6385542168675" y="361.5903614457831" type="line"/>
      <point x="500.7590361445783" y="413.18072289156623"/>
      <point x="553.0" y="485.30120481927713"/>
      <point x="565.0602409638554" y="563.1325301204819" type="curve" smooth="yes"/>
      <point x="583.4698795180723" y="678.5903614457832"/>
      <point x="509.72289156626505" y="741.8795180722891"/>
      <point x="385.9156626506024" y="741.8795180722891" type="curve" smooth="yes"/>
      <point x="230.18072289156626" y="741.8795180722891"/>
      <point x="143.13253012048193" y="659.3012048192771"/>
      <point x="116.78313253012048" y="493.0843373493976" type="curve" smooth="yes"/>
    </contour>
  </outline>
</glyph>
<glyph name="ae" format="2">
  <advance width="881.5421686746988"/>
  <unicode hex="00E6"/>
  <anchor x="388.48192771084337" y="0.0" name="bottom"/>
  <anchor x="472.06024096385545" y="484.0" name="top"/>
  <outline>
    <contour>
      <point x="209.06024096385542" y="-8.939759036144578" type="curve" smooth="yes"/>
      <point x="312.8313253012048" y="-8.939759036144578"/>
      <point x="389.0120481927711" y="49.89156626506024"/>
      <point x="425.421686746988" y="148.43373493975903" type="curve"/>
      <point x="403.2530120481928" y="148.43373493975903" type="line"/>
      <point x="423.7710843373494" y="47.89156626506024"/>
      <point x="496.5903614457832" y="-8.939759036144578"/>
      <point x="615.1807228915663" y="-8.939759036144578" type="curve" smooth="yes"/>
      <point x="685.0602409638554" y="-8.939759036144578"/>
      <point x="760.710843373494" y="14.710843373493976"/>
      <point x="811.0602409638554" y="57.89156626506024" type="curve"/>
      <point x="782.9518072289156" y="114.855421686747" type="line"/>
      <point x="733.8915662650602" y="72.96385542168674"/>
      <point x="679.0" y="56.8433734939759"/>
      <point x="623.2289156626506" y="56.8433734939759" type="curve" smooth="yes"/>
      <point x="507.8072289156627" y="56.8433734939759"/>
      <point x="454.3855421686747" y="125.3855421686747"/>
      <point x="471.50602409638554" y="248.46987951807228" type="curve" smooth="yes"/>
      <point x="474.9156626506024" y="271.92771084337346" type="line" smooth="yes"/>
      <point x="489.03614457831327" y="374.48192771084337"/>
      <point x="551.289156626506" y="450.73493975903614"/>
      <point x="653.3734939759036" y="450.73493975903614" type="curve" smooth="yes"/>
      <point x="747.3975903614457" y="450.73493975903614"/>
      <point x="788.289156626506" y="389.6024096385542"/>
      <point x="773.1686746987951" y="280.7590361445783" type="curve"/>
      <point x="790.6385542168674" y="295.16867469879514" type="line"/>
      <point x="463.4457831325301" y="295.16867469879514" type="line"/>
      <point x="455.56626506024094" y="244.01204819277106" type="line"/>
      <point x="836.2409638554217" y="244.01204819277106" type="line"/>
      <point x="840.710843373494" y="273.3614457831326" type="line" smooth="yes"/>
      <point x="861.6506024096385" y="414.12048192771084"/>
      <point x="792.3614457831325" y="511.28915662650604"/>
      <point x="657.8433734939758" y="511.28915662650604" type="curve" smooth="yes"/>
      <point x="568.4819277108434" y="511.28915662650604"/>
      <point x="491.0602409638554" y="466.7469879518072"/>
      <point x="444.30120481927713" y="385.73493975903614" type="curve"/>
      <point x="470.7590361445783" y="385.73493975903614" type="line"/>
      <point x="465.7710843373494" y="465.8072289156626"/>
      <point x="416.4216867469879" y="511.28915662650604"/>
      <point x="308.421686746988" y="511.28915662650604" type="curve" smooth="yes"/>
      <point x="235.42168674698794" y="511.28915662650604"/>
      <point x="157.8433734939759" y="489.7590361445783"/>
      <point x="100.37349397590361" y="453.10843373493975" type="curve"/>
      <point x="125.95180722891565" y="394.6746987951807" type="line"/>
      <point x="188.0120481927711" y="431.3855421686747"/>
      <point x="239.66265060240963" y="445.9759036144578"/>
      <point x="304.90361445783134" y="445.9759036144578" type="curve" smooth="yes"/>
      <point x="375.73493975903614" y="445.9759036144578"/>
      <point x="417.9759036144579" y="408.73493975903614"/>
      <point x="403.85542168674704" y="321.421686746988" type="curve" smooth="yes"/>
      <point x="385.7951807228916" y="206.18072289156626" type="line" smooth="yes"/>
      <point x="371.144578313253" y="114.27710843373494"/>
      <point x="308.0120481927711" y="52.084337349397586"/>
      <point x="219.6987951807229" y="52.084337349397586" type="curve" smooth="yes"/>
      <point x="148.09638554216866" y="52.084337349397586"/>
      <point x="110.67469879518073" y="91.97590361445783"/>
      <point x="120.26506024096386" y="150.57831325301203" type="curve" smooth="yes"/>
      <point x="131.91566265060243" y="225.0120481927711"/>
      <point x="212.0" y="243.48192771084337"/>
      <point x="348.9759036144578" y="243.48192771084337" type="curve" smooth="yes"/>
      <point x="401.79518072289153" y="243.48192771084337" type="line"/>
      <point x="409.14457831325296" y="293.6385542168674" type="line"/>
      <point x="357.6144578313253" y="293.6385542168674" type="line" smooth="yes"/>
      <point x="171.44578313253012" y="293.6385542168674"/>
      <point x="62.31325301204819" y="262.9397590361446"/>
      <point x="44.25301204819277" y="157.57831325301203" type="curve" smooth="yes"/>
      <point x="28.722891566265062" y="65.98795180722891"/>
      <point x="90.8433734939759" y="-8.939759036144578"/>
    </contour>
  </outline>
</glyph>
<glyph name="eth" format="2">
  <advance width="575.9698795180723"/>
  <unicode hex="00F0"/>
  <outline>
    <contour>
      <point x="252.27710843373492" y="-8.939759036144578" type="curve" smooth="yes"/>
      <point x="402.85542168674704" y="-8.939759036144578"/>
      <point x="502.3132530120482" y="89.53012048192771"/>
      <point x="531.2530120481928" y="269.7590361445783" type="curve" smooth="yes"/>
      <point x="553.843373493976" y="413.3614457831325"/>
      <point x="525.722891566265" y="545.8915662650602"/>
      <point x="440.7831325301205" y="637.8313253012049" type="curve"/>
      <point x="439.3734939759036" y="624.6024096385541" type="line"/>
      <point x="543.7831325301205" y="666.4819277108434" type="line"/>
      <point x="525.6144578313254" y="708.289156626506" type="line"/>
      <point x="400.855421686747" y="659.0" type="line"/>
      <point x="421.6144578313253" y="656.0" type="line"/>
      <point x="375.4457831325301" y="695.289156626506"/>
      <point x="314.4578313253012" y="725.6987951807229"/>
      <point x="238.24096385542168" y="742.8795180722891" type="curve"/>
      <point x="214.7831325301205" y="687.7951807228916" type="line"/>
      <point x="265.37349397590356" y="674.144578313253"/>
      <point x="310.3734939759036" y="652.0240963855422"/>
      <point x="346.8433734939759" y="623.9036144578313" type="curve"/>
      <point x="347.2530120481928" y="636.843373493976" type="line"/>
      <point x="164.95180722891567" y="564.843373493976" type="line"/>
      <point x="182.65060240963854" y="522.566265060241" type="line"/>
      <point x="392.93975903614455" y="605.7951807228916" type="line"/>
      <point x="370.2409638554217" y="606.3253012048193" type="line"/>
      <point x="448.66265060240966" y="531.3734939759036"/>
      <point x="477.6024096385542" y="422.12048192771084"/>
      <point x="458.95180722891564" y="304.7469879518072" type="curve"/>
      <point x="482.1807228915663" y="304.7469879518072" type="line"/>
      <point x="471.89156626506025" y="408.8192771084337"/>
      <point x="402.7710843373494" y="458.7710843373494"/>
      <point x="303.46987951807233" y="458.7710843373494" type="curve" smooth="yes"/>
      <point x="168.06024096385542" y="458.7710843373494"/>
      <point x="66.42168674698796" y="371.0"/>
      <point x="45.89156626506024" y="237.93975903614458" type="curve" smooth="yes"/>
      <point x="21.36144578313253" y="87.34939759036145"/>
      <point x="105.40963855421687" y="-8.939759036144578"/>
    </contour>
    <contour>
      <point x="256.03614457831327" y="57.31325301204819" type="curve" smooth="yes"/>
      <point x="161.25301204819277" y="57.31325301204819"/>
      <point x="108.71084337349399" y="118.97590361445783"/>
      <point x="125.89156626506025" y="226.06024096385542" type="curve" smooth="yes"/>
      <point x="143.60240963855424" y="333.855421686747"/>
      <point x="211.7951807228916" y="392.9277108433735"/>
      <point x="308.2289156626506" y="392.9277108433735" type="curve" smooth="yes"/>
      <point x="406.07228915662654" y="392.9277108433735"/>
      <point x="455.08433734939763" y="329.26506024096386"/>
      <point x="438.43373493975906" y="224.18072289156626" type="curve" smooth="yes"/>
      <point x="422.2530120481928" y="120.97590361445783"/>
      <point x="352.0" y="57.31325301204819"/>
    </contour>
  </outline>
</glyph>
<glyph name="divide" format="2">
  <advance width="600.0"/>
  <unicode hex="00F7"/>
  <outline>
    <contour>
      <point x="53.06024096385542" y="255.72289156626505" type="line"/>
      <point x="547.1807228915663" y="255.72289156626505" type="line"/>
      <point x="556.9397590361446" y="317.7469879518072" type="line"/>
      <point x="62.81927710843374" y="317.7469879518072" type="line"/>
    </contour>
    <contour>
      <point x="218.0722891566265" y="44.89156626506024" type="line"/>
      <point x="304.04819277108436" y="44.89156626506024" type="line"/>
      <point x="318.3975903614458" y="130.86746987951807" type="line"/>
      <point x="232.42168674698794" y="130.86746987951807" type="line"/>
    </contour>
    <contour>
      <point x="281.6024096385542" y="442.6024096385542" type="line"/>
      <point x="367.578313253012" y="442.6024096385542" type="line"/>
      <point x="380.92771084337346" y="528.5783132530121" type="line"/>
      <point x="294.95180722891564" y="528.5783132530121" type="line"/>
    </contour>
  </outline>
</glyph>
<glyph name="thorn" format="2">
  <advance width="600.3855421686746"/>
  <unicode hex="00FE"/>
  <anchor x="259.3975903614458" y="0.0" name="bottom"/>
  <anchor x="336.3975903614458" y="484.0" name="top"/>
  <outline>
    <contour>
      <point x="4.602409638554221" y="-216.0" type="line"/>
      <point x="85.6024096385542" y="-216.0" type="line"/>
      <point x="138.72289156626505" y="118.3132530120482" type="line"/>
      <point x="128.25301204819277" y="118.3132530120482" type="line"/>
      <point x="141.3132530120482" y="39.30120481927711"/>
      <point x="205.3132530120482" y="-8.939759036144578"/>
      <point x="294.0843373493976" y="-8.939759036144578" type="curve" smooth="yes"/>
      <point x="425.0843373493976" y="-8.939759036144578"/>
      <point x="525.0240963855422" y="77.65060240963855"/>
      <point x="551.4939759036145" y="239.06024096385542" type="curve" smooth="yes"/>
      <point x="579.0240963855422" y="409.65060240963857"/>
      <point x="502.6746987951807" y="511.28915662650604"/>
      <point x="363.67469879518075" y="511.28915662650604" type="curve" smooth="yes"/>
      <point x="269.3734939759036" y="511.28915662650604"/>
      <point x="200.66265060240963" y="462.578313253012"/>
      <point x="165.5421686746988" y="383.09638554216866" type="curve"/>
      <point x="180.95180722891564" y="384.50602409638554" type="line"/>
      <point x="236.6024096385542" y="736.0" type="line"/>
      <point x="155.6024096385542" y="736.0" type="line"/>
    </contour>
    <contour>
      <point x="287.27710843373495" y="56.8433734939759" type="curve" smooth="yes"/>
      <point x="189.84337349397592" y="56.8433734939759"/>
      <point x="137.42168674698794" y="124.03614457831326"/>
      <point x="157.5421686746988" y="253.7590361445783" type="curve" smooth="yes"/>
      <point x="177.19277108433735" y="378.7831325301205"/>
      <point x="249.91566265060243" y="445.50602409638554"/>
      <point x="342.28915662650604" y="445.50602409638554" type="curve" smooth="yes"/>
      <point x="440.72289156626505" y="445.50602409638554"/>
      <point x="491.6144578313253" y="378.7831325301205"/>
      <point x="470.49397590361446" y="249.06024096385542" type="curve" smooth="yes"/>
      <point x="449.8433734939759" y="123.56626506024097"/>
      <point x="380.6506024096385" y="56.8433734939759"/>
    </contour>
  </outline>
</glyph>
